Moderustic-Regular.ufo
<glyph name="quotedbl" format="2">
  <advance width="409"/>
  <unicode hex="0022"/>
  <outline>
    <contour>
      <point x="276" y="572" type="line"/>
      <point x="334" y="572" type="line"/>
      <point x="349" y="803" type="line"/>
      <point x="261" y="803" type="line"/>
    </contour>
    <contour>
      <point x="75" y="572" type="line"/>
      <point x="133" y="572" type="line"/>
      <point x="148" y="803" type="line"/>
      <point x="60" y="803" type="line"/>
    </contour>
  </outline>
</glyph>
<glyph name="numbersign" format="2">
  <advance width="830"/>
  <unicode hex="0023"/>
  <outline>
    <contour>
      <point x="180" y="210" type="line"/>
      <point x="137" y="0" type="line"/>
      <point x="229" y="0" type="line"/>
      <point x="272" y="210" type="line"/>
      <point x="500" y="210" type="line"/>
      <point x="457" y="0" type="line"/>
      <point x="549" y="0" type="line"/>
      <point x="592" y="210" type="line"/>
      <point x="745" y="210" type="line"/>
      <point x="745" y="250" type="line"/>
      <point x="600" y="250" type="line"/>
      <point x="640" y="445" type="line"/>
      <point x="792" y="445" type="line"/>
      <point x="792" y="485" type="line"/>
      <point x="648" y="485" type="line"/>
      <point x="692" y="700" type="line"/>
      <point x="600" y="700" type="line"/>
      <point x="556" y="485" type="line"/>
      <point x="328" y="485" type="line"/>
      <point x="372" y="700" type="line"/>
      <point x="280" y="700" type="line"/>
      <point x="237" y="485" type="line"/>
      <point x="84" y="485" type="line"/>
      <point x="84" y="445" type="line"/>
      <point x="228" y="445" type="line"/>
      <point x="188" y="250" type="line"/>
      <point x="38" y="250" type="line"/>
      <point x="38" y="210" type="line"/>
    </contour>
    <contour>
      <point x="508" y="250" type="line"/>
      <point x="280" y="250" type="line"/>
      <point x="320" y="445" type="line"/>
      <point x="548" y="445" type="line"/>
    </contour>
  </outline>
</glyph>
<glyph name="dollar" format="2">
  <advance width="600"/>
  <unicode hex="0024"/>
  <outline>
    <contour>
      <point x="106" y="171.126" type="curve"/>
      <point x="48" y="116.728" type="line"/>
      <point x="111" y="41.696"/>
      <point x="194" y="3.242"/>
      <point x="301" y="3.242" type="curve" smooth="yes"/>
      <point x="435" y="3.242"/>
      <point x="541" y="64.298"/>
      <point x="541" y="185.471" type="curve" smooth="yes"/>
      <point x="541" y="285.039"/>
      <point x="469.009" y="353.648"/>
      <point x="313" y="387.425" type="curve" smooth="yes"/>
      <point x="187.009" y="414.704"/>
      <point x="148" y="457.874"/>
      <point x="148" y="516.112" type="curve" smooth="yes"/>
      <point x="148" y="585.622"/>
      <point x="203" y="622.256"/>
      <point x="281" y="622.256" type="curve" smooth="yes"/>
      <point x="353" y="622.256"/>
      <point x="415" y="590.042"/>
      <point x="474" y="529.404" type="curve"/>
      <point x="532" y="583.802" type="line"/>
      <point x="469" y="658.834"/>
      <point x="386" y="697.288"/>
      <point x="284" y="697.288" type="curve" smooth="yes"/>
      <point x="147" y="697.288"/>
      <point x="58" y="628.717"/>
      <point x="58" y="518.817" type="curve" smooth="yes"/>
      <point x="58" y="414.552"/>
      <point x="137.988" y="344.987"/>
      <point x="288" y="314.983" type="curve" smooth="yes"/>
      <point x="400.988" y="292.385"/>
      <point x="451" y="252.049"/>
      <point x="451" y="187.235" type="curve" smooth="yes"/>
      <point x="451" y="114.908"/>
      <point x="390" y="78.274"/>
      <point x="306" y="78.274" type="curve" smooth="yes"/>
      <point x="227" y="78.274"/>
      <point x="165" y="110.488"/>
    </contour>
    <contour>
      <point x="278" y="780" type="line"/>
      <point x="278" y="-101" type="line"/>
      <point x="316" y="-101" type="line"/>
      <point x="316" y="780" type="line"/>
    </contour>
  </outline>
</glyph>
<glyph name="ampersand" format="2">
  <advance width="664"/>
  <unicode hex="0026"/>
  <outline>
    <contour>
      <point x="286" y="-20" type="curve" smooth="yes"/>
      <point x="429" y="-20"/>
      <point x="545" y="58"/>
      <point x="642" y="206" type="curve"/>
      <point x="588.944" y="259.056" type="line"/>
      <point x="515" y="142.884"/>
      <point x="396" y="60"/>
      <point x="291" y="60" type="curve" smooth="yes"/>
      <point x="210" y="60"/>
      <point x="137" y="109"/>
      <point x="137" y="192" type="curve" smooth="yes"/>
      <point x="137" y="247"/>
      <point x="170" y="299"/>
      <point x="229" y="325" type="curve"/>
      <point x="515" y="0" type="line"/>
      <point x="626" y="0" type="line"/>
      <point x="291.025" y="376.203" type="line"/>
      <point x="280.454" y="355.298" type="line"/>
      <point x="419.636" y="419.875"/>
      <point x="481" y="469.466"/>
      <point x="481" y="559" type="curve" smooth="yes"/>
      <point x="481" y="656"/>
      <point x="408.718" y="720"/>
      <point x="290.256" y="720" type="curve" smooth="yes"/>
      <point x="171.794" y="720"/>
      <point x="96.5" y="656"/>
      <point x="96.5" y="554" type="curve" smooth="yes"/>
      <point x="96.5" y="476"/>
      <point x="140.724" y="424"/>
      <point x="195" y="372" type="curve"/>
      <point x="115" y="338"/>
      <point x="47" y="270"/>
      <point x="47" y="173" type="curve" smooth="yes"/>
      <point x="47" y="58"/>
      <point x="142" y="-20"/>
    </contour>
    <contour>
      <point x="225" y="395" type="curve"/>
      <point x="265" y="409" type="line"/>
      <point x="210.348" y="456"/>
      <point x="186.5" y="495"/>
      <point x="186.5" y="543" type="curve" smooth="yes"/>
      <point x="186.5" y="605"/>
      <point x="226.209" y="640"/>
      <point x="287.757" y="640" type="curve" smooth="yes"/>
      <point x="351.291" y="640"/>
      <point x="391" y="603"/>
      <point x="391" y="551" type="curve" smooth="yes"/>
      <point x="391" y="471"/>
      <point x="296.569" y="432"/>
    </contour>
  </outline>
</glyph>
<glyph name="parenright" format="2">
  <advance width="384"/>
  <unicode hex="0029"/>
  <outline>
    <contour>
      <point x="25" y="-192" type="curve"/>
      <point x="25" y="-215" type="line"/>
      <point x="208" y="-177"/>
      <point x="321" y="17"/>
      <point x="321" y="291" type="curve" smooth="yes"/>
      <point x="321" y="560"/>
      <point x="212" y="740"/>
      <point x="25" y="777" type="curve"/>
      <point x="25" y="754" type="line"/>
      <point x="132" y="720"/>
      <point x="231" y="529"/>
      <point x="231" y="290" type="curve" smooth="yes"/>
      <point x="231" y="49"/>
      <point x="131" y="-157"/>
    </contour>
  </outline>
</glyph>
<glyph name="comma" format="2">
  <advance width="262"/>
  <unicode hex="002C"/>
  <outline>
    <contour>
      <point x="74" y="-130" type="curve"/>
      <point x="81" y="-146" type="line"/>
      <point x="145" y="-105"/>
      <point x="188" y="-34"/>
      <point x="188" y="26" type="curve" smooth="yes"/>
      <point x="188" y="72"/>
      <point x="163" y="94"/>
      <point x="132" y="94" type="curve" smooth="yes"/>
      <point x="98" y="94"/>
      <point x="74" y="69"/>
      <point x="74" y="37" type="curve" smooth="yes"/>
      <point x="74" y="-7"/>
      <point x="120" y="-34"/>
      <point x="155" y="-12" type="curve"/>
      <point x="145" y="-48"/>
      <point x="111" y="-101"/>
    </contour>
  </outline>
</glyph>
<glyph name="period" format="2">
  <advance width="262"/>
  <unicode hex="002E"/>
  <outline>
    <contour>
      <point x="131" y="-20" type="curve" smooth="yes"/>
      <point x="164.868" y="-20"/>
      <point x="189.5" y="5.088"/>
      <point x="189.5" y="35.965" type="curve" smooth="yes"/>
      <point x="189.5" y="66.842"/>
      <point x="164.868" y="90"/>
      <point x="131" y="90" type="curve" smooth="yes"/>
      <point x="96.105" y="90"/>
      <point x="72.5" y="66.842"/>
      <point x="72.5" y="35.965" type="curve" smooth="yes"/>
      <point x="72.5" y="5.088"/>
      <point x="96.105" y="-20"/>
    </contour>
  </outline>
</glyph>
<glyph name="slash" format="2">
  <advance width="315"/>
  <unicode hex="002F"/>
  <outline>
    <contour>
      <point x="-40" y="0" type="line"/>
      <point x="-14" y="0" type="line"/>
      <point x="358" y="700" type="line"/>
      <point x="332" y="700" type="line"/>
    </contour>
  </outline>
</glyph>
<glyph name="zero" format="2">
  <advance width="627"/>
  <unicode hex="0030"/>
  <outline>
    <contour>
      <point x="316" y="-19" type="curve" smooth="yes"/>
      <point x="481" y="-19"/>
      <point x="568" y="107"/>
      <point x="568" y="350" type="curve" smooth="yes"/>
      <point x="568" y="592"/>
      <point x="482" y="720"/>
      <point x="320" y="720" type="curve" smooth="yes"/>
      <point x="152" y="720"/>
      <point x="59" y="583"/>
      <point x="59" y="345" type="curve" smooth="yes"/>
      <point x="59" y="110"/>
      <point x="149" y="-19"/>
    </contour>
    <contour>
      <point x="314" y="61" type="curve" smooth="yes"/>
      <point x="211" y="61"/>
      <point x="149" y="153"/>
      <point x="149" y="347" type="curve" smooth="yes"/>
      <point x="149" y="545"/>
      <point x="213" y="640"/>
      <point x="317" y="640" type="curve" smooth="yes"/>
      <point x="418" y="640"/>
      <point x="478" y="551"/>
      <point x="478" y="352" type="curve" smooth="yes"/>
      <point x="478" y="152"/>
      <point x="417" y="61"/>
    </contour>
  </outline>
</glyph>
<glyph name="one" format="2">
  <advance width="456"/>
  <unicode hex="0031"/>
  <outline>
    <contour>
      <point x="269" y="544" type="curve"/>
      <point x="269" y="0" type="line"/>
      <point x="359" y="0" type="line"/>
      <point x="359" y="700" type="line"/>
      <point x="278" y="700" type="line"/>
      <point x="229" y="608"/>
      <point x="157" y="535"/>
      <point x="45" y="515" type="curve"/>
      <point x="45" y="429" type="line"/>
      <point x="189" y="460"/>
      <point x="223" y="490"/>
    </contour>
  </outline>
</glyph>
<glyph name="three" format="2">
  <advance width="578"/>
  <unicode hex="0033"/>
  <outline>
    <contour>
      <point x="92" y="142" type="curve"/>
      <point x="34" y="84" type="line"/>
      <point x="100" y="18"/>
      <point x="187" y="-19"/>
      <point x="287" y="-19" type="curve" smooth="yes"/>
      <point x="421" y="-19"/>
      <point x="523" y="48"/>
      <point x="523" y="183" type="curve" smooth="yes"/>
      <point x="523" y="310"/>
      <point x="434" y="370"/>
      <point x="192" y="360" type="curve"/>
      <point x="192" y="315" type="line"/>
      <point x="349" y="315"/>
      <point x="433" y="266"/>
      <point x="433" y="175" type="curve" smooth="yes"/>
      <point x="433" y="101"/>
      <point x="377" y="61"/>
      <point x="284" y="61" type="curve" smooth="yes"/>
      <point x="209" y="61"/>
      <point x="157" y="87"/>
    </contour>
    <contour>
      <point x="192" y="403" type="curve"/>
      <point x="192" y="358" type="line"/>
      <point x="401" y="348"/>
      <point x="500" y="415"/>
      <point x="500" y="537" type="curve" smooth="yes"/>
      <point x="500" y="644"/>
      <point x="423" y="720"/>
      <point x="279" y="720" type="curve" smooth="yes"/>
      <point x="182" y="720"/>
      <point x="108" y="685"/>
      <point x="62" y="637" type="curve"/>
      <point x="120" y="579" type="line"/>
      <point x="162" y="616"/>
      <point x="211" y="640"/>
      <point x="274" y="640" type="curve" smooth="yes"/>
      <point x="356" y="640"/>
      <point x="410" y="599"/>
      <point x="410" y="531" type="curve" smooth="yes"/>
      <point x="410" y="451"/>
      <point x="335" y="403"/>
    </contour>
  </outline>
</glyph>
<glyph name="four" format="2">
  <advance width="665"/>
  <unicode hex="0034"/>
  <outline>
    <contour>
      <point x="54" y="217" type="line"/>
      <point x="54" y="171" type="line"/>
      <point x="404" y="171" type="line"/>
      <point x="404" y="0" type="line"/>
      <point x="494" y="0" type="line"/>
      <point x="494" y="171" type="line"/>
      <point x="630" y="171" type="line"/>
      <point x="630" y="252" type="line"/>
      <point x="494" y="252" type="line"/>
      <point x="494" y="700" type="line"/>
      <point x="380" y="700" type="line"/>
    </contour>
    <contour>
      <point x="404" y="252" type="line"/>
      <point x="175" y="252" type="line"/>
      <point x="404" y="591" type="line"/>
    </contour>
  </outline>
</glyph>
<glyph name="six" format="2">
  <advance width="631"/>
  <unicode hex="0036"/>
  <outline>
    <contour>
      <point x="487.215" y="579" type="curve"/>
      <point x="545.215" y="637" type="line"/>
      <point x="499.215" y="685"/>
      <point x="427" y="720"/>
      <point x="330" y="720" type="curve" smooth="yes"/>
      <point x="156" y="720"/>
      <point x="48" y="581"/>
      <point x="48" y="329" type="curve" smooth="yes"/>
      <point x="48" y="102"/>
      <point x="144" y="-20"/>
      <point x="319" y="-20" type="curve" smooth="yes"/>
      <point x="484" y="-20"/>
      <point x="579" y="89"/>
      <point x="579" y="228" type="curve" smooth="yes"/>
      <point x="579" y="367"/>
      <point x="477" y="458"/>
      <point x="341" y="458" type="curve" smooth="yes"/>
      <point x="233.079" y="458"/>
      <point x="144.189" y="402.027"/>
      <point x="119.339" y="331.536" type="curve"/>
      <point x="124.308" y="322.177" type="line"/>
      <point x="118.49" y="521.388"/>
      <point x="195.341" y="640"/>
      <point x="333.215" y="640" type="curve" smooth="yes"/>
      <point x="396.215" y="640"/>
      <point x="445.215" y="616"/>
    </contour>
    <contour>
      <point x="149" y="222" type="curve" smooth="yes"/>
      <point x="149" y="324"/>
      <point x="215" y="388"/>
      <point x="322" y="388" type="curve" smooth="yes"/>
      <point x="421" y="388"/>
      <point x="489" y="333"/>
      <point x="489" y="228" type="curve" smooth="yes"/>
      <point x="489" y="126"/>
      <point x="425" y="60"/>
      <point x="317" y="60" type="curve" smooth="yes"/>
      <point x="214" y="60"/>
      <point x="149" y="120"/>
    </contour>
  </outline>
</glyph>
<glyph name="at" format="2">
  <advance width="885"/>
  <unicode hex="0040"/>
  <outline>
    <contour>
      <point x="423" y="-159" type="curve" smooth="yes"/>
      <point x="463" y="-159"/>
      <point x="499" y="-154"/>
      <point x="534" y="-147" type="curve"/>
      <point x="534" y="-97" type="line"/>
      <point x="502" y="-103"/>
      <point x="463" y="-109"/>
      <point x="424" y="-109" type="curve" smooth="yes"/>
      <point x="245" y="-109"/>
      <point x="104" y="17"/>
      <point x="104" y="247" type="curve" smooth="yes"/>
      <point x="104" y="491"/>
      <point x="264" y="611"/>
      <point x="447" y="611" type="curve" smooth="yes"/>
      <point x="631" y="611"/>
      <point x="781" y="489.771"/>
      <point x="781" y="280.375" type="curve" smooth="yes"/>
      <point x="781" y="144.117"/>
      <point x="724.597" y="82"/>
      <point x="663.717" y="82" type="curve" smooth="yes"/>
      <point x="622.534" y="82"/>
      <point x="610" y="110.083"/>
      <point x="610" y="150.201" type="curve" smooth="yes"/>
      <point x="610" y="163.239" type="line"/>
      <point x="629" y="422" type="line"/>
      <point x="584" y="447"/>
      <point x="538" y="460"/>
      <point x="483" y="460" type="curve" smooth="yes"/>
      <point x="321" y="460"/>
      <point x="244" y="349"/>
      <point x="244" y="221" type="curve" smooth="yes"/>
      <point x="244" y="90"/>
      <point x="326.717" y="21"/>
      <point x="421.689" y="21" type="curve" smooth="yes"/>
      <point x="506.449" y="21"/>
      <point x="533" y="75"/>
      <point x="553" y="138" type="curve"/>
      <point x="549.032" y="69"/>
      <point x="588" y="23"/>
      <point x="664" y="23" type="curve" smooth="yes"/>
      <point x="783" y="23"/>
      <point x="841" y="136"/>
      <point x="841" y="282" type="curve" smooth="yes"/>
      <point x="841" y="507"/>
      <point x="680" y="661"/>
      <point x="448" y="661" type="curve" smooth="yes"/>
      <point x="216" y="661"/>
      <point x="44" y="507"/>
      <point x="44" y="244" type="curve" smooth="yes"/>
      <point x="44" y="-6"/>
      <point x="199" y="-159"/>
    </contour>
    <contour>
      <point x="414" y="80" type="curve" smooth="yes"/>
      <point x="354" y="80"/>
      <point x="324" y="123.136"/>
      <point x="324" y="209.407" type="curve" smooth="yes"/>
      <point x="324" y="320.757"/>
      <point x="374" y="398"/>
      <point x="467" y="398" type="curve" smooth="yes"/>
      <point x="499" y="398"/>
      <point x="532" y="388.972"/>
      <point x="554" y="370.915" type="curve"/>
      <point x="553.108" y="361.865"/>
      <point x="552.294" y="351.75"/>
      <point x="551.426" y="340.871" type="curve" smooth="yes"/>
      <point x="543.534" y="242.009"/>
      <point x="531.112" y="80"/>
    </contour>
  </outline>
</glyph>
<glyph name="A" format="2">
  <advance width="655"/>
  <unicode hex="0041"/>
  <anchor x="328" y="-20" name="bottom"/>
  <anchor x="620" y="-3" name="ogonek"/>
  <anchor x="328" y="719" name="top"/>
  <anchor x="106" y="500" name="topgr"/>
  <outline>
    <contour>
      <point x="527" y="0" type="line"/>
      <point x="623" y="0" type="line"/>
      <point x="396" y="700" type="line"/>
      <point x="313" y="700" type="line"/>
    </contour>
    <contour>
      <point x="143" y="141" type="line" name="dv01"/>
      <point x="509" y="141" type="line"/>
      <point x="475" y="216" type="line" name="dv03"/>
      <point x="177" y="216" type="line" name="dv02"/>
    </contour>
    <contour>
      <point x="32" y="0" type="line"/>
      <point x="128" y="0" type="line"/>
      <point x="342" y="700" type="line"/>
      <point x="259" y="700" type="line"/>
    </contour>
  </outline>
</glyph>
<glyph name="B" format="2">
  <advance width="634"/>
  <unicode hex="0042"/>
  <anchor x="328" y="-20" name="bottom"/>
  <anchor x="288" y="719" name="top"/>
  <outline>
    <contour>
      <point x="88" y="0" type="line" name="ab01"/>
      <point x="356" y="0" type="line" smooth="yes"/>
      <point x="489" y="0"/>
      <point x="584" y="73"/>
      <point x="584" y="196" type="curve" smooth="yes"/>
      <point x="584" y="312"/>
      <point x="499" y="372"/>
      <point x="345" y="372" type="curve" name="dv02"/>
      <point x="472" y="372"/>
      <point x="538" y="425"/>
      <point x="538" y="526" type="curve" smooth="yes"/>
      <point x="538" y="636"/>
      <point x="461" y="700"/>
      <point x="332" y="700" type="curve" smooth="yes" name="at01"/>
      <point x="88" y="700" type="line"/>
    </contour>
    <contour>
      <point x="327" y="80" type="curve" smooth="yes" name="sv01"/>
      <point x="178" y="80" type="line"/>
      <point x="178" y="620" type="line" name="sv02"/>
      <point x="317" y="620" type="line" smooth="yes"/>
      <point x="407" y="620"/>
      <point x="447" y="589"/>
      <point x="447" y="520" type="curve" smooth="yes" name="sv04"/>
      <point x="447" y="451"/>
      <point x="406" y="406"/>
      <point x="317" y="406" type="curve" smooth="yes" name="sv03"/>
      <point x="100" y="406" type="line"/>
      <point x="100" y="330" type="line"/>
      <point x="328" y="330" type="line" smooth="yes" name="dv01"/>
      <point x="448" y="330"/>
      <point x="493" y="287"/>
      <point x="493" y="207" type="curve" smooth="yes"/>
      <point x="493" y="127"/>
      <point x="447" y="80"/>
    </contour>
  </outline>
</glyph>
<glyph name="C" format="2">
  <advance width="684"/>
  <unicode hex="0043"/>
  <anchor x="401" y="-20" name="bottom"/>
  <anchor x="381" y="719" name="top"/>
  <outline>
    <contour>
      <point x="385" y="-20" type="curve" smooth="yes" name="dv01"/>
      <point x="483" y="-20"/>
      <point x="563" y="18"/>
      <point x="637" y="102" type="curve"/>
      <point x="579" y="160" type="line"/>
      <point x="527.477" y="93"/>
      <point x="460.101" y="60"/>
      <point x="385.789" y="60" type="curve" smooth="yes" name="dv02"/>
      <point x="243.11" y="60"/>
      <point x="147" y="182"/>
      <point x="147" y="366" type="curve" smooth="yes"/>
      <point x="147" y="542"/>
      <point x="234.193" y="640"/>
      <point x="373.899" y="640" type="curve" smooth="yes" name="dv03"/>
      <point x="453.165" y="640"/>
      <point x="517.569" y="609"/>
      <point x="579" y="541" type="curve"/>
      <point x="637" y="599" type="line"/>
      <point x="572" y="681"/>
      <point x="487" y="720"/>
      <point x="378" y="720" type="curve" smooth="yes" name="dv04"/>
      <point x="172" y="720"/>
      <point x="53" y="581"/>
      <point x="53" y="365" type="curve" smooth="yes"/>
      <point x="53" y="135"/>
      <point x="187" y="-20"/>
    </contour>
  </outline>
</glyph>
<glyph name="F" format="2">
  <advance width="510"/>
  <unicode hex="0046"/>
  <anchor x="271" y="-20" name="bottom"/>
  <anchor x="260" y="719" name="top"/>
  <outline>
    <contour>
      <point x="74" y="700" type="line" name="dh01"/>
      <point x="74" y="0" type="line"/>
      <point x="164" y="0" type="line" name="ab01"/>
      <point x="164" y="310" type="line" name="dv01"/>
      <point x="435" y="310" type="line"/>
      <point x="435" y="390" type="line"/>
      <point x="164" y="390" type="line" name="dv02"/>
      <point x="164" y="620" type="line" name="sv01"/>
      <point x="475" y="620" type="line"/>
      <point x="475" y="700" type="line" name="at01"/>
    </contour>
  </outline>
</glyph>
<glyph name="G" format="2">
  <advance width="776"/>
  <unicode hex="0047"/>
  <anchor x="383" y="-20" name="bottom"/>
  <anchor x="383" y="719" name="top"/>
  <outline>
    <contour>
      <point x="363" y="-20" type="curve" smooth="yes" name="dv01"/>
      <point x="513" y="-20"/>
      <point x="623" y="92"/>
      <point x="622" y="233" type="curve"/>
      <point x="608" y="307" type="line" name="dv07"/>
      <point x="608" y="156.39"/>
      <point x="527.697" y="60"/>
      <point x="376.013" y="60" type="curve" smooth="yes" name="dv02"/>
      <point x="225.32" y="60"/>
      <point x="147" y="154.325"/>
      <point x="147" y="345.986" type="curve" smooth="yes"/>
      <point x="147" y="540.657"/>
      <point x="228.278" y="640"/>
      <point x="382.903" y="640" type="curve" smooth="yes" name="dv03"/>
      <point x="467.154" y="640"/>
      <point x="531.581" y="609.694"/>
      <point x="597" y="541" type="curve"/>
      <point x="655" y="599" type="line"/>
      <point x="588" y="681"/>
      <point x="490" y="720"/>
      <point x="377" y="720" type="curve" smooth="yes" name="dv04"/>
      <point x="177" y="720"/>
      <point x="53" y="597"/>
      <point x="53" y="350" type="curve" smooth="yes"/>
      <point x="53" y="105"/>
      <point x="184" y="-20"/>
    </contour>
    <contour>
      <point x="607" y="0" type="line"/>
      <point x="697" y="0" type="line"/>
      <point x="697" y="366" type="line" name="dv06"/>
      <point x="341" y="366" type="line" name="av02"/>
      <point x="341" y="286" type="line" name="av03"/>
      <point x="607" y="286" type="line" name="dv05"/>
    </contour>
  </outline>
</glyph>
<glyph name="H" format="2">
  <advance width="716"/>
  <unicode hex="0048"/>
  <anchor x="358" y="-20" name="bottom"/>
  <anchor x="358" y="719" name="top"/>
  <anchor x="-28" y="500" name="topgr"/>
  <outline>
    <contour>
      <point x="87" y="0" type="line" name="ab01"/>
      <point x="177" y="0" type="line"/>
      <point x="177" y="330" type="line" name="dv01"/>
      <point x="539" y="330" type="line"/>
      <point x="539" y="0" type="line" name="ab02"/>
      <point x="629" y="0" type="line"/>
      <point x="629" y="700" type="line" name="at01"/>
      <point x="539" y="700" type="line"/>
      <point x="539" y="410" type="line"/>
      <point x="177" y="410" type="line" name="dv02"/>
      <point x="177" y="700" type="line" name="at02"/>
      <point x="87" y="700" type="line"/>
    </contour>
  </outline>
</glyph>
<glyph name="J" format="2">
  <advance width="540"/>
  <unicode hex="004A"/>
  <anchor x="248" y="-20" name="bottom"/>
  <anchor x="418" y="719" name="top"/>
  <outline>
    <contour>
      <point x="74" y="180" type="curve"/>
      <point x="16" y="122" type="line"/>
      <point x="80" y="25"/>
      <point x="150" y="-20"/>
      <point x="249" y="-20" type="curve" smooth="yes" name="dv01"/>
      <point x="384" y="-20"/>
      <point x="461" y="64"/>
      <point x="461" y="222" type="curve" smooth="yes"/>
      <point x="461" y="700" type="line" name="at01"/>
      <point x="371" y="700" type="line"/>
      <point x="371" y="215" type="line" smooth="yes"/>
      <point x="371" y="117"/>
      <point x="326" y="60"/>
      <point x="244" y="60" type="curve" smooth="yes" name="dv02"/>
      <point x="178" y="60"/>
      <point x="124" y="97"/>
    </contour>
  </outline>
</glyph>
<glyph name="N" format="2">
  <advance width="732"/>
  <unicode hex="004E"/>
  <anchor x="366" y="-20" name="bottom"/>
  <anchor x="366" y="719" name="top"/>
  <outline>
    <contour>
      <point x="87" y="700" type="line"/>
      <point x="87" y="0" type="line"/>
      <point x="177" y="0" type="line" name="ab01"/>
      <point x="177" y="554" type="line" name="iv01"/>
      <point x="565" y="0" type="line" name="ab02"/>
      <point x="645" y="0" type="line"/>
      <point x="645" y="700" type="line" name="at01"/>
      <point x="555" y="700" type="line"/>
      <point x="555" y="146" type="line" name="iv02"/>
      <point x="167" y="700" type="line" name="at02"/>
    </contour>
  </outline>
</glyph>
<glyph name="O" format="2">
  <advance width="775"/>
  <unicode hex="004F"/>
  <anchor x="388" y="-20" name="bottom"/>
  <anchor x="514" y="-1" name="ogonek"/>
  <anchor x="388" y="719" name="top"/>
  <anchor x="6" y="500" name="topgr"/>
  <outline>
    <contour>
      <point x="387" y="-20" type="curve" smooth="yes" name="dv01"/>
      <point x="583" y="-20"/>
      <point x="722" y="107"/>
      <point x="722" y="350" type="curve" smooth="yes" name="dv06"/>
      <point x="722" y="575"/>
      <point x="596" y="720"/>
      <point x="388" y="720" type="curve" smooth="yes" name="dv04"/>
      <point x="188" y="720"/>
      <point x="53" y="586"/>
      <point x="53" y="350" type="curve" smooth="yes"/>
      <point x="53" y="109"/>
      <point x="192" y="-20"/>
    </contour>
    <contour>
      <point x="389.969" y="60" type="curve" smooth="yes" name="dv02"/>
      <point x="233.916" y="60"/>
      <point x="147" y="158.541"/>
      <point x="147" y="349.512" type="curve" smooth="yes"/>
      <point x="147" y="531.827"/>
      <point x="233.916" y="640"/>
      <point x="384.043" y="640" type="curve" smooth="yes" name="dv03"/>
      <point x="546.023" y="640"/>
      <point x="628" y="543.671"/>
      <point x="628" y="350.003" type="curve" smooth="yes" name="dv05"/>
      <point x="628" y="170.384"/>
      <point x="539.109" y="60"/>
    </contour>
  </outline>
</glyph>
<glyph name="P" format="2">
  <advance width="628"/>
  <unicode hex="0050"/>
  <anchor x="322" y="-20" name="bottom"/>
  <anchor x="322" y="719" name="top"/>
  <outline>
    <contour>
      <point x="88" y="0" type="line"/>
      <point x="178" y="0" type="line" name="ab01"/>
      <point x="178" y="237" type="line" name="dv01"/>
      <point x="310" y="237" type="line" smooth="yes"/>
      <point x="483" y="237"/>
      <point x="585" y="328"/>
      <point x="585" y="472" type="curve" smooth="yes"/>
      <point x="585" y="612"/>
      <point x="488" y="700"/>
      <point x="314" y="700" type="curve" smooth="yes" name="at01"/>
      <point x="88" y="700" type="line"/>
    </contour>
    <contour>
      <point x="308" y="317" type="curve" smooth="yes"/>
      <point x="178" y="317" type="line" name="dv02"/>
      <point x="178" y="620" type="line" name="sv01"/>
      <point x="311" y="620" type="line" smooth="yes"/>
      <point x="439" y="620"/>
      <point x="495" y="576"/>
      <point x="495" y="474" type="curve" smooth="yes"/>
      <point x="495" y="368"/>
      <point x="435" y="317"/>
    </contour>
  </outline>
</glyph>
<glyph name="Q" format="2">
  <advance width="775"/>
  <unicode hex="0051"/>
  <anchor x="388" y="-20" name="bottom"/>
  <anchor x="514" y="-1" name="ogonek"/>
  <anchor x="388" y="719" name="top"/>
  <outline>
    <contour>
      <point x="387" y="-20" type="curve" smooth="yes" name="dv01"/>
      <point x="583" y="-20"/>
      <point x="722" y="107"/>
      <point x="722" y="350" type="curve" smooth="yes" name="dv06"/>
      <point x="722" y="575"/>
      <point x="596" y="720"/>
      <point x="388" y="720" type="curve" smooth="yes" name="dv04"/>
      <point x="188" y="720"/>
      <point x="53" y="586"/>
      <point x="53" y="350" type="curve" smooth="yes"/>
      <point x="53" y="109"/>
      <point x="192" y="-20"/>
    </contour>
    <contour>
      <point x="634" y="-194" type="curve"/>
      <point x="634" y="-121" type="line"/>
      <point x="468" y="-121"/>
      <point x="443" y="-111"/>
      <point x="443" y="-3" type="curve" name="ab01"/>
      <point x="360" y="-3" type="line" name="ab02"/>
      <point x="360" y="-166"/>
      <point x="412" y="-194"/>
    </contour>
    <contour>
      <point x="389.969" y="60" type="curve" smooth="yes" name="dv02"/>
      <point x="233.916" y="60"/>
      <point x="147" y="158.541"/>
      <point x="147" y="349.512" type="curve" smooth="yes"/>
      <point x="147" y="531.827"/>
      <point x="233.916" y="640"/>
      <point x="384.043" y="640" type="curve" smooth="yes" name="dv03"/>
      <point x="546.023" y="640"/>
      <point x="628" y="543.671"/>
      <point x="628" y="350.003" type="curve" smooth="yes" name="dv05"/>
      <point x="628" y="170.384"/>
      <point x="539.109" y="60"/>
    </contour>
  </outline>
</glyph>
<glyph name="S" format="2">
  <advance width="600"/>
  <unicode hex="0053"/>
  <anchor x="300" y="-20" name="bottom"/>
  <anchor x="286" y="719" name="top"/>
  <outline>
    <contour>
      <point x="106" y="159" type="curve"/>
      <point x="48" y="101" type="line"/>
      <point x="111" y="21"/>
      <point x="194" y="-20"/>
      <point x="301" y="-20" type="curve" smooth="yes"/>
      <point x="435" y="-20"/>
      <point x="541" y="45.099"/>
      <point x="541" y="174.294" type="curve" smooth="yes"/>
      <point x="541" y="280.455"/>
      <point x="469.009" y="353.606"/>
      <point x="313" y="389.621" type="curve" smooth="yes"/>
      <point x="187.009" y="418.705"/>
      <point x="148" y="464.734"/>
      <point x="148" y="526.829" type="curve" smooth="yes"/>
      <point x="148" y="600.941"/>
      <point x="203" y="640"/>
      <point x="281" y="640" type="curve" smooth="yes"/>
      <point x="353" y="640"/>
      <point x="415" y="605.653"/>
      <point x="474" y="541" type="curve"/>
      <point x="532" y="599" type="line"/>
      <point x="469" y="679"/>
      <point x="386" y="720"/>
      <point x="284" y="720" type="curve" smooth="yes"/>
      <point x="147" y="720"/>
      <point x="58" y="646.889"/>
      <point x="58" y="529.712" type="curve" smooth="yes"/>
      <point x="58" y="418.543"/>
      <point x="137.988" y="344.373"/>
      <point x="288" y="312.382" type="curve" smooth="yes"/>
      <point x="400.988" y="288.288"/>
      <point x="451" y="245.281"/>
      <point x="451" y="176.176" type="curve" smooth="yes"/>
      <point x="451" y="99.059"/>
      <point x="390" y="60"/>
      <point x="306" y="60" type="curve" smooth="yes"/>
      <point x="227" y="60"/>
      <point x="165" y="94.347"/>
    </contour>
  </outline>
</glyph>
<glyph name="U" format="2">
  <advance width="675"/>
  <unicode hex="0055"/>
  <anchor x="338" y="-20" name="bottom"/>
  <anchor x="448" y="-1" name="ogonek"/>
  <anchor x="338" y="719" name="top"/>
  <outline>
    <contour>
      <point x="336" y="-20" type="curve" smooth="yes" name="dv01"/>
      <point x="501" y="-20"/>
      <point x="595" y="89"/>
      <point x="595" y="262" type="curve" smooth="yes"/>
      <point x="595" y="700" type="line" name="at02"/>
      <point x="505" y="700" type="line"/>
      <point x="505" y="264" type="line" smooth="yes"/>
      <point x="505" y="121"/>
      <point x="442" y="60"/>
      <point x="337" y="60" type="curve" smooth="yes" name="dv02"/>
      <point x="233" y="60"/>
      <point x="170" y="120"/>
      <point x="170" y="264" type="curve" smooth="yes"/>
      <point x="170" y="700" type="line"/>
      <point x="80" y="700" type="line" name="at01"/>
      <point x="80" y="262" type="line" smooth="yes"/>
      <point x="80" y="88"/>
      <point x="171" y="-20"/>
    </contour>
  </outline>
</glyph>
<glyph name="V" format="2">
  <advance width="655"/>
  <unicode hex="0056"/>
  <anchor x="328" y="-20" name="bottom"/>
  <anchor x="328" y="719" name="top"/>
  <outline>
    <contour>
      <point x="527" y="700" type="line"/>
      <point x="313" y="0" type="line"/>
      <point x="396" y="0" type="line"/>
      <point x="623" y="700" type="line"/>
    </contour>
    <contour>
      <point x="32" y="700" type="line"/>
      <point x="259" y="0" type="line"/>
      <point x="342" y="0" type="line"/>
      <point x="128" y="700" type="line"/>
    </contour>
  </outline>
</glyph>
<glyph name="W" format="2">
  <advance width="960"/>
  <unicode hex="0057"/>
  <anchor x="480" y="-20" name="bottom"/>
  <anchor x="480" y="719" name="top"/>
  <outline>
    <contour>
      <point x="657" y="0" type="line"/>
      <point x="733" y="0" type="line"/>
      <point x="934" y="700" type="line"/>
      <point x="839" y="700" type="line"/>
    </contour>
    <contour>
      <point x="228" y="0" type="line"/>
      <point x="304" y="0" type="line"/>
      <point x="122" y="700" type="line"/>
      <point x="27" y="700" type="line"/>
    </contour>
    <contour>
      <point x="272" y="0" type="line"/>
      <point x="341" y="0" type="line"/>
      <point x="501" y="700" type="line"/>
      <point x="442" y="700" type="line"/>
    </contour>
    <contour>
      <point x="620" y="0" type="line"/>
      <point x="689" y="0" type="line"/>
      <point x="519" y="700" type="line"/>
      <point x="460" y="700" type="line"/>
    </contour>
  </outline>
</glyph>
<glyph name="X" format="2">
  <advance width="648"/>
  <unicode hex="0058"/>
  <anchor x="324" y="-20" name="bottom"/>
  <anchor x="324" y="719" name="top"/>
  <outline>
    <contour>
      <point x="35" y="0" type="line"/>
      <point x="139" y="0" type="line"/>
      <point x="324" y="321" type="line"/>
      <point x="509" y="0" type="line"/>
      <point x="614" y="0" type="line"/>
      <point x="401" y="354" type="line"/>
      <point x="609" y="700" type="line"/>
      <point x="504" y="700" type="line"/>
      <point x="325" y="390" type="line"/>
      <point x="146" y="700" type="line"/>
      <point x="40" y="700" type="line"/>
      <point x="248" y="354" type="line"/>
    </contour>
  </outline>
</glyph>
<glyph name="Y" format="2">
  <advance width="662"/>
  <unicode hex="0059"/>
  <anchor x="331" y="-20" name="bottom"/>
  <anchor x="331" y="719" name="top"/>
  <anchor x="-60" y="500" name="topgr"/>
  <outline>
    <contour>
      <point x="281" y="0" type="line" name="ab01"/>
      <point x="381" y="0" type="line"/>
      <point x="381" y="296" type="line" name="iv04"/>
      <point x="624" y="700" type="line" name="at01"/>
      <point x="507" y="700" type="line"/>
      <point x="331" y="395" type="line" name="iv05"/>
      <point x="155" y="700" type="line" name="at02"/>
      <point x="38" y="700" type="line"/>
      <point x="281" y="296" type="line" name="iv01"/>
    </contour>
  </outline>
</glyph>
<glyph name="Z" format="2">
  <advance width="577"/>
  <unicode hex="005A"/>
  <anchor x="287" y="-20" name="bottom"/>
  <anchor x="297" y="719" name="top"/>
  <outline>
    <contour>
      <point x="38" y="0" type="line" name="ab01"/>
      <point x="536" y="0" type="line"/>
      <point x="536" y="80" type="line" name="sv01"/>
      <point x="143" y="80" type="line"/>
      <point x="534" y="625" type="line"/>
      <point x="534" y="700" type="line" name="at01"/>
      <point x="66" y="700" type="line"/>
      <point x="66" y="620" type="line" name="sv02"/>
      <point x="429" y="620" type="line"/>
      <point x="38" y="75" type="line"/>
    </contour>
  </outline>
</glyph>
<glyph name="bracketleft" format="2">
  <advance width="420"/>
  <unicode hex="005B"/>
  <outline>
    <contour>
      <point x="97" y="778" type="line"/>
      <point x="97" y="-217" type="line"/>
      <point x="357" y="-217" type="line"/>
      <point x="357" y="-162" type="line"/>
      <point x="182" y="-162" type="line"/>
      <point x="182" y="723" type="line"/>
      <point x="357" y="723" type="line"/>
      <point x="357" y="778" type="line"/>
    </contour>
  </outline>
</glyph>
<glyph name="bracketright" format="2">
  <advance width="418"/>
  <unicode hex="005D"/>
  <outline>
    <contour>
      <point x="55" y="-217" type="line"/>
      <point x="326" y="-217" type="line"/>
      <point x="326" y="778" type="line"/>
      <point x="55" y="778" type="line"/>
      <point x="55" y="723" type="line"/>
      <point x="241" y="723" type="line"/>
      <point x="241" y="-162" type="line"/>
      <point x="55" y="-162" type="line"/>
    </contour>
  </outline>
</glyph>
<glyph name="a" format="2">
  <advance width="596"/>
  <unicode hex="0061"/>
  <anchor x="284" y="-20" name="bottom"/>
  <anchor x="510" y="-3" name="ogonek"/>
  <anchor x="283" y="520" name="top"/>
  <outline>
    <contour>
      <point x="253.623" y="-20" type="curve" smooth="yes" name="dv01"/>
      <point x="377.627" y="-20"/>
      <point x="445" y="78"/>
      <point x="445" y="248" type="curve" smooth="yes"/>
      <point x="445" y="422"/>
      <point x="374.698" y="520"/>
      <point x="244.835" y="520" type="curve" smooth="yes" name="at01"/>
      <point x="108.137" y="520"/>
      <point x="31" y="406"/>
      <point x="31" y="254" type="curve" smooth="yes"/>
      <point x="31" y="94"/>
      <point x="116.925" y="-20"/>
    </contour>
    <contour>
      <point x="267.16" y="50" type="curve" smooth="yes" name="dv02"/>
      <point x="178.109" y="50"/>
      <point x="121" y="131.203"/>
      <point x="121" y="256.516" type="curve" smooth="yes"/>
      <point x="121" y="377.82"/>
      <point x="175.205" y="450"/>
      <point x="264.256" y="450" type="curve" smooth="yes" name="sv01"/>
      <point x="358.147" y="450"/>
      <point x="423" y="369.799"/>
      <point x="423" y="253.509" type="curve" smooth="yes"/>
      <point x="423" y="139.223"/>
      <point x="360.083" y="50"/>
    </contour>
    <contour>
      <point x="423" y="0" type="line" name="ab01"/>
      <point x="513" y="0" type="line"/>
      <point x="513" y="500" type="line" name="av01"/>
      <point x="423" y="500" type="line"/>
    </contour>
  </outline>
</glyph>
<glyph name="b" format="2">
  <advance width="600"/>
  <unicode hex="0062"/>
  <anchor x="330" y="-20" name="bottom"/>
  <anchor x="338" y="750" name="top"/>
  <outline>
    <contour>
      <point x="78" y="750" type="line" name="sh01"/>
      <point x="78" y="0" type="line"/>
      <point x="168" y="0" type="line" name="ab02"/>
      <point x="168" y="750" type="line" name="ab01"/>
    </contour>
    <contour>
      <point x="336.646" y="-20" type="curve" smooth="yes" name="dv01"/>
      <point x="474" y="-20"/>
      <point x="560" y="99"/>
      <point x="560" y="255" type="curve" smooth="yes"/>
      <point x="560" y="411"/>
      <point x="483" y="520"/>
      <point x="345.437" y="520" type="curve" smooth="yes" name="at01"/>
      <point x="215" y="520"/>
      <point x="146" y="422"/>
      <point x="146" y="255" type="curve" smooth="yes"/>
      <point x="146" y="78"/>
      <point x="212" y="-20"/>
    </contour>
    <contour>
      <point x="323" y="50" type="curve" smooth="yes" name="dv02"/>
      <point x="231" y="50"/>
      <point x="168" y="138.221"/>
      <point x="168" y="255.514" type="curve" smooth="yes"/>
      <point x="168" y="368.797"/>
      <point x="233" y="450"/>
      <point x="324" y="450" type="curve" smooth="yes" name="sv01"/>
      <point x="415" y="450"/>
      <point x="470" y="376.817"/>
      <point x="470" y="255.514" type="curve" smooth="yes"/>
      <point x="470" y="132.206"/>
      <point x="412" y="50"/>
    </contour>
  </outline>
</glyph>
<glyph name="c" format="2">
  <advance width="545"/>
  <unicode hex="0063"/>
  <anchor x="304" y="-20" name="bottom"/>
  <anchor x="304" y="520" name="top"/>
  <outline>
    <contour>
      <point x="295" y="-20" type="curve" smooth="yes" name="dv01"/>
      <point x="391" y="-20"/>
      <point x="466" y="17"/>
      <point x="507" y="70" type="curve"/>
      <point x="454" y="123" type="line"/>
      <point x="418" y="76.361"/>
      <point x="357" y="50"/>
      <point x="295" y="50" type="curve" smooth="yes" name="dv02"/>
      <point x="198" y="50"/>
      <point x="150" y="118.342"/>
      <point x="150" y="255.025" type="curve" smooth="yes"/>
      <point x="150" y="387.688"/>
      <point x="197" y="450"/>
      <point x="297" y="450" type="curve" smooth="yes" name="sv01"/>
      <point x="356" y="450"/>
      <point x="412" y="423.639"/>
      <point x="448" y="377" type="curve"/>
      <point x="501" y="430" type="line"/>
      <point x="460" y="483"/>
      <point x="388" y="520"/>
      <point x="294" y="520" type="curve" smooth="yes" name="at01"/>
      <point x="144" y="520"/>
      <point x="60" y="421"/>
      <point x="60" y="255" type="curve" smooth="yes"/>
      <point x="60" y="79"/>
      <point x="146" y="-20"/>
    </contour>
  </outline>
</glyph>
<glyph name="d" format="2">
  <advance width="597"/>
  <unicode hex="0064"/>
  <anchor x="285" y="-20" name="bottom"/>
  <anchor x="280" y="750" name="top"/>
  <anchor x="560" y="750" name="topright"/>
  <outline>
    <contour>
      <point x="278" y="-20" type="curve" smooth="yes" name="dv01"/>
      <point x="398" y="-20"/>
      <point x="464" y="78"/>
      <point x="464" y="255" type="curve" smooth="yes"/>
      <point x="464" y="422"/>
      <point x="395" y="520"/>
      <point x="272" y="520" type="curve" smooth="yes" name="at01"/>
      <point x="127" y="520"/>
      <point x="50" y="411"/>
      <point x="50" y="255" type="curve" smooth="yes"/>
      <point x="50" y="99"/>
      <point x="136" y="-20"/>
    </contour>
    <contour>
      <point x="286.513" y="50" type="curve" smooth="yes" name="dv02"/>
      <point x="196.811" y="50"/>
      <point x="140" y="130.201"/>
      <point x="140" y="255.514" type="curve" smooth="yes"/>
      <point x="140" y="378.822"/>
      <point x="190.831" y="450"/>
      <point x="285.517" y="450" type="curve" smooth="yes" name="sv01"/>
      <point x="376.215" y="450"/>
      <point x="441" y="369.799"/>
      <point x="441" y="256.516" type="curve" smooth="yes"/>
      <point x="441" y="141.228"/>
      <point x="378.209" y="50"/>
    </contour>
    <contour>
      <point x="442" y="0" type="line" name="ab02"/>
      <point x="532" y="0" type="line"/>
      <point x="532" y="750" type="line" name="ab01"/>
      <point x="442" y="750" type="line"/>
    </contour>
  </outline>
</glyph>
<glyph name="e" format="2">
  <advance width="550"/>
  <unicode hex="0065"/>
  <anchor x="271" y="-20" name="bottom"/>
  <anchor x="390" y="-3" name="ogonek"/>
  <anchor x="271" y="520" name="top"/>
  <outline>
    <contour>
      <point x="280.522" y="-20" type="curve" smooth="yes" name="dv01"/>
      <point x="368.907" y="-20"/>
      <point x="435.893" y="17"/>
      <point x="476" y="70" type="curve"/>
      <point x="423" y="123" type="line"/>
      <point x="388.029" y="76.361"/>
      <point x="339.442" y="50"/>
      <point x="281.859" y="50" type="curve" smooth="yes" name="dv02"/>
      <point x="182.887" y="50"/>
      <point x="137" y="128.419"/>
      <point x="137" y="237" type="curve" name="sv04"/>
      <point x="500" y="237" type="line" name="dv03"/>
      <point x="511.739" y="421"/>
      <point x="425.76" y="520"/>
      <point x="276.907" y="520" type="curve" smooth="yes" name="at01"/>
      <point x="132.95" y="520"/>
      <point x="47" y="427"/>
      <point x="47" y="251" type="curve" smooth="yes" name="sv03"/>
      <point x="47" y="72"/>
      <point x="141.897" y="-20"/>
    </contour>
    <contour>
      <point x="407" y="296" type="curve" name="dv04"/>
      <point x="141" y="296" type="line" name="sv02"/>
      <point x="150.276" y="398.329"/>
      <point x="203.277" y="450"/>
      <point x="276.94" y="450" type="curve" smooth="yes" name="sv01"/>
      <point x="350.603" y="450"/>
      <point x="397.316" y="398.329"/>
    </contour>
  </outline>
</glyph>
<glyph name="f" format="2">
  <advance width="413"/>
  <unicode hex="0066"/>
  <anchor x="173" y="-20" name="bottom"/>
  <anchor x="240" y="750" name="top"/>
  <outline>
    <contour>
      <point x="129" y="430" type="line" name="dv03"/>
      <point x="129" y="0" type="line" name="ab01"/>
      <point x="219" y="0" type="line"/>
      <point x="219" y="430" type="line" name="sv01"/>
      <point x="374" y="430" type="line"/>
      <point x="374" y="500" type="line" name="sv02"/>
      <point x="219" y="500" type="line"/>
      <point x="219" y="609" type="line" smooth="yes"/>
      <point x="219" y="670"/>
      <point x="238" y="680"/>
      <point x="270" y="680" type="curve" smooth="yes" name="dv01"/>
      <point x="291" y="680"/>
      <point x="327" y="676"/>
      <point x="351" y="668" type="curve"/>
      <point x="366" y="728" type="line"/>
      <point x="314" y="745.217"/>
      <point x="289" y="750"/>
      <point x="261" y="750" type="curve" smooth="yes" name="dv02"/>
      <point x="178" y="750"/>
      <point x="129" y="708.167"/>
      <point x="129" y="607.57" type="curve" smooth="yes"/>
      <point x="129" y="500" type="line" name="dv04"/>
      <point x="22" y="500" type="line"/>
      <point x="22" y="430" type="line"/>
    </contour>
  </outline>
</glyph>
<glyph name="g" format="2">
  <advance width="605"/>
  <unicode hex="0067"/>
  <anchor x="298" y="-220" name="bottom"/>
  <anchor x="307" y="520" name="top"/>
  <outline>
    <contour>
      <point x="288" y="-220" type="curve" smooth="yes" name="dv01"/>
      <point x="449" y="-220"/>
      <point x="531" y="-121"/>
      <point x="531" y="52" type="curve" smooth="yes"/>
      <point x="531" y="500" type="line" name="av01"/>
      <point x="441" y="500" type="line"/>
      <point x="441" y="36.287" type="line" smooth="yes"/>
      <point x="441" y="-117.951"/>
      <point x="373" y="-150"/>
      <point x="293" y="-150" type="curve" smooth="yes" name="dv02"/>
      <point x="220" y="-150"/>
      <point x="165" y="-123.639"/>
      <point x="129" y="-77" type="curve"/>
      <point x="76" y="-130" type="line"/>
      <point x="117" y="-183"/>
      <point x="189" y="-220"/>
    </contour>
    <contour>
      <point x="270" y="-20" type="curve" smooth="yes" name="dv01"/>
      <point x="398" y="-20"/>
      <point x="464" y="88"/>
      <point x="464" y="253" type="curve" smooth="yes"/>
      <point x="464" y="422"/>
      <point x="395" y="520"/>
      <point x="265" y="520" type="curve" smooth="yes" name="at01"/>
      <point x="127" y="520"/>
      <point x="50" y="411"/>
      <point x="50" y="259" type="curve" smooth="yes"/>
      <point x="50" y="99"/>
      <point x="136" y="-20"/>
    </contour>
    <contour>
      <point x="285" y="50" type="curve" smooth="yes" name="dv02"/>
      <point x="198" y="50"/>
      <point x="140" y="131.203"/>
      <point x="140" y="256.516" type="curve" smooth="yes"/>
      <point x="140" y="377.82"/>
      <point x="194" y="450"/>
      <point x="283" y="450" type="curve" smooth="yes" name="sv01"/>
      <point x="376" y="450"/>
      <point x="441" y="369.799"/>
      <point x="441" y="254.511" type="curve" smooth="yes"/>
      <point x="441" y="141.228"/>
      <point x="378" y="50"/>
    </contour>
  </outline>
</glyph>
<glyph name="k" format="2">
  <advance width="574"/>
  <unicode hex="006B"/>
  <anchor x="277" y="-20" name="bottom"/>
  <anchor x="116" y="750" name="top"/>
  <outline>
    <contour>
      <point x="67" y="750" type="line"/>
      <point x="67" y="0" type="line" name="sv03"/>
      <point x="157" y="0" type="line" name="ab02"/>
      <point x="157" y="750" type="line" name="ab01"/>
    </contour>
    <contour>
      <point x="74" y="299" type="line"/>
      <point x="81" y="234" type="line"/>
      <point x="328" y="234" type="line" name="iv01"/>
      <point x="432" y="0" type="line" name="ab02"/>
      <point x="534" y="0" type="line"/>
      <point x="394" y="263" type="line"/>
      <point x="520" y="500" type="line" name="av02"/>
      <point x="425" y="500" type="line"/>
      <point x="332" y="299" type="line" name="iv02"/>
    </contour>
  </outline>
</glyph>
<glyph name="l" format="2">
  <advance width="300"/>
  <unicode hex="006C"/>
  <anchor x="180" y="-20" name="bottom"/>
  <anchor x="128" y="750" name="top"/>
  <anchor x="220" y="750" name="topright"/>
  <outline>
    <contour>
      <point x="191" y="-20" type="curve" smooth="yes" name="dv01"/>
      <point x="216" y="-20"/>
      <point x="241" y="-17"/>
      <point x="284" y="1" type="curve"/>
      <point x="266" y="68" type="line"/>
      <point x="246" y="59"/>
      <point x="221" y="53"/>
      <point x="200" y="53" type="curve" smooth="yes" name="dv02"/>
      <point x="166" y="53"/>
      <point x="156" y="68"/>
      <point x="156" y="141" type="curve" smooth="yes"/>
      <point x="156" y="750" type="line" name="ab01"/>
      <point x="66" y="750" type="line"/>
      <point x="66" y="132" type="line" smooth="yes"/>
      <point x="66" y="30"/>
      <point x="102" y="-20"/>
    </contour>
  </outline>
</glyph>
<glyph name="o" format="2">
  <advance width="578"/>
  <unicode hex="006F"/>
  <anchor x="289" y="-20" name="bottom"/>
  <anchor x="391" y="-3" name="ogonek"/>
  <anchor x="289" y="520" name="top"/>
  <anchor x="289" y="520" name="topgr"/>
  <outline>
    <contour>
      <point x="282.9" y="-20" type="curve" smooth="yes" name="dv01"/>
      <point x="447.611" y="-20"/>
      <point x="532" y="79"/>
      <point x="532" y="255" type="curve" smooth="yes"/>
      <point x="532" y="421"/>
      <point x="447.611" y="520"/>
      <point x="283.916" y="520" type="curve" smooth="yes" name="at01"/>
      <point x="131.406" y="520"/>
      <point x="46" y="421"/>
      <point x="46" y="255" type="curve" smooth="yes"/>
      <point x="46" y="79"/>
      <point x="131.406" y="-20"/>
    </contour>
    <contour>
      <point x="284.893" y="50" type="curve" smooth="yes" name="dv02"/>
      <point x="185.289" y="50"/>
      <point x="136" y="118.342"/>
      <point x="136" y="255.025" type="curve" smooth="yes"/>
      <point x="136" y="387.688"/>
      <point x="184.262" y="450"/>
      <point x="286.946" y="450" type="curve" smooth="yes" name="sv01"/>
      <point x="390.658" y="450"/>
      <point x="442" y="383.668"/>
      <point x="442" y="253.015" type="curve" smooth="yes"/>
      <point x="442" y="115.327"/>
      <point x="391.685" y="50"/>
    </contour>
  </outline>
</glyph>
<glyph name="p" format="2">
  <advance width="597"/>
  <unicode hex="0070"/>
  <anchor x="335" y="-20" name="bottom"/>
  <anchor x="326" y="520" name="top"/>
  <outline>
    <contour>
      <point x="77" y="500" type="line"/>
      <point x="77" y="-200" type="line" name="av01"/>
      <point x="167" y="-200" type="line"/>
      <point x="167" y="500" type="line" name="av02"/>
    </contour>
    <contour>
      <point x="331" y="-20" type="curve" smooth="yes" name="dv01"/>
      <point x="473" y="-20"/>
      <point x="559" y="99"/>
      <point x="559" y="255" type="curve" smooth="yes"/>
      <point x="559" y="411"/>
      <point x="482" y="520"/>
      <point x="337" y="520" type="curve" smooth="yes" name="at01"/>
      <point x="214" y="520"/>
      <point x="145" y="402"/>
      <point x="145" y="255" type="curve" smooth="yes"/>
      <point x="145" y="108"/>
      <point x="211" y="-20"/>
    </contour>
    <contour>
      <point x="322" y="50" type="curve" smooth="yes" name="dv02"/>
      <point x="230" y="50"/>
      <point x="167" y="141.228"/>
      <point x="167" y="256.516" type="curve" smooth="yes"/>
      <point x="167" y="369.8"/>
      <point x="232" y="450"/>
      <point x="323" y="450" type="curve" smooth="yes" name="sv01"/>
      <point x="415" y="450"/>
      <point x="469" y="378.822"/>
      <point x="469" y="255.514" type="curve" smooth="yes"/>
      <point x="469" y="130.2"/>
      <point x="412" y="50"/>
    </contour>
  </outline>
</glyph>
<glyph name="q" format="2">
  <advance width="595"/>
  <unicode hex="0071"/>
  <anchor x="280" y="-20" name="bottom"/>
  <anchor x="274" y="520" name="top"/>
  <outline>
    <contour>
      <point x="268" y="-20" type="curve" smooth="yes" name="dv01"/>
      <point x="388" y="-20"/>
      <point x="454" y="78"/>
      <point x="454" y="255" type="curve" smooth="yes"/>
      <point x="454" y="422"/>
      <point x="385" y="520"/>
      <point x="262" y="520" type="curve" smooth="yes" name="at01"/>
      <point x="117" y="520"/>
      <point x="40" y="411"/>
      <point x="40" y="255" type="curve" smooth="yes"/>
      <point x="40" y="99"/>
      <point x="126" y="-20"/>
    </contour>
    <contour>
      <point x="277" y="50" type="curve" smooth="yes" name="dv02"/>
      <point x="189" y="50"/>
      <point x="130" y="133.208"/>
      <point x="130" y="255.514" type="curve" smooth="yes"/>
      <point x="130" y="375.815"/>
      <point x="186" y="450"/>
      <point x="276" y="450" type="curve" smooth="yes" name="sv01"/>
      <point x="367" y="450"/>
      <point x="432" y="369.799"/>
      <point x="432" y="256.516" type="curve" smooth="yes"/>
      <point x="432" y="141.228"/>
      <point x="369" y="50"/>
    </contour>
    <contour>
      <point x="432" y="-200" type="line"/>
      <point x="522" y="-200" type="line"/>
      <point x="522" y="500" type="line"/>
      <point x="432" y="500" type="line"/>
    </contour>
  </outline>
</glyph>
<glyph name="r" format="2">
  <advance width="410"/>
  <unicode hex="0072"/>
  <anchor x="126" y="-20" name="bottom"/>
  <anchor x="229" y="520" name="top"/>
  <outline>
    <contour>
      <point x="84" y="500" type="line" name="av01"/>
      <point x="84" y="0" type="line" name="ab01"/>
      <point x="174" y="0" type="line"/>
      <point x="174" y="226" type="line" smooth="yes"/>
      <point x="174" y="329"/>
      <point x="214" y="450"/>
      <point x="363" y="450" type="curve" name="sv01"/>
      <point x="363" y="520" type="line" name="at01"/>
      <point x="260" y="518"/>
      <point x="199" y="465"/>
      <point x="174" y="385" type="curve" name="iv01"/>
      <point x="174" y="500" type="line"/>
    </contour>
  </outline>
</glyph>
<glyph name="s" format="2">
  <advance width="487"/>
  <unicode hex="0073"/>
  <anchor x="243" y="-20" name="bottom"/>
  <anchor x="243" y="520" name="top"/>
  <outline>
    <contour>
      <point x="112" y="123" type="curve"/>
      <point x="59" y="70" type="line"/>
      <point x="98" y="20"/>
      <point x="165" y="-20"/>
      <point x="251" y="-20" type="curve" smooth="yes"/>
      <point x="360" y="-20"/>
      <point x="442" y="44.136"/>
      <point x="442" y="130.32" type="curve" smooth="yes"/>
      <point x="442" y="202.473"/>
      <point x="384.987" y="246.519"/>
      <point x="287" y="273.625" type="curve" smooth="yes"/>
      <point x="192.987" y="299.632"/>
      <point x="159" y="334.755"/>
      <point x="159" y="376.844" type="curve" smooth="yes"/>
      <point x="159" y="421.94"/>
      <point x="197" y="450"/>
      <point x="247" y="450" type="curve" smooth="yes"/>
      <point x="296" y="450"/>
      <point x="346" y="421.611"/>
      <point x="380" y="377" type="curve"/>
      <point x="433" y="430" type="line"/>
      <point x="394" y="480"/>
      <point x="327" y="520"/>
      <point x="243" y="520" type="curve" smooth="yes"/>
      <point x="137" y="520"/>
      <point x="69" y="455.864"/>
      <point x="69" y="373.689" type="curve" smooth="yes"/>
      <point x="69" y="298.529"/>
      <point x="124.967" y="241.281"/>
      <point x="237" y="212.345" type="curve" smooth="yes"/>
      <point x="318.968" y="191.175"/>
      <point x="352" y="160.235"/>
      <point x="352" y="120.149" type="curve" smooth="yes"/>
      <point x="352" y="77.058"/>
      <point x="314" y="50"/>
      <point x="256" y="50" type="curve" smooth="yes"/>
      <point x="196" y="50"/>
      <point x="146" y="78.389"/>
    </contour>
  </outline>
</glyph>
<glyph name="t" format="2">
  <advance width="395"/>
  <unicode hex="0074"/>
  <anchor x="220" y="0" name="bottom"/>
  <anchor x="165" y="630" name="top"/>
  <anchor x="254" y="700" name="topright"/>
  <outline>
    <contour>
      <point x="348.75" y="5.64" type="curve"/>
      <point x="330.57" y="73.3" type="line"/>
      <point x="309.42" y="61.43"/>
      <point x="278.89" y="53"/>
      <point x="254" y="53" type="curve" smooth="yes" name="dv02"/>
      <point x="220" y="53"/>
      <point x="210" y="68"/>
      <point x="210" y="141" type="curve" smooth="yes"/>
      <point x="210" y="620" type="line" name="ab01"/>
      <point x="120" y="620" type="line"/>
      <point x="120" y="132" type="line" smooth="yes"/>
      <point x="120" y="30"/>
      <point x="156" y="-20"/>
      <point x="245" y="-20" type="curve" smooth="yes" name="dv01"/>
      <point x="272.01" y="-20"/>
      <point x="299.02" y="-16.48"/>
    </contour>
    <contour>
      <point x="13" y="500" type="line" name="dv04"/>
      <point x="13" y="430" type="line" name="dv03"/>
      <point x="345" y="430" type="line"/>
      <point x="345" y="500" type="line"/>
    </contour>
  </outline>
</glyph>
<glyph name="u" format="2">
  <advance width="580"/>
  <unicode hex="0075"/>
  <anchor x="290" y="-20" name="bottom"/>
  <anchor x="389" y="-3" name="ogonek"/>
  <anchor x="290" y="520" name="top"/>
  <outline>
    <contour>
      <point x="290" y="-20" type="curve" smooth="yes" name="dv01"/>
      <point x="426" y="-20"/>
      <point x="503" y="65"/>
      <point x="503" y="185" type="curve" smooth="yes"/>
      <point x="503" y="500" type="line" name="av02"/>
      <point x="413" y="500" type="line"/>
      <point x="413" y="184.298" type="line" smooth="yes"/>
      <point x="413" y="91.091"/>
      <point x="368" y="50"/>
      <point x="291" y="50" type="curve" smooth="yes" name="dv02"/>
      <point x="215" y="50"/>
      <point x="166" y="88.085"/>
      <point x="166" y="184.298" type="curve" smooth="yes"/>
      <point x="166" y="500" type="line"/>
      <point x="76" y="500" type="line" name="av01"/>
      <point x="76" y="185" type="line" smooth="yes"/>
      <point x="76" y="62"/>
      <point x="155" y="-20"/>
    </contour>
  </outline>
</glyph>
<glyph name="w" format="2">
  <advance width="854"/>
  <unicode hex="0077"/>
  <anchor x="427" y="-20" name="bottom"/>
  <anchor x="427" y="520" name="top"/>
  <outline>
    <contour>
      <point x="37" y="500" type="line"/>
      <point x="219" y="0" type="line"/>
      <point x="305" y="0" type="line"/>
      <point x="427" y="404" type="line"/>
      <point x="549" y="0" type="line"/>
      <point x="635" y="0" type="line"/>
      <point x="817" y="500" type="line"/>
      <point x="718" y="500" type="line"/>
      <point x="590" y="108" type="line"/>
      <point x="467" y="500" type="line"/>
      <point x="387" y="500" type="line"/>
      <point x="264" y="108" type="line"/>
      <point x="136" y="500" type="line"/>
    </contour>
  </outline>
</glyph>
<glyph name="x" format="2">
  <advance width="554"/>
  <unicode hex="0078"/>
  <anchor x="277" y="-20" name="bottom"/>
  <anchor x="277" y="520" name="top"/>
  <outline>
    <contour>
      <point x="211.18" y="261.573" type="line"/>
      <point x="41" y="0" type="line" name="ab01"/>
      <point x="148" y="0" type="line"/>
      <point x="276" y="222" type="line" name="iv01"/>
      <point x="404" y="0" type="line" name="ab02"/>
      <point x="513" y="0" type="line"/>
      <point x="349.059" y="262.726" type="line"/>
      <point x="339.059" y="237.274" type="line"/>
      <point x="503" y="500" type="line" name="av02"/>
      <point x="395" y="500" type="line"/>
      <point x="259.508" y="265.005" type="line" name="iv02"/>
      <point x="294.492" y="265.005" type="line"/>
      <point x="159" y="500" type="line"/>
      <point x="50" y="500" type="line" name="av01"/>
      <point x="221.17" y="236.42" type="line"/>
    </contour>
  </outline>
</glyph>
<glyph name="y" format="2">
  <advance width="526"/>
  <unicode hex="0079"/>
  <anchor x="430" y="1" name="bottom"/>
  <anchor x="263" y="520" name="top"/>
  <outline>
    <contour>
      <point x="68" y="-136" type="curve"/>
      <point x="46" y="-198" type="line"/>
      <point x="88" y="-212"/>
      <point x="101" y="-221"/>
      <point x="158" y="-221" type="curve" smooth="yes" name="dv01"/>
      <point x="240" y="-221"/>
      <point x="275" y="-171"/>
      <point x="307" y="-78" type="curve" smooth="yes"/>
      <point x="506" y="500" type="line" name="av01"/>
      <point x="411" y="500" type="line"/>
      <point x="229" y="-57.857" type="line" smooth="yes"/>
      <point x="209.651" y="-117.164"/>
      <point x="187" y="-151"/>
      <point x="143" y="-151" type="curve" smooth="yes" name="dv02"/>
      <point x="125" y="-151"/>
      <point x="93" y="-145.643"/>
    </contour>
    <contour>
      <point x="20" y="500" type="line"/>
      <point x="192" y="0" type="line"/>
      <point x="277" y="0" type="line"/>
      <point x="115" y="500" type="line" name="av02"/>
    </contour>
  </outline>
</glyph>
<glyph name="z" format="2">
  <advance width="473"/>
  <unicode hex="007A"/>
  <anchor x="236" y="-20" name="bottom"/>
  <anchor x="246" y="520" name="top"/>
  <outline>
    <contour>
      <point x="33" y="60" type="line"/>
      <point x="33" y="0" type="line" name="ab01"/>
      <point x="440" y="0" type="line"/>
      <point x="440" y="70" type="line" name="sv01"/>
      <point x="138" y="70" type="line"/>
      <point x="440" y="440" type="line"/>
      <point x="440" y="500" type="line"/>
      <point x="53" y="500" type="line" name="dv02"/>
      <point x="53" y="430" type="line" name="dv01"/>
      <point x="335" y="430" type="line"/>
    </contour>
  </outline>
</glyph>
<glyph name="braceleft" format="2">
  <advance width="366"/>
  <unicode hex="007B"/>
  <outline>
    <contour>
      <point x="321" y="-336" type="curve"/>
      <point x="332" y="-307" type="line"/>
      <point x="257.421" y="-276.681"/>
      <point x="243.5" y="-205.286"/>
      <point x="243.5" y="-85.967" type="curve" smooth="yes"/>
      <point x="243.5" y="138" type="line" smooth="yes"/>
      <point x="243.5" y="202"/>
      <point x="232.45" y="251"/>
      <point x="132" y="289" type="curve"/>
      <point x="229.437" y="325"/>
      <point x="243.5" y="365"/>
      <point x="243.5" y="429" type="curve" smooth="yes"/>
      <point x="243.5" y="609.378" type="line" smooth="yes"/>
      <point x="243.5" y="732.363"/>
      <point x="259.412" y="809.229"/>
      <point x="334" y="841" type="curve"/>
      <point x="321" y="870" type="line"/>
      <point x="195.626" y="799.428"/>
      <point x="153.5" y="697.15"/>
      <point x="153.5" y="602.032" type="curve" smooth="yes"/>
      <point x="153.5" y="421" type="line" smooth="yes"/>
      <point x="153.5" y="371"/>
      <point x="113.674" y="310"/>
      <point x="39" y="299" type="curve"/>
      <point x="39" y="282" type="line"/>
      <point x="92.765" y="272"/>
      <point x="153.5" y="236"/>
      <point x="153.5" y="165" type="curve" smooth="yes"/>
      <point x="153.5" y="-75.205" type="line" smooth="yes"/>
      <point x="153.5" y="-174.229"/>
      <point x="195.626" y="-268.35"/>
    </contour>
  </outline>
</glyph>
<glyph name="yen" format="2">
  <advance width="662"/>
  <unicode hex="00A5"/>
  <outline>
    <contour>
      <point x="281" y="0" type="line" name="ab01"/>
      <point x="381" y="0" type="line"/>
      <point x="381" y="296" type="line" name="iv04"/>
      <point x="624" y="700" type="line" name="at01"/>
      <point x="507" y="700" type="line"/>
      <point x="331" y="395" type="line" name="iv05"/>
      <point x="155" y="700" type="line" name="at02"/>
      <point x="38" y="700" type="line"/>
      <point x="281" y="296" type="line" name="iv01"/>
    </contour>
    <contour>
      <point x="130" y="117" type="line"/>
      <point x="533" y="117" type="line"/>
      <point x="533" y="150" type="line"/>
      <point x="130" y="150" type="line"/>
    </contour>
    <contour>
      <point x="130" y="248" type="line"/>
      <point x="533" y="248" type="line"/>
      <point x="533" y="281" type="line"/>
      <point x="130" y="281" type="line"/>
    </contour>
  </outline>
</glyph>
<glyph name="copyright" format="2">
  <advance width="817"/>
  <unicode hex="00A9"/>
  <outline>
    <contour>
      <point x="411" y="12" type="curve" smooth="yes"/>
      <point x="589" y="12"/>
      <point x="773" y="137.814"/>
      <point x="773" y="356.49" type="curve" smooth="yes"/>
      <point x="773" y="571.172"/>
      <point x="596" y="687"/>
      <point x="411" y="687" type="curve" smooth="yes"/>
      <point x="227" y="687"/>
      <point x="44" y="572.17"/>
      <point x="44" y="356.49" type="curve" smooth="yes"/>
      <point x="44" y="136.815"/>
      <point x="233" y="12"/>
    </contour>
    <contour>
      <point x="411" y="71" type="curve" smooth="yes"/>
      <point x="243" y="71"/>
      <point x="104" y="194.221"/>
      <point x="104" y="357.514" type="curve" smooth="yes"/>
      <point x="104" y="512.793"/>
      <point x="231" y="628"/>
      <point x="408" y="628" type="curve" smooth="yes"/>
      <point x="585" y="628"/>
      <point x="713" y="513.795"/>
      <point x="713" y="353.507" type="curve" smooth="yes"/>
      <point x="713" y="185.205"/>
      <point x="573" y="71"/>
    </contour>
    <contour>
      <point x="406.883" y="156.578" type="curve" smooth="yes" name="dv01"/>
      <point x="475.859" y="156.578"/>
      <point x="529.748" y="183.162"/>
      <point x="559.206" y="221.243" type="curve"/>
      <point x="521.125" y="259.324" type="line"/>
      <point x="495.259" y="225.814"/>
      <point x="451.43" y="206.873"/>
      <point x="406.883" y="206.873" type="curve" smooth="yes" name="dv02"/>
      <point x="337.187" y="206.873"/>
      <point x="302.699" y="255.977"/>
      <point x="302.699" y="354.186" type="curve" smooth="yes"/>
      <point x="302.699" y="449.505"/>
      <point x="336.469" y="494.277"/>
      <point x="408.32" y="494.277" type="curve" smooth="yes" name="sv01"/>
      <point x="450.712" y="494.277"/>
      <point x="490.948" y="475.336"/>
      <point x="516.814" y="441.826" type="curve"/>
      <point x="554.895" y="479.907" type="line"/>
      <point x="525.437" y="517.988"/>
      <point x="473.704" y="544.572"/>
      <point x="406.164" y="544.572" type="curve" smooth="yes" name="at01"/>
      <point x="298.388" y="544.572"/>
      <point x="238.033" y="473.44"/>
      <point x="238.033" y="354.168" type="curve" smooth="yes"/>
      <point x="238.033" y="227.71"/>
      <point x="299.825" y="156.578"/>
    </contour>
  </outline>
</glyph>
<glyph name="ordfeminine" format="2">
  <advance width="549"/>
  <unicode hex="00AA"/>
  <outline>
    <contour>
      <point x="245" y="320" type="curve" smooth="yes"/>
      <point x="345" y="320"/>
      <point x="408" y="398"/>
      <point x="408" y="520" type="curve" smooth="yes"/>
      <point x="408" y="642"/>
      <point x="345" y="720"/>
      <point x="244" y="720" type="curve" smooth="yes"/>
      <point x="144" y="720"/>
      <point x="83" y="643"/>
      <point x="83" y="521" type="curve" smooth="yes"/>
      <point x="83" y="399"/>
      <point x="145" y="320"/>
    </contour>
    <contour>
      <point x="276" y="390" type="curve" smooth="yes"/>
      <point x="205" y="390"/>
      <point x="166" y="437"/>
      <point x="166" y="524" type="curve" smooth="yes"/>
      <point x="166" y="609"/>
      <point x="203" y="655"/>
      <point x="276" y="655" type="curve" smooth="yes"/>
      <point x="347" y="655"/>
      <point x="389" y="612"/>
      <point x="389" y="525" type="curve" smooth="yes"/>
      <point x="389" y="442"/>
      <point x="350" y="390"/>
    </contour>
    <contour>
      <point x="389" y="335" type="line"/>
      <point x="471" y="335" type="line"/>
      <point x="471" y="702" type="line"/>
      <point x="389" y="702" type="line"/>
    </contour>
  </outline>
</glyph>
<glyph name="registered" format="2">
  <advance width="817"/>
  <unicode hex="00AE"/>
  <outline>
    <contour>
      <point x="411" y="12" type="curve" smooth="yes"/>
      <point x="589" y="12"/>
      <point x="773" y="137.814"/>
      <point x="773" y="356.49" type="curve" smooth="yes"/>
      <point x="773" y="571.172"/>
      <point x="596" y="687"/>
      <point x="411" y="687" type="curve" smooth="yes"/>
      <point x="227" y="687"/>
      <point x="44" y="572.17"/>
      <point x="44" y="356.49" type="curve" smooth="yes"/>
      <point x="44" y="136.815"/>
      <point x="233" y="12"/>
    </contour>
    <contour>
      <point x="411" y="71" type="curve" smooth="yes"/>
      <point x="243" y="71"/>
      <point x="104" y="194.221"/>
      <point x="104" y="357.514" type="curve" smooth="yes"/>
      <point x="104" y="512.793"/>
      <point x="231" y="628"/>
      <point x="408" y="628" type="curve" smooth="yes"/>
      <point x="585" y="628"/>
      <point x="713" y="513.795"/>
      <point x="713" y="353.507" type="curve" smooth="yes"/>
      <point x="713" y="185.205"/>
      <point x="573" y="71"/>
    </contour>
    <contour>
      <point x="519.6" y="150" type="line" name="ab02"/>
      <point x="580.2" y="150" type="line"/>
      <point x="478.2" y="336.48" type="line"/>
      <point x="433.8" y="307.36" type="line"/>
    </contour>
    <contour>
      <point x="278.8" y="150" type="line"/>
      <point x="342.8" y="150" type="line" name="ab01"/>
      <point x="342.8" y="487.2" type="line" name="sv01"/>
      <point x="420.449" y="487.2" type="line" smooth="yes"/>
      <point x="482.426" y="487.2"/>
      <point x="505.4" y="469.161"/>
      <point x="505.4" y="419.92" type="curve" smooth="yes"/>
      <point x="505.4" y="370.679"/>
      <point x="480.725" y="352.64"/>
      <point x="413.585" y="352.64" type="curve" smooth="yes"/>
      <point x="286" y="352.64" type="line" name="dv02"/>
      <point x="286" y="297.84" type="line" name="dv01"/>
      <point x="422.4" y="297.84" type="line" smooth="yes"/>
      <point x="513" y="297.84"/>
      <point x="569.4" y="344.88"/>
      <point x="569.4" y="421.04" type="curve" smooth="yes"/>
      <point x="569.4" y="496.64"/>
      <point x="514.8" y="542"/>
      <point x="424.8" y="542" type="curve" smooth="yes" name="at01"/>
      <point x="278.8" y="542" type="line"/>
    </contour>
  </outline>
</glyph>
<glyph name="degree" format="2">
  <advance width="483"/>
  <unicode hex="00B0"/>
  <outline>
    <contour>
      <point x="247" y="390" type="curve" smooth="yes"/>
      <point x="349" y="390"/>
      <point x="418" y="458"/>
      <point x="418" y="556" type="curve" smooth="yes"/>
      <point x="418" y="654"/>
      <point x="350" y="719"/>
      <point x="248" y="719" type="curve" smooth="yes"/>
      <point x="143" y="719"/>
      <point x="67" y="651"/>
      <point x="67" y="556" type="curve" smooth="yes"/>
      <point x="67" y="460"/>
      <point x="144" y="390"/>
    </contour>
    <contour>
      <point x="243" y="441" type="curve" smooth="yes"/>
      <point x="180" y="441"/>
      <point x="144" y="481"/>
      <point x="144" y="554" type="curve" smooth="yes"/>
      <point x="144" y="628"/>
      <point x="181" y="668"/>
      <point x="244" y="668" type="curve" smooth="yes"/>
      <point x="308" y="668"/>
      <point x="342" y="627"/>
      <point x="342" y="554" type="curve" smooth="yes"/>
      <point x="342" y="474"/>
      <point x="301" y="441"/>
    </contour>
  </outline>
</glyph>
<glyph name="uni00B2" format="2">
  <advance width="432"/>
  <unicode hex="00B2"/>
  <outline>
    <contour>
      <point x="38" y="458" type="curve"/>
      <point x="38" y="393" type="line"/>
      <point x="300" y="455.036"/>
      <point x="388" y="546.695"/>
      <point x="388" y="669.271" type="curve" smooth="yes"/>
      <point x="388" y="774.492"/>
      <point x="324" y="835"/>
      <point x="217" y="835" type="curve" smooth="yes"/>
      <point x="140" y="835"/>
      <point x="81" y="801"/>
      <point x="41" y="752" type="curve"/>
      <point x="89" y="704" type="line"/>
      <point x="130" y="751"/>
      <point x="179" y="770"/>
      <point x="222" y="770" type="curve" smooth="yes"/>
      <point x="282" y="770"/>
      <point x="314" y="727.403"/>
      <point x="314" y="669.113" type="curve" smooth="yes"/>
      <point x="314" y="569.347"/>
      <point x="223" y="492"/>
    </contour>
    <contour>
      <point x="38" y="345" type="line"/>
      <point x="388" y="345" type="line"/>
      <point x="388" y="410" type="line"/>
      <point x="38" y="410" type="line"/>
    </contour>
  </outline>
</glyph>
<glyph name="uni00B3" format="2">
  <advance width="422"/>
  <unicode hex="00B3"/>
  <outline>
    <contour>
      <point x="211" y="337" type="curve" smooth="yes"/>
      <point x="304" y="337"/>
      <point x="364" y="382"/>
      <point x="364" y="467" type="curve" smooth="yes"/>
      <point x="364" y="543"/>
      <point x="315" y="604"/>
      <point x="152" y="604" type="curve"/>
      <point x="152" y="563" type="line"/>
      <point x="240" y="563"/>
      <point x="290" y="516"/>
      <point x="290" y="469" type="curve" smooth="yes"/>
      <point x="290" y="429"/>
      <point x="254" y="402"/>
      <point x="201" y="402" type="curve" smooth="yes"/>
      <point x="161" y="402"/>
      <point x="125" y="418"/>
      <point x="87" y="455" type="curve"/>
      <point x="39" y="407" type="line"/>
      <point x="83" y="362"/>
      <point x="142" y="337"/>
    </contour>
    <contour>
      <point x="152" y="620" type="curve"/>
      <point x="152" y="578" type="line"/>
      <point x="293" y="578"/>
      <point x="348" y="639"/>
      <point x="348" y="712" type="curve" smooth="yes"/>
      <point x="348" y="784"/>
      <point x="293" y="835"/>
      <point x="206" y="835" type="curve" smooth="yes"/>
      <point x="146" y="835"/>
      <point x="86" y="811"/>
      <point x="58" y="779" type="curve"/>
      <point x="107" y="730" type="line"/>
      <point x="130" y="755"/>
      <point x="164" y="770"/>
      <point x="196" y="770" type="curve" smooth="yes"/>
      <point x="240" y="770"/>
      <point x="274" y="742"/>
      <point x="274" y="708" type="curve" smooth="yes"/>
      <point x="274" y="672"/>
      <point x="238" y="620"/>
    </contour>
  </outline>
</glyph>
<glyph name="ordmasculine" format="2">
  <advance width="516"/>
  <unicode hex="00BA"/>
  <outline>
    <contour>
      <point x="259" y="317" type="curve" smooth="yes"/>
      <point x="373" y="317"/>
      <point x="435" y="393"/>
      <point x="435" y="523" type="curve" smooth="yes"/>
      <point x="435" y="631"/>
      <point x="372" y="720"/>
      <point x="259" y="720" type="curve" smooth="yes"/>
      <point x="145" y="720"/>
      <point x="82" y="631"/>
      <point x="82" y="523" type="curve" smooth="yes"/>
      <point x="82" y="393"/>
      <point x="146" y="317"/>
    </contour>
    <contour>
      <point x="256" y="377" type="curve" smooth="yes"/>
      <point x="201" y="377"/>
      <point x="155" y="417"/>
      <point x="155" y="527" type="curve" smooth="yes"/>
      <point x="155" y="619"/>
      <point x="202" y="660"/>
      <point x="257" y="660" type="curve" smooth="yes"/>
      <point x="315" y="660"/>
      <point x="362" y="628"/>
      <point x="362" y="524" type="curve" smooth="yes"/>
      <point x="362" y="419"/>
      <point x="314" y="377"/>
    </contour>
  </outline>
</glyph>
<glyph name="AE" format="2">
  <advance width="880"/>
  <unicode hex="00C6"/>
  <anchor x="480" y="-20" name="bottom"/>
  <anchor x="480" y="719" name="top"/>
  <outline>
    <contour>
      <point x="414" y="700" type="line"/>
      <point x="414" y="0" type="line"/>
      <point x="815" y="0" type="line" name="ab01"/>
      <point x="815" y="80" type="line" name="sv01"/>
      <point x="504" y="80" type="line"/>
      <point x="504" y="325" type="line" name="dv01"/>
      <point x="775" y="325" type="line"/>
      <point x="775" y="405" type="line"/>
      <point x="504" y="405" type="line" name="dv02"/>
      <point x="504" y="620" type="line" name="sv02"/>
      <point x="801" y="620" type="line"/>
      <point x="801" y="700" type="line" name="at01"/>
    </contour>
    <contour>
      <point x="304" y="700" type="line"/>
      <point x="270" y="620" type="line"/>
      <point x="489" y="620" type="line"/>
      <point x="490" y="700" type="line"/>
    </contour>
    <contour>
      <point x="172" y="221" type="line" name="dv02"/>
      <point x="138" y="141" type="line" name="dv01"/>
      <point x="491" y="141" type="line"/>
      <point x="457" y="221" type="line" name="dv03"/>
    </contour>
    <contour>
      <point x="259" y="700" type="line"/>
      <point x="32" y="0" type="line"/>
      <point x="128" y="0" type="line"/>
      <point x="339" y="700" type="line"/>
    </contour>
  </outline>
</glyph>
<glyph name="Ccedilla" format="2">
  <advance width="684"/>
  <unicode hex="00C7"/>
  <anchor x="381" y="-218" name="bottom"/>
  <anchor x="381" y="719" name="top"/>
  <outline>
    <contour>
      <point x="637" y="102" type="curve"/>
      <point x="579" y="160" type="line"/>
      <point x="527.477" y="93"/>
      <point x="460.101" y="60"/>
      <point x="385.789" y="60" type="curve" smooth="yes" name="dv02"/>
      <point x="243.11" y="60"/>
      <point x="147" y="182"/>
      <point x="147" y="366" type="curve" smooth="yes"/>
      <point x="147" y="542"/>
      <point x="234.193" y="640"/>
      <point x="373.899" y="640" type="curve" smooth="yes" name="dv03"/>
      <point x="453.165" y="640"/>
      <point x="517.569" y="609"/>
      <point x="579" y="541" type="curve"/>
      <point x="637" y="599" type="line"/>
      <point x="572" y="681"/>
      <point x="487" y="720"/>
      <point x="378" y="720" type="curve" smooth="yes" name="dv04"/>
      <point x="172" y="720"/>
      <point x="53" y="581"/>
      <point x="53" y="365" type="curve" smooth="yes"/>
      <point x="53" y="135"/>
      <point x="187" y="-20"/>
      <point x="385" y="-20" type="curve" smooth="yes" name="dv01"/>
      <point x="483" y="-20"/>
      <point x="563" y="18"/>
    </contour>
    <contour>
      <point x="304" y="-171" type="curve"/>
      <point x="285" y="-205" type="line"/>
      <point x="306" y="-211"/>
      <point x="330" y="-218"/>
      <point x="369" y="-218" type="curve" smooth="yes"/>
      <point x="449" y="-218"/>
      <point x="495" y="-189"/>
      <point x="495" y="-137" type="curve" smooth="yes"/>
      <point x="495" y="-90"/>
      <point x="458" y="-64"/>
      <point x="399" y="-64" type="curve"/>
      <point x="443.74" y="14.895" type="line"/>
      <point x="386.74" y="14.895" type="line"/>
      <point x="332" y="-86" type="line"/>
      <point x="347" y="-84"/>
      <point x="358" y="-82"/>
      <point x="371" y="-82" type="curve" smooth="yes"/>
      <point x="406" y="-82"/>
      <point x="427" y="-97"/>
      <point x="427" y="-132" type="curve" smooth="yes"/>
      <point x="427" y="-166"/>
      <point x="408" y="-182"/>
      <point x="366" y="-182" type="curve" smooth="yes"/>
      <point x="343" y="-182"/>
      <point x="321" y="-177"/>
    </contour>
  </outline>
</glyph>
<glyph name="Oslash" format="2">
  <advance width="795"/>
  <unicode hex="00D8"/>
  <anchor x="398" y="-20" name="bottom"/>
  <anchor x="524" y="-1" name="ogonek"/>
  <anchor x="398" y="719" name="top"/>
  <outline>
    <contour>
      <point x="397" y="-20" type="curve" smooth="yes" name="dv01"/>
      <point x="593" y="-20"/>
      <point x="732" y="107"/>
      <point x="732" y="350" type="curve" smooth="yes" name="dv06"/>
      <point x="732" y="575"/>
      <point x="606" y="720"/>
      <point x="398" y="720" type="curve" smooth="yes" name="dv04"/>
      <point x="198" y="720"/>
      <point x="63" y="586"/>
      <point x="63" y="350" type="curve" smooth="yes"/>
      <point x="63" y="109"/>
      <point x="202" y="-20"/>
    </contour>
    <contour>
      <point x="151.728" y="-67" type="line"/>
      <point x="221.155" y="-67" type="line"/>
      <point x="642.184" y="767.75" type="line"/>
      <point x="572.758" y="767.75" type="line"/>
    </contour>
    <contour>
      <point x="399.969" y="60" type="curve" smooth="yes" name="dv02"/>
      <point x="243.916" y="60"/>
      <point x="157" y="158.541"/>
      <point x="157" y="349.512" type="curve" smooth="yes"/>
      <point x="157" y="531.827"/>
      <point x="243.916" y="640"/>
      <point x="394.043" y="640" type="curve" smooth="yes" name="dv03"/>
      <point x="556.023" y="640"/>
      <point x="638" y="543.671"/>
      <point x="638" y="350.003" type="curve" smooth="yes" name="dv05"/>
      <point x="638" y="170.384"/>
      <point x="549.109" y="60"/>
    </contour>
  </outline>
</glyph>
<glyph name="Thorn" format="2">
  <advance width="617"/>
  <unicode hex="00DE"/>
  <outline>
    <contour>
      <point x="305" y="253" type="curve" smooth="yes"/>
      <point x="140" y="253" type="line"/>
      <point x="140" y="173" type="line"/>
      <point x="315" y="173" type="line" smooth="yes"/>
      <point x="475" y="173"/>
      <point x="558" y="227"/>
      <point x="558" y="363" type="curve" smooth="yes"/>
      <point x="558" y="497"/>
      <point x="477" y="548"/>
      <point x="315" y="548" type="curve" smooth="yes"/>
      <point x="128" y="548" type="line"/>
      <point x="128" y="468" type="line"/>
      <point x="305" y="468" type="line" smooth="yes"/>
      <point x="427" y="468"/>
      <point x="468" y="442"/>
      <point x="468" y="365" type="curve" smooth="yes"/>
      <point x="468" y="283"/>
      <point x="421" y="253"/>
    </contour>
    <contour>
      <point x="88" y="700" type="line"/>
      <point x="88" y="0" type="line"/>
      <point x="178" y="0" type="line"/>
      <point x="178" y="700" type="line"/>
    </contour>
  </outline>
</glyph>
<glyph name="germandbls" format="2">
  <advance width="725"/>
  <unicode hex="00DF"/>
  <outline>
    <contour>
      <point x="460" y="-20" type="curve" smooth="yes"/>
      <point x="578" y="-20"/>
      <point x="657" y="50"/>
      <point x="657" y="143" type="curve" smooth="yes"/>
      <point x="657" y="298"/>
      <point x="456.5" y="297"/>
      <point x="456.5" y="383" type="curve" smooth="yes"/>
      <point x="456.5" y="445"/>
      <point x="552.5" y="472"/>
      <point x="552.5" y="584" type="curve" smooth="yes"/>
      <point x="552.5" y="687"/>
      <point x="454.706" y="749"/>
      <point x="322.941" y="749" type="curve" smooth="yes"/>
      <point x="183.971" y="749"/>
      <point x="80" y="680"/>
      <point x="80" y="545" type="curve" smooth="yes"/>
      <point x="80" y="0" type="line"/>
      <point x="170" y="0" type="line"/>
      <point x="170" y="535" type="line" smooth="yes"/>
      <point x="170" y="627"/>
      <point x="226.817" y="679"/>
      <point x="329.928" y="679" type="curve" smooth="yes"/>
      <point x="396.214" y="679"/>
      <point x="462.5" y="658.908"/>
      <point x="462.5" y="592.893" type="curve" smooth="yes"/>
      <point x="462.5" y="503.915"/>
      <point x="366.5" y="465.645"/>
      <point x="366.5" y="377.505" type="curve" smooth="yes"/>
      <point x="366.5" y="254.309"/>
      <point x="567" y="247.468"/>
      <point x="567" y="133.198" type="curve" smooth="yes"/>
      <point x="567" y="70.01"/>
      <point x="510.469" y="50"/>
      <point x="458.897" y="50" type="curve" smooth="yes"/>
      <point x="400.383" y="50"/>
      <point x="361.704" y="74.296"/>
      <point x="326" y="132" type="curve"/>
      <point x="268" y="74" type="line"/>
      <point x="311" y="11"/>
      <point x="382" y="-20"/>
    </contour>
  </outline>
</glyph>
<glyph name="ae" format="2">
  <advance width="935"/>
  <unicode hex="00E6"/>
  <anchor x="470" y="0" name="bottom"/>
  <anchor x="470" y="520" name="top"/>
  <outline>
    <contour>
      <point x="675.527" y="-20" type="curve" smooth="yes" name="dv01"/>
      <point x="766.184" y="-20"/>
      <point x="834.893" y="17"/>
      <point x="875" y="70" type="curve"/>
      <point x="822" y="123" type="line"/>
      <point x="786.674" y="76.361"/>
      <point x="735.64" y="50"/>
      <point x="675.156" y="50" type="curve" smooth="yes" name="dv02"/>
      <point x="571.198" y="50"/>
      <point x="523" y="128.419"/>
      <point x="523" y="237" type="curve" name="sv04"/>
      <point x="899" y="237" type="line" name="dv03"/>
      <point x="899" y="421"/>
      <point x="817.52" y="520"/>
      <point x="671.814" y="520" type="curve" smooth="yes" name="at01"/>
      <point x="530.901" y="520"/>
      <point x="436" y="427"/>
      <point x="436" y="251" type="curve" smooth="yes" name="sv03"/>
      <point x="436" y="72"/>
      <point x="533.338" y="-20"/>
    </contour>
    <contour>
      <point x="259" y="-20" type="curve" smooth="yes" name="dv01"/>
      <point x="386" y="-20"/>
      <point x="455" y="78"/>
      <point x="455" y="248" type="curve" smooth="yes"/>
      <point x="455" y="422"/>
      <point x="383" y="520"/>
      <point x="250" y="520" type="curve" smooth="yes" name="at01"/>
      <point x="110" y="520"/>
      <point x="31" y="411"/>
      <point x="31" y="259" type="curve" smooth="yes"/>
      <point x="31" y="99"/>
      <point x="119" y="-20"/>
    </contour>
    <contour>
      <point x="272" y="50" type="curve" smooth="yes" name="dv02"/>
      <point x="180" y="50"/>
      <point x="121" y="131.203"/>
      <point x="121" y="256.516" type="curve" smooth="yes"/>
      <point x="121" y="377.82"/>
      <point x="177" y="450"/>
      <point x="269" y="450" type="curve" smooth="yes" name="sv01"/>
      <point x="366" y="450"/>
      <point x="433" y="369.799"/>
      <point x="433" y="253.509" type="curve" smooth="yes"/>
      <point x="433" y="139.223"/>
      <point x="368" y="50"/>
    </contour>
    <contour>
      <point x="433" y="0" type="line" name="ab01"/>
      <point x="523" y="0" type="line"/>
      <point x="523" y="500" type="line" name="av01"/>
      <point x="433" y="500" type="line"/>
    </contour>
    <contour>
      <point x="806" y="296" type="curve" name="dv04"/>
      <point x="524" y="296" type="line" name="sv02"/>
      <point x="533.638" y="398.329"/>
      <point x="589.948" y="450"/>
      <point x="668.208" y="450" type="curve" smooth="yes" name="sv01"/>
      <point x="746.469" y="450"/>
      <point x="796.098" y="398.329"/>
    </contour>
  </outline>
</glyph>
<glyph name="ccedilla" format="2">
  <advance width="564"/>
  <unicode hex="00E7"/>
  <anchor x="284" y="-218" name="bottom"/>
  <anchor x="304" y="520" name="top"/>
  <outline>
    <contour>
      <point x="295" y="-20" type="curve" smooth="yes" name="dv01"/>
      <point x="391" y="-20"/>
      <point x="466" y="17"/>
      <point x="507" y="70" type="curve"/>
      <point x="454" y="123" type="line"/>
      <point x="418" y="76.361"/>
      <point x="357" y="50"/>
      <point x="295" y="50" type="curve" smooth="yes" name="dv02"/>
      <point x="198" y="50"/>
      <point x="150" y="118.342"/>
      <point x="150" y="255.025" type="curve" smooth="yes"/>
      <point x="150" y="387.688"/>
      <point x="197" y="450"/>
      <point x="297" y="450" type="curve" smooth="yes" name="sv01"/>
      <point x="356" y="450"/>
      <point x="412" y="423.639"/>
      <point x="448" y="377" type="curve"/>
      <point x="501" y="430" type="line"/>
      <point x="460" y="483"/>
      <point x="388" y="520"/>
      <point x="294" y="520" type="curve" smooth="yes" name="at01"/>
      <point x="144" y="520"/>
      <point x="60" y="421"/>
      <point x="60" y="255" type="curve" smooth="yes"/>
      <point x="60" y="79"/>
      <point x="146" y="-20"/>
    </contour>
    <contour>
      <point x="272" y="-218" type="curve" smooth="yes"/>
      <point x="352" y="-218"/>
      <point x="398" y="-189"/>
      <point x="398" y="-137" type="curve" smooth="yes"/>
      <point x="398" y="-90"/>
      <point x="361" y="-64"/>
      <point x="302" y="-64" type="curve"/>
      <point x="346.74" y="14.895" type="line"/>
      <point x="289.74" y="14.895" type="line"/>
      <point x="235" y="-86" type="line"/>
      <point x="250" y="-84"/>
      <point x="261" y="-82"/>
      <point x="274" y="-82" type="curve" smooth="yes"/>
      <point x="309" y="-82"/>
      <point x="330" y="-97"/>
      <point x="330" y="-132" type="curve" smooth="yes"/>
      <point x="330" y="-166"/>
      <point x="311" y="-182"/>
      <point x="269" y="-182" type="curve" smooth="yes"/>
      <point x="246" y="-182"/>
      <point x="224" y="-177"/>
      <point x="207" y="-171" type="curve"/>
      <point x="188" y="-205" type="line"/>
      <point x="209" y="-211"/>
      <point x="233" y="-218"/>
    </contour>
  </outline>
</glyph>
<glyph name="eth" format="2">
  <advance width="578"/>
  <unicode hex="00F0"/>
  <outline>
    <contour>
      <point x="285" y="-20" type="curve" smooth="yes"/>
      <point x="427.482" y="-20"/>
      <point x="528" y="87.402"/>
      <point x="528" y="270.304" type="curve" smooth="yes"/>
      <point x="528" y="509.859"/>
      <point x="330.141" y="651.06"/>
      <point x="150" y="743" type="curve"/>
      <point x="119" y="687" type="line"/>
      <point x="210.463" y="643.097"/>
      <point x="426.037" y="505.35"/>
      <point x="450.906" y="365.83" type="curve"/>
      <point x="433.821" y="410.694"/>
      <point x="365.973" y="471"/>
      <point x="271.225" y="471" type="curve" smooth="yes"/>
      <point x="147.871" y="471"/>
      <point x="42" y="377"/>
      <point x="42" y="229" type="curve" smooth="yes"/>
      <point x="42" y="85"/>
      <point x="139.59" y="-20"/>
    </contour>
    <contour>
      <point x="282.113" y="51" type="curve" smooth="yes"/>
      <point x="192.623" y="51"/>
      <point x="132" y="115"/>
      <point x="132" y="225" type="curve" smooth="yes"/>
      <point x="132" y="333"/>
      <point x="189.736" y="401"/>
      <point x="285.962" y="401" type="curve" smooth="yes"/>
      <point x="375.453" y="401"/>
      <point x="438" y="341"/>
      <point x="438" y="232" type="curve" smooth="yes"/>
      <point x="438" y="126"/>
      <point x="378.34" y="51"/>
    </contour>
    <contour>
      <point x="134" y="519" type="line"/>
      <point x="311.994" y="591.997" type="line"/>
      <point x="466" y="654" type="line"/>
      <point x="450" y="690" type="line"/>
      <point x="279.067" y="613.024" type="line"/>
      <point x="118" y="552" type="line"/>
    </contour>
  </outline>
</glyph>
<glyph name="thorn" format="2">
  <advance width="635"/>
  <unicode hex="00FE"/>
  <outline>
    <contour>
      <point x="93" y="-200" type="line" name="av01"/>
      <point x="183" y="-200" type="line"/>
      <point x="183.01" y="117.12" type="line"/>
      <point x="211.59" y="36.31"/>
      <point x="267.41" y="-20"/>
      <point x="347" y="-20" type="curve" smooth="yes" name="dv01"/>
      <point x="489" y="-20"/>
      <point x="575" y="99"/>
      <point x="575" y="255" type="curve" smooth="yes"/>
      <point x="575" y="411"/>
      <point x="498" y="520"/>
      <point x="353" y="520" type="curve" smooth="yes" name="at01"/>
      <point x="270.58" y="520"/>
      <point x="212.43" y="467.03"/>
      <point x="183.01" y="387.86" type="curve"/>
      <point x="183.01" y="751" type="line"/>
      <point x="93.36" y="751" type="line"/>
    </contour>
    <contour>
      <point x="338" y="50" type="curve" smooth="yes" name="dv02"/>
      <point x="246.31" y="50"/>
      <point x="183.01" y="140.619"/>
      <point x="183.01" y="255.36" type="curve" smooth="yes"/>
      <point x="183.01" y="368.041"/>
      <point x="248.3" y="450"/>
      <point x="339" y="450" type="curve" smooth="yes" name="sv01"/>
      <point x="431" y="450"/>
      <point x="485" y="378.82"/>
      <point x="485" y="255.51" type="curve" smooth="yes"/>
      <point x="485" y="130.19"/>
      <point x="428" y="50"/>
    </contour>
  </outline>
</glyph>
<glyph name="aogonek" format="2">
  <advance width="596"/>
  <unicode hex="0105"/>
  <anchor x="284" y="-20" name="bottom"/>
  <anchor x="283" y="520" name="top"/>
  <outline>
    <contour>
      <point x="423" y="500" type="line"/>
      <point x="423" y="0" type="line" name="ab01"/>
      <point x="513" y="0" type="line"/>
      <point x="513" y="500" type="line" name="av01"/>
    </contour>
    <contour>
      <point x="253.623" y="-20" type="curve" smooth="yes" name="dv01"/>
      <point x="377.627" y="-20"/>
      <point x="445" y="78"/>
      <point x="445" y="248" type="curve" smooth="yes"/>
      <point x="445" y="422"/>
      <point x="374.698" y="520"/>
      <point x="244.835" y="520" type="curve" smooth="yes" name="at01"/>
      <point x="108.137" y="520"/>
      <point x="31" y="406"/>
      <point x="31" y="254" type="curve" smooth="yes"/>
      <point x="31" y="94"/>
      <point x="116.925" y="-20"/>
    </contour>
    <contour>
      <point x="267.16" y="50" type="curve" smooth="yes" name="dv02"/>
      <point x="178.109" y="50"/>
      <point x="121" y="131.203"/>
      <point x="121" y="256.516" type="curve" smooth="yes"/>
      <point x="121" y="377.82"/>
      <point x="175.205" y="450"/>
      <point x="264.256" y="450" type="curve" smooth="yes" name="sv01"/>
      <point x="358.147" y="450"/>
      <point x="423" y="369.799"/>
      <point x="423" y="253.509" type="curve" smooth="yes"/>
      <point x="423" y="139.223"/>
      <point x="360.083" y="50"/>
    </contour>
    <contour>
      <point x="469" y="-206" type="curve"/>
      <point x="511" y="-183" type="line"/>
      <point x="467" y="-171"/>
      <point x="444" y="-143"/>
      <point x="444" y="-103" type="curve" smooth="yes"/>
      <point x="444" y="-62"/>
      <point x="469" y="-22"/>
      <point x="510" y="0" type="curve"/>
      <point x="489" y="3" type="line"/>
      <point x="416" y="-12"/>
      <point x="369" y="-59"/>
      <point x="369" y="-110" type="curve" smooth="yes"/>
      <point x="369" y="-157"/>
      <point x="409" y="-196"/>
    </contour>
  </outline>
</glyph>
<glyph name="dcroat" format="2">
  <advance width="635"/>
  <unicode hex="0111"/>
  <outline>
    <contour>
      <point x="288" y="-20" type="curve" smooth="yes" name="dv01"/>
      <point x="408" y="-20"/>
      <point x="474" y="74.37"/>
      <point x="474" y="244.815" type="curve" smooth="yes"/>
      <point x="474" y="405.63"/>
      <point x="405" y="500"/>
      <point x="282" y="500" type="curve" smooth="yes" name="at01"/>
      <point x="137" y="500"/>
      <point x="60" y="395.037"/>
      <point x="60" y="244.815" type="curve" smooth="yes"/>
      <point x="60" y="94.593"/>
      <point x="146" y="-20"/>
    </contour>
    <contour>
      <point x="296.513" y="50" type="curve" smooth="yes" name="dv02"/>
      <point x="206.811" y="50"/>
      <point x="150" y="126.19"/>
      <point x="150" y="245.238" type="curve" smooth="yes"/>
      <point x="150" y="362.381"/>
      <point x="200.831" y="430"/>
      <point x="295.517" y="430" type="curve" smooth="yes" name="sv01"/>
      <point x="386.215" y="430"/>
      <point x="451" y="353.81"/>
      <point x="451" y="246.19" type="curve" smooth="yes"/>
      <point x="451" y="136.667"/>
      <point x="388.209" y="50"/>
    </contour>
    <contour>
      <point x="452" y="0" type="line" name="ab02"/>
      <point x="542" y="0" type="line"/>
      <point x="542" y="750" type="line" name="ab01"/>
      <point x="452" y="750" type="line"/>
    </contour>
    <contour>
      <point x="216.455" y="631" type="line"/>
      <point x="627.447" y="631" type="line"/>
      <point x="627.447" y="665" type="line"/>
      <point x="216.455" y="665" type="line"/>
    </contour>
  </outline>
</glyph>
<glyph name="eogonek" format="2">
  <advance width="550"/>
  <unicode hex="0119"/>
  <anchor x="271" y="-20" name="bottom"/>
  <anchor x="271" y="520" name="top"/>
  <outline>
    <contour>
      <point x="280.522" y="-20" type="curve" smooth="yes" name="dv01"/>
      <point x="368.907" y="-20"/>
      <point x="435.893" y="17"/>
      <point x="476" y="70" type="curve"/>
      <point x="423" y="123" type="line"/>
      <point x="388.029" y="76.361"/>
      <point x="339.442" y="50"/>
      <point x="281.859" y="50" type="curve" smooth="yes" name="dv02"/>
      <point x="182.887" y="50"/>
      <point x="137" y="128.419"/>
      <point x="137" y="237" type="curve" name="sv04"/>
      <point x="500" y="237" type="line" name="dv03"/>
      <point x="511.739" y="421"/>
      <point x="425.76" y="520"/>
      <point x="276.907" y="520" type="curve" smooth="yes" name="at01"/>
      <point x="132.95" y="520"/>
      <point x="47" y="427"/>
      <point x="47" y="251" type="curve" smooth="yes" name="sv03"/>
      <point x="47" y="72"/>
      <point x="141.897" y="-20"/>
    </contour>
    <contour>
      <point x="344" y="-206" type="curve"/>
      <point x="386" y="-183" type="line"/>
      <point x="342" y="-171"/>
      <point x="319" y="-143"/>
      <point x="319" y="-103" type="curve" smooth="yes"/>
      <point x="319" y="-62"/>
      <point x="344" y="-22"/>
      <point x="385" y="0" type="curve"/>
      <point x="364" y="3" type="line"/>
      <point x="291" y="-12"/>
      <point x="244" y="-59"/>
      <point x="244" y="-110" type="curve" smooth="yes"/>
      <point x="244" y="-157"/>
      <point x="284" y="-196"/>
    </contour>
    <contour>
      <point x="407" y="296" type="curve" name="dv04"/>
      <point x="141" y="296" type="line" name="sv02"/>
      <point x="150.276" y="398.329"/>
      <point x="203.277" y="450"/>
      <point x="276.94" y="450" type="curve" smooth="yes" name="sv01"/>
      <point x="350.603" y="450"/>
      <point x="397.316" y="398.329"/>
    </contour>
  </outline>
</glyph>
<glyph name="Hbar" format="2">
  <advance width="737"/>
  <unicode hex="0126"/>
  <outline>
    <contour>
      <point x="98" y="0" type="line" name="ab01"/>
      <point x="188" y="0" type="line"/>
      <point x="188" y="330" type="line" name="dv01"/>
      <point x="550" y="330" type="line"/>
      <point x="550" y="0" type="line" name="ab02"/>
      <point x="640" y="0" type="line"/>
      <point x="640" y="700" type="line" name="at01"/>
      <point x="550" y="700" type="line"/>
      <point x="550" y="410" type="line"/>
      <point x="188" y="410" type="line" name="dv02"/>
      <point x="188" y="700" type="line" name="at02"/>
      <point x="98" y="700" type="line"/>
    </contour>
    <contour>
      <point x="0.27" y="514" type="line"/>
      <point x="737.266" y="514" type="line"/>
      <point x="737.266" y="548" type="line"/>
      <point x="0.27" y="548" type="line"/>
    </contour>
  </outline>
</glyph>
<glyph name="hbar" format="2">
  <advance width="641"/>
  <unicode hex="0127"/>
  <outline>
    <contour>
      <point x="100" y="631" type="line"/>
      <point x="100" y="0" type="line" name="ab03"/>
      <point x="190" y="0" type="line"/>
      <point x="190" y="197" type="line" smooth="yes" name="iv01"/>
      <point x="190" y="337.2"/>
      <point x="246" y="430"/>
      <point x="356" y="430" type="curve" smooth="yes" name="sv01"/>
      <point x="431" y="430"/>
      <point x="457" y="387.81"/>
      <point x="457" y="274.3" type="curve" smooth="yes"/>
      <point x="457" y="0" type="line" name="ab01"/>
      <point x="547" y="0" type="line"/>
      <point x="547" y="284" type="line" smooth="yes"/>
      <point x="547" y="428"/>
      <point x="492" y="500"/>
      <point x="378" y="500" type="curve" smooth="yes" name="at01"/>
      <point x="290.24" y="500"/>
      <point x="219.68" y="443.51"/>
      <point x="190" y="352.03" type="curve"/>
      <point x="190" y="631" type="line"/>
      <point x="413.12" y="631" type="line"/>
      <point x="413.12" y="667" type="line"/>
      <point x="190" y="667" type="line"/>
      <point x="190" y="750" type="line" name="ab01"/>
      <point x="100" y="750" type="line"/>
      <point x="100" y="667" type="line"/>
      <point x="20" y="667" type="line"/>
      <point x="20" y="631" type="line"/>
    </contour>
  </outline>
</glyph>
<glyph name="iogonek" format="2">
  <advance width="272"/>
  <unicode hex="012F"/>
  <anchor x="136" y="-20" name="bottom"/>
  <anchor x="136" y="683" name="top"/>
  <outline>
    <contour>
      <point x="91" y="0" type="line"/>
      <point x="181" y="0" type="line"/>
      <point x="181" y="500" type="line"/>
      <point x="91" y="500" type="line"/>
    </contour>
    <contour>
      <point x="140" y="-206" type="curve"/>
      <point x="182" y="-183" type="line"/>
      <point x="138" y="-171"/>
      <point x="115" y="-143"/>
      <point x="115" y="-103" type="curve" smooth="yes"/>
      <point x="115" y="-62"/>
      <point x="140" y="-22"/>
      <point x="181" y="0" type="curve"/>
      <point x="160" y="3" type="line"/>
      <point x="87" y="-12"/>
      <point x="40" y="-59"/>
      <point x="40" y="-110" type="curve" smooth="yes"/>
      <point x="40" y="-157"/>
      <point x="80" y="-196"/>
    </contour>
    <contour>
      <point x="137" y="594" type="curve" smooth="yes" name="dv01"/>
      <point x="171" y="594"/>
      <point x="189" y="620"/>
      <point x="189" y="646" type="curve" smooth="yes"/>
      <point x="189" y="671"/>
      <point x="171" y="696"/>
      <point x="137" y="696" type="curve" smooth="yes" name="dv02"/>
      <point x="103" y="696"/>
      <point x="84" y="670"/>
      <point x="84" y="646" type="curve" smooth="yes"/>
      <point x="84" y="621"/>
      <point x="103" y="594"/>
    </contour>
  </outline>
</glyph>
<glyph name="kgreenlandic" format="2">
  <advance width="594"/>
  <unicode hex="0138"/>
  <outline>
    <contour>
      <point x="84" y="500" type="line"/>
      <point x="84" y="0" type="line"/>
      <point x="174" y="0" type="line"/>
      <point x="174" y="500" type="line"/>
    </contour>
    <contour>
      <point x="88" y="300" type="line"/>
      <point x="95" y="232" type="line"/>
      <point x="333" y="232" type="line" name="iv01"/>
      <point x="446" y="0" type="line" name="ab02"/>
      <point x="548" y="0" type="line"/>
      <point x="408" y="263" type="line"/>
      <point x="534" y="500" type="line" name="av02"/>
      <point x="453" y="500" type="line"/>
      <point x="351" y="300" type="line" name="iv02"/>
    </contour>
  </outline>
</glyph>
<glyph name="Lslash" format="2">
  <advance width="554"/>
  <unicode hex="0141"/>
  <outline>
    <contour>
      <point x="88" y="700" type="line"/>
      <point x="88" y="0" type="line" name="ab01"/>
      <point x="494" y="0" type="line"/>
      <point x="494" y="80" type="line" name="sv01"/>
      <point x="178" y="80" type="line"/>
      <point x="178" y="700" type="line" name="at01"/>
    </contour>
    <contour>
      <point x="0" y="280" type="line"/>
      <point x="0" y="231" type="line"/>
      <point x="350" y="469" type="line"/>
      <point x="350" y="518" type="line"/>
    </contour>
  </outline>
</glyph>
<glyph name="Eng" format="2">
  <advance width="752"/>
  <unicode hex="014A"/>
  <anchor x="378" y="-202" name="bottom"/>
  <anchor x="376" y="719" name="top"/>
  <outline>
    <contour>
      <point x="97" y="700" type="line"/>
      <point x="97" y="0" type="line"/>
      <point x="187" y="0" type="line" name="ab01"/>
      <point x="187" y="554" type="line" name="iv01"/>
      <point x="575" y="0" type="line" name="ab02"/>
      <point x="655" y="24.601" type="line"/>
      <point x="655" y="700" type="line" name="at01"/>
      <point x="565" y="700" type="line"/>
      <point x="565" y="146" type="line" name="iv02"/>
      <point x="177" y="700" type="line" name="at02"/>
    </contour>
    <contour>
      <point x="268" y="-21" type="curve"/>
      <point x="210" y="-79" type="line"/>
      <point x="274" y="-176"/>
      <point x="344" y="-221"/>
      <point x="443" y="-221" type="curve" smooth="yes" name="dv01"/>
      <point x="578" y="-221"/>
      <point x="655" y="-137"/>
      <point x="655" y="21" type="curve" smooth="yes"/>
      <point x="655" y="499" type="line" name="at01"/>
      <point x="565" y="499" type="line"/>
      <point x="565" y="14" type="line" smooth="yes"/>
      <point x="565" y="-84"/>
      <point x="520" y="-141"/>
      <point x="438" y="-141" type="curve" smooth="yes" name="dv02"/>
      <point x="372" y="-141"/>
      <point x="318" y="-104"/>
    </contour>
  </outline>
</glyph>
<glyph name="eng" format="2">
  <advance width="635"/>
  <unicode hex="014B"/>
  <outline>
    <contour>
      <point x="94" y="500" type="line"/>
      <point x="94" y="0" type="line" name="ab02"/>
      <point x="184" y="0" type="line"/>
      <point x="184" y="217" type="line" smooth="yes" name="iv01"/>
      <point x="184" y="356"/>
      <point x="240" y="448"/>
      <point x="350" y="448" type="curve" smooth="yes" name="sv01"/>
      <point x="425" y="448"/>
      <point x="451" y="406"/>
      <point x="451" y="293" type="curve" smooth="yes"/>
      <point x="451" y="-58" type="line" smooth="yes"/>
      <point x="451" y="-127"/>
      <point x="443" y="-150"/>
      <point x="399" y="-150" type="curve" smooth="yes" name="dv02"/>
      <point x="381" y="-150"/>
      <point x="349" y="-145"/>
      <point x="324" y="-136" type="curve"/>
      <point x="302" y="-198" type="line"/>
      <point x="344" y="-212"/>
      <point x="357" y="-221"/>
      <point x="414" y="-221" type="curve" smooth="yes" name="dv01"/>
      <point x="496" y="-221"/>
      <point x="541" y="-174"/>
      <point x="541" y="-68" type="curve" smooth="yes"/>
      <point x="541" y="304" type="line" smooth="yes"/>
      <point x="541" y="448"/>
      <point x="486" y="520"/>
      <point x="372" y="520" type="curve" smooth="yes" name="at01"/>
      <point x="284.24" y="520"/>
      <point x="213.68" y="463.51"/>
      <point x="184" y="372.03" type="curve"/>
      <point x="184" y="500" type="line" name="av01"/>
    </contour>
  </outline>
</glyph>
<glyph name="OE" format="2">
  <advance width="968"/>
  <unicode hex="0152"/>
  <anchor x="484" y="-20" name="bottom"/>
  <anchor x="484" y="719" name="top"/>
  <outline>
    <contour>
      <point x="902.31" y="80" type="line" name="sv01"/>
      <point x="591.3" y="80" type="line"/>
      <point x="591.3" y="325" type="line" name="dv01"/>
      <point x="862.31" y="325" type="line"/>
      <point x="862.31" y="405" type="line"/>
      <point x="591.3" y="405" type="line" name="dv02"/>
      <point x="591.3" y="620" type="line" name="sv02"/>
      <point x="888.31" y="620" type="line"/>
      <point x="888.31" y="700" type="line" name="at01"/>
      <point x="399" y="700" type="line" smooth="yes" name="at01"/>
      <point x="200" y="700"/>
      <point x="63" y="557"/>
      <point x="63" y="350" type="curve" smooth="yes"/>
      <point x="63" y="142"/>
      <point x="199" y="0"/>
      <point x="399" y="0" type="curve" smooth="yes"/>
      <point x="902.31" y="0" type="line" name="ab01"/>
    </contour>
    <contour>
      <point x="407.56" y="620" type="curve" smooth="yes"/>
      <point x="500.31" y="620" type="line" name="sv02"/>
      <point x="500.31" y="80" type="line" name="sv01"/>
      <point x="407.56" y="80" type="line" smooth="yes"/>
      <point x="251.08" y="80"/>
      <point x="157" y="181"/>
      <point x="157" y="349" type="curve" smooth="yes"/>
      <point x="157" y="518"/>
      <point x="251.08" y="620"/>
    </contour>
  </outline>
</glyph>
<glyph name="oe" format="2">
  <advance width="938"/>
  <unicode hex="0153"/>
  <anchor x="460" y="-20" name="bottom"/>
  <anchor x="460" y="520" name="top"/>
  <outline>
    <contour>
      <point x="660.64" y="-20" type="curve" smooth="yes" name="dv01"/>
      <point x="751.84" y="-20"/>
      <point x="820.96" y="17"/>
      <point x="860.32" y="70" type="curve"/>
      <point x="809.44" y="123" type="line"/>
      <point x="774.77" y="76.361"/>
      <point x="722.766" y="50"/>
      <point x="661.131" y="50" type="curve" smooth="yes" name="dv02"/>
      <point x="555.195" y="50"/>
      <point x="506.08" y="128.419"/>
      <point x="506.08" y="237" type="curve" name="sv04"/>
      <point x="883.36" y="237" type="line" name="dv03"/>
      <point x="883.36" y="421"/>
      <point x="801.76" y="520"/>
      <point x="655.84" y="520" type="curve" smooth="yes" name="at01"/>
      <point x="514.72" y="520"/>
      <point x="419.68" y="427"/>
      <point x="419.68" y="251" type="curve" smooth="yes" name="sv03"/>
      <point x="419.68" y="72"/>
      <point x="517.6" y="-20"/>
    </contour>
    <contour>
      <point x="271.9" y="-20" type="curve" smooth="yes" name="dv01"/>
      <point x="425.8" y="-20"/>
      <point x="504.65" y="79"/>
      <point x="504.65" y="255" type="curve" smooth="yes"/>
      <point x="504.65" y="421"/>
      <point x="425.8" y="520"/>
      <point x="272.85" y="520" type="curve" smooth="yes" name="at01"/>
      <point x="130.35" y="520"/>
      <point x="50.55" y="421"/>
      <point x="50.55" y="255" type="curve" smooth="yes"/>
      <point x="50.55" y="79"/>
      <point x="130.35" y="-20"/>
    </contour>
    <contour>
      <point x="273.8" y="50" type="curve" smooth="yes" name="dv02"/>
      <point x="181.65" y="50"/>
      <point x="136.05" y="118.342"/>
      <point x="136.05" y="255.025" type="curve" smooth="yes"/>
      <point x="136.05" y="387.688"/>
      <point x="180.7" y="450"/>
      <point x="275.7" y="450" type="curve" smooth="yes" name="sv01"/>
      <point x="371.65" y="450"/>
      <point x="419.15" y="383.668"/>
      <point x="419.15" y="253.015" type="curve" smooth="yes"/>
      <point x="419.15" y="115.327"/>
      <point x="372.6" y="50"/>
    </contour>
    <contour>
      <point x="794.08" y="296" type="curve" name="dv04"/>
      <point x="509.92" y="296" type="line" name="sv02"/>
      <point x="519.52" y="398.329"/>
      <point x="576.359" y="450"/>
      <point x="655.355" y="450" type="curve" smooth="yes" name="sv01"/>
      <point x="734.351" y="450"/>
      <point x="784.446" y="398.329"/>
    </contour>
  </outline>
</glyph>
<glyph name="scedilla" format="2">
  <advance width="487"/>
  <unicode hex="015F"/>
  <anchor x="223" y="-218" name="bottom"/>
  <anchor x="243" y="520" name="top"/>
  <outline>
    <contour>
      <point x="105" y="123" type="curve"/>
      <point x="52" y="70" type="line"/>
      <point x="91" y="20"/>
      <point x="158" y="-20"/>
      <point x="244" y="-20" type="curve" smooth="yes"/>
      <point x="353" y="-20"/>
      <point x="435" y="44.136"/>
      <point x="435" y="130.32" type="curve" smooth="yes"/>
      <point x="435" y="202.473"/>
      <point x="377.987" y="246.519"/>
      <point x="280" y="273.625" type="curve" smooth="yes"/>
      <point x="185.987" y="299.632"/>
      <point x="152" y="334.755"/>
      <point x="152" y="376.844" type="curve" smooth="yes"/>
      <point x="152" y="421.94"/>
      <point x="190" y="450"/>
      <point x="240" y="450" type="curve" smooth="yes"/>
      <point x="289" y="450"/>
      <point x="339" y="421.611"/>
      <point x="373" y="377" type="curve"/>
      <point x="426" y="430" type="line"/>
      <point x="387" y="480"/>
      <point x="320" y="520"/>
      <point x="236" y="520" type="curve" smooth="yes"/>
      <point x="130" y="520"/>
      <point x="62" y="455.864"/>
      <point x="62" y="373.689" type="curve" smooth="yes"/>
      <point x="62" y="298.529"/>
      <point x="117.967" y="241.281"/>
      <point x="230" y="212.345" type="curve" smooth="yes"/>
      <point x="311.968" y="191.175"/>
      <point x="345" y="160.235"/>
      <point x="345" y="120.149" type="curve" smooth="yes"/>
      <point x="345" y="77.058"/>
      <point x="307" y="50"/>
      <point x="249" y="50" type="curve" smooth="yes"/>
      <point x="189" y="50"/>
      <point x="139" y="78.389"/>
    </contour>
    <contour>
      <point x="152" y="-171" type="curve"/>
      <point x="133" y="-205" type="line"/>
      <point x="154" y="-211"/>
      <point x="178" y="-218"/>
      <point x="217" y="-218" type="curve" smooth="yes"/>
      <point x="297" y="-218"/>
      <point x="343" y="-189"/>
      <point x="343" y="-137" type="curve" smooth="yes"/>
      <point x="343" y="-90"/>
      <point x="306" y="-64"/>
      <point x="247" y="-64" type="curve"/>
      <point x="291.74" y="14.895" type="line"/>
      <point x="234.74" y="14.895" type="line"/>
      <point x="180" y="-86" type="line"/>
      <point x="195" y="-84"/>
      <point x="206" y="-82"/>
      <point x="219" y="-82" type="curve" smooth="yes"/>
      <point x="254" y="-82"/>
      <point x="275" y="-97"/>
      <point x="275" y="-132" type="curve" smooth="yes"/>
      <point x="275" y="-166"/>
      <point x="256" y="-182"/>
      <point x="214" y="-182" type="curve" smooth="yes"/>
      <point x="191" y="-182"/>
      <point x="169" y="-177"/>
    </contour>
  </outline>
</glyph>
<glyph name="uni0163" format="2">
  <advance width="395"/>
  <unicode hex="0163"/>
  <anchor x="200" y="-218" name="bottom"/>
  <anchor x="165" y="630" name="top"/>
  <anchor x="254" y="700" name="topright"/>
  <outline>
    <contour>
      <point x="245" y="-20" type="curve" smooth="yes" name="dv01"/>
      <point x="272.01" y="-20"/>
      <point x="299.02" y="-16.48"/>
      <point x="348.75" y="5.64" type="curve"/>
      <point x="330.57" y="73.3" type="line"/>
      <point x="309.42" y="61.43"/>
      <point x="278.89" y="53"/>
      <point x="254" y="53" type="curve" smooth="yes" name="dv02"/>
      <point x="220" y="53"/>
      <point x="210" y="68"/>
      <point x="210" y="141" type="curve" smooth="yes"/>
      <point x="210" y="620" type="line" name="ab01"/>
      <point x="120" y="620" type="line"/>
      <point x="120" y="132" type="line" smooth="yes"/>
      <point x="120" y="30"/>
      <point x="156" y="-20"/>
    </contour>
    <contour>
      <point x="188" y="-218" type="curve" smooth="yes"/>
      <point x="268" y="-218"/>
      <point x="314" y="-189"/>
      <point x="314" y="-137" type="curve" smooth="yes"/>
      <point x="314" y="-90"/>
      <point x="277" y="-64"/>
      <point x="218" y="-64" type="curve"/>
      <point x="262.74" y="14.895" type="line"/>
      <point x="205.74" y="14.895" type="line"/>
      <point x="151" y="-86" type="line"/>
      <point x="166" y="-84"/>
      <point x="177" y="-82"/>
      <point x="190" y="-82" type="curve" smooth="yes"/>
      <point x="225" y="-82"/>
      <point x="246" y="-97"/>
      <point x="246" y="-132" type="curve" smooth="yes"/>
      <point x="246" y="-166"/>
      <point x="227" y="-182"/>
      <point x="185" y="-182" type="curve" smooth="yes"/>
      <point x="162" y="-182"/>
      <point x="140" y="-177"/>
      <point x="123" y="-171" type="curve"/>
      <point x="104" y="-205" type="line"/>
      <point x="125" y="-211"/>
      <point x="149" y="-218"/>
    </contour>
    <contour>
      <point x="13" y="430" type="line" name="dv03"/>
      <point x="345" y="430" type="line"/>
      <point x="345" y="500" type="line"/>
      <point x="13" y="500" type="line" name="dv04"/>
    </contour>
  </outline>
</glyph>
<glyph name="Uogonek" format="2">
  <advance width="675"/>
  <unicode hex="0172"/>
  <anchor x="338" y="-20" name="bottom"/>
  <anchor x="338" y="719" name="top"/>
  <outline>
    <contour>
      <point x="170" y="264" type="curve" smooth="yes"/>
      <point x="170" y="700" type="line"/>
      <point x="80" y="700" type="line" name="at01"/>
      <point x="80" y="262" type="line" smooth="yes"/>
      <point x="80" y="88"/>
      <point x="171" y="-20"/>
      <point x="336" y="-20" type="curve" smooth="yes" name="dv01"/>
      <point x="501" y="-20"/>
      <point x="595" y="89"/>
      <point x="595" y="262" type="curve" smooth="yes"/>
      <point x="595" y="700" type="line" name="at02"/>
      <point x="505" y="700" type="line"/>
      <point x="505" y="264" type="line" smooth="yes"/>
      <point x="505" y="121"/>
      <point x="442" y="60"/>
      <point x="337" y="60" type="curve" smooth="yes" name="dv02"/>
      <point x="233" y="60"/>
      <point x="170" y="120"/>
    </contour>
    <contour>
      <point x="410" y="-204" type="curve"/>
      <point x="452" y="-181" type="line"/>
      <point x="408" y="-169"/>
      <point x="385" y="-141"/>
      <point x="385" y="-101" type="curve" smooth="yes"/>
      <point x="385" y="-60"/>
      <point x="410" y="-20"/>
      <point x="451" y="2" type="curve"/>
      <point x="430" y="5" type="line"/>
      <point x="357" y="-10"/>
      <point x="310" y="-57"/>
      <point x="310" y="-108" type="curve" smooth="yes"/>
      <point x="310" y="-155"/>
      <point x="350" y="-194"/>
    </contour>
  </outline>
</glyph>
<glyph name="longs" format="2">
  <advance width="300"/>
  <unicode hex="017F"/>
  <outline>
    <contour>
      <point x="266" y="662" type="curve"/>
      <point x="284" y="729" type="line" name="ab01"/>
      <point x="241" y="747"/>
      <point x="216" y="750"/>
      <point x="191" y="750" type="curve" smooth="yes"/>
      <point x="102" y="750"/>
      <point x="66" y="700"/>
      <point x="66" y="598" type="curve" smooth="yes"/>
      <point x="66" y="0" type="line" name="dv01"/>
      <point x="156" y="0" type="line"/>
      <point x="156" y="589" type="line" smooth="yes"/>
      <point x="156" y="662"/>
      <point x="166" y="677"/>
      <point x="200" y="677" type="curve" smooth="yes" name="dv02"/>
      <point x="221" y="677"/>
      <point x="246" y="671"/>
    </contour>
  </outline>
</glyph>
<glyph name="florin" format="2">
  <advance width="533"/>
  <unicode hex="0192"/>
  <outline>
    <contour>
      <point x="51" y="-20" type="curve" smooth="yes"/>
      <point x="201" y="-20"/>
      <point x="264" y="85"/>
      <point x="264" y="347" type="curve" smooth="yes"/>
      <point x="264" y="588"/>
      <point x="317" y="648"/>
      <point x="395" y="648" type="curve" smooth="yes"/>
      <point x="429" y="648"/>
      <point x="459" y="637"/>
      <point x="508" y="619" type="curve"/>
      <point x="524" y="696" type="line"/>
      <point x="469" y="713"/>
      <point x="437" y="720"/>
      <point x="394" y="720" type="curve" smooth="yes"/>
      <point x="238" y="720"/>
      <point x="174" y="627"/>
      <point x="174" y="369" type="curve" smooth="yes"/>
      <point x="174" y="135"/>
      <point x="121" y="54"/>
      <point x="48" y="54" type="curve" smooth="yes"/>
      <point x="26" y="54"/>
      <point x="-1" y="61"/>
      <point x="-65" y="80" type="curve"/>
      <point x="-80" y="6" type="line"/>
      <point x="-24" y="-11"/>
      <point x="7" y="-20"/>
    </contour>
    <contour>
      <point x="29" y="400" type="line"/>
      <point x="475" y="400" type="line"/>
      <point x="475" y="470" type="line"/>
      <point x="29" y="470" type="line"/>
    </contour>
  </outline>
</glyph>
<glyph name="uni0237" format="2">
  <advance width="290"/>
  <unicode hex="0237"/>
  <anchor x="100" y="-217" name="bottom"/>
  <anchor x="163" y="520" name="top"/>
  <outline>
    <contour>
      <point x="5" y="-136" type="curve"/>
      <point x="-13" y="-198" type="line"/>
      <point x="29" y="-212"/>
      <point x="40.68" y="-221"/>
      <point x="91.893" y="-221" type="curve" smooth="yes" name="dv01"/>
      <point x="165.569" y="-221"/>
      <point x="206" y="-174"/>
      <point x="206" y="-68" type="curve" smooth="yes"/>
      <point x="206" y="500" type="line"/>
      <point x="116" y="500" type="line" name="av01"/>
      <point x="116" y="-58.858" type="line" smooth="yes"/>
      <point x="116" y="-127.965"/>
      <point x="109.536" y="-151"/>
      <point x="73.984" y="-151" type="curve" smooth="yes" name="dv02"/>
      <point x="59.44" y="-151"/>
      <point x="30" y="-145.643"/>
    </contour>
  </outline>
</glyph>
<glyph name="uni0259" format="2">
  <advance width="563"/>
  <unicode hex="0259"/>
  <anchor x="276" y="-20" name="bottom"/>
  <anchor x="276" y="520" name="top"/>
  <outline>
    <contour>
      <point x="284" y="-20" type="curve" smooth="yes" name="dv01"/>
      <point x="432" y="-20"/>
      <point x="524" y="89"/>
      <point x="524" y="256" type="curve" smooth="yes" name="sh02"/>
      <point x="524" y="421"/>
      <point x="434" y="520"/>
      <point x="281" y="520" type="curve" smooth="yes" name="at01"/>
      <point x="188" y="520"/>
      <point x="113" y="483"/>
      <point x="71" y="430" type="curve"/>
      <point x="122" y="379" type="line"/>
      <point x="163.111" y="423.629"/>
      <point x="222" y="450"/>
      <point x="282" y="450" type="curve" smooth="yes" name="sv01"/>
      <point x="383" y="450"/>
      <point x="429.667" y="376.552"/>
      <point x="433" y="286" type="curve" name="sh03"/>
      <point x="43" y="286" type="line" name="dv04"/>
      <point x="41" y="271"/>
      <point x="40" y="262"/>
      <point x="40" y="246" type="curve" smooth="yes" name="sh01"/>
      <point x="40" y="86"/>
      <point x="138" y="-20"/>
    </contour>
    <contour>
      <point x="282" y="50" type="curve" smooth="yes" name="dv02"/>
      <point x="187" y="50"/>
      <point x="131" y="115"/>
      <point x="131" y="224" type="curve" name="dv03"/>
      <point x="433" y="224" type="line" name="ah01"/>
      <point x="429" y="112.358"/>
      <point x="375" y="50"/>
    </contour>
  </outline>
</glyph>
<glyph name="caron" format="2">
  <advance width="346"/>
  <unicode hex="02C7"/>
  <outline>
    <contour>
      <point x="32" y="701" type="line"/>
      <point x="134" y="550" type="line"/>
      <point x="212" y="550" type="line"/>
      <point x="314" y="701" type="line"/>
      <point x="241" y="701" type="line"/>
      <point x="173" y="588" type="line"/>
      <point x="105" y="701" type="line"/>
    </contour>
  </outline>
</glyph>
<glyph name="ogonek" format="2">
  <advance width="209"/>
  <unicode hex="02DB"/>
  <outline>
    <contour>
      <point x="142" y="-203" type="curve"/>
      <point x="184" y="-180" type="line"/>
      <point x="140" y="-168"/>
      <point x="117" y="-140"/>
      <point x="117" y="-100" type="curve" smooth="yes"/>
      <point x="117" y="-59"/>
      <point x="142" y="-19"/>
      <point x="183" y="3" type="curve"/>
      <point x="162" y="6" type="line"/>
      <point x="89" y="-9"/>
      <point x="42" y="-56"/>
      <point x="42" y="-107" type="curve" smooth="yes"/>
      <point x="42" y="-154"/>
      <point x="82" y="-193"/>
    </contour>
  </outline>
</glyph>
<glyph name="acutecomb" format="2">
  <advance width="0"/>
  <unicode hex="0301"/>
  <anchor x="124" y="500" name="_top"/>
  <anchor x="140" y="700" name="top"/>
  <outline>
    <contour>
      <point x="161" y="701" type="line"/>
      <point x="90" y="550" type="line"/>
      <point x="160" y="550" type="line"/>
      <point x="261" y="701" type="line"/>
    </contour>
  </outline>
</glyph>
<glyph name="uni0302" format="2">
  <advance width="0"/>
  <unicode hex="0302"/>
  <anchor x="173" y="500" name="_top"/>
  <anchor x="173" y="700" name="top"/>
  <outline>
    <contour>
      <point x="32" y="550" type="line"/>
      <point x="105" y="550" type="line"/>
      <point x="173" y="663" type="line"/>
      <point x="241" y="550" type="line"/>
      <point x="314" y="550" type="line"/>
      <point x="212" y="701" type="line"/>
      <point x="134" y="701" type="line"/>
    </contour>
  </outline>
</glyph>
<glyph name="tildecomb" format="2">
  <advance width="0"/>
  <unicode hex="0303"/>
  <anchor x="222" y="500" name="_top"/>
  <anchor x="222" y="670" name="top"/>
  <outline>
    <contour>
      <point x="280" y="582" type="curve" smooth="yes"/>
      <point x="335" y="582"/>
      <point x="380" y="621"/>
      <point x="380" y="684" type="curve"/>
      <point x="320" y="684" type="line"/>
      <point x="317" y="655"/>
      <point x="303" y="641"/>
      <point x="278" y="641" type="curve" smooth="yes"/>
      <point x="235" y="641"/>
      <point x="204" y="685"/>
      <point x="149" y="685" type="curve" smooth="yes"/>
      <point x="97" y="685"/>
      <point x="60" y="646.386"/>
      <point x="60" y="585" type="curve"/>
      <point x="120" y="585" type="line"/>
      <point x="123" y="614.286"/>
      <point x="134" y="626"/>
      <point x="156" y="626" type="curve" smooth="yes"/>
      <point x="198" y="626"/>
      <point x="221" y="582"/>
    </contour>
  </outline>
</glyph>
<glyph name="uni0306" format="2">
  <advance width="0"/>
  <unicode hex="0306"/>
  <anchor x="168" y="500" name="_top"/>
  <anchor x="168" y="680" name="top"/>
  <outline>
    <contour>
      <point x="169" y="552" type="curve" smooth="yes"/>
      <point x="239" y="552"/>
      <point x="286" y="607.536"/>
      <point x="294" y="701" type="curve"/>
      <point x="233" y="701" type="line"/>
      <point x="229" y="643.321"/>
      <point x="205" y="606"/>
      <point x="168" y="606" type="curve" smooth="yes"/>
      <point x="132" y="606"/>
      <point x="110" y="639.929"/>
      <point x="106" y="701" type="curve"/>
      <point x="45" y="701" type="line"/>
      <point x="52" y="608.891"/>
      <point x="98" y="552"/>
    </contour>
  </outline>
</glyph>
<glyph name="uni0307" format="2">
  <advance width="0"/>
  <unicode hex="0307"/>
  <anchor x="105" y="500" name="_top"/>
  <anchor x="105" y="663" name="top"/>
  <outline>
    <contour>
      <point x="53" y="626" type="curve" smooth="yes"/>
      <point x="53" y="601"/>
      <point x="72" y="574"/>
      <point x="106" y="574" type="curve" smooth="yes" name="dv01"/>
      <point x="140" y="574"/>
      <point x="158" y="600"/>
      <point x="158" y="626" type="curve" smooth="yes"/>
      <point x="158" y="651"/>
      <point x="140" y="676"/>
      <point x="106" y="676" type="curve" smooth="yes" name="dv02"/>
      <point x="72" y="676"/>
      <point x="53" y="650"/>
    </contour>
  </outline>
</glyph>
<glyph name="uni0308" format="2">
  <advance width="0"/>
  <unicode hex="0308"/>
  <anchor x="204" y="500" name="_top"/>
  <anchor x="204" y="500" name="_topgr"/>
  <anchor x="204" y="647" name="top"/>
  <outline>
    <contour>
      <point x="53.87" y="625" type="curve" smooth="yes"/>
      <point x="53.87" y="602.88"/>
      <point x="71.381" y="577.996"/>
      <point x="102.717" y="577.996" type="curve" smooth="yes" name="dv01"/>
      <point x="134.053" y="577.996"/>
      <point x="150.643" y="601.959"/>
      <point x="150.643" y="625" type="curve" smooth="yes"/>
      <point x="150.643" y="648.963"/>
      <point x="134.053" y="672.004"/>
      <point x="102.717" y="672.004" type="curve" smooth="yes" name="dv02"/>
      <point x="71.381" y="672.004"/>
      <point x="53.87" y="648.041"/>
    </contour>
    <contour>
      <point x="256.357" y="625" type="curve" smooth="yes"/>
      <point x="256.357" y="602.88"/>
      <point x="273.868" y="577.996"/>
      <point x="305.204" y="577.996" type="curve" smooth="yes" name="dv01.1"/>
      <point x="336.541" y="577.996"/>
      <point x="353.13" y="601.959"/>
      <point x="353.13" y="625" type="curve" smooth="yes"/>
      <point x="353.13" y="648.963"/>
      <point x="336.541" y="672.004"/>
      <point x="305.204" y="672.004" type="curve" smooth="yes" name="dv02.1"/>
      <point x="273.868" y="672.004"/>
      <point x="256.357" y="648.041"/>
    </contour>
  </outline>
</glyph>
<glyph name="uni030B" format="2">
  <advance width="0"/>
  <unicode hex="030B"/>
  <anchor x="148" y="500" name="_top"/>
  <anchor x="214" y="702" name="top"/>
  <outline>
    <contour>
      <point x="265" y="700" type="line"/>
      <point x="205" y="551" type="line"/>
      <point x="256" y="551" type="line"/>
      <point x="356" y="700" type="line"/>
    </contour>
    <contour>
      <point x="95" y="700" type="line"/>
      <point x="35" y="551" type="line"/>
      <point x="86" y="551" type="line"/>
      <point x="186" y="700" type="line"/>
    </contour>
  </outline>
</glyph>
<glyph name="uni030C" format="2">
  <advance width="0"/>
  <unicode hex="030C"/>
  <anchor x="173" y="500" name="_top"/>
  <anchor x="173" y="702" name="top"/>
  <outline>
    <contour>
      <point x="32" y="701" type="line"/>
      <point x="134" y="550" type="line"/>
      <point x="212" y="550" type="line"/>
      <point x="314" y="701" type="line"/>
      <point x="241" y="701" type="line"/>
      <point x="173" y="588" type="line"/>
      <point x="105" y="701" type="line"/>
    </contour>
  </outline>
</glyph>
<glyph name="uni0326" format="2">
  <advance width="0"/>
  <unicode hex="0326"/>
  <anchor x="123" y="0" name="_bottom"/>
  <anchor x="123" y="-248" name="bottom"/>
  <outline>
    <contour>
      <point x="80" y="-237" type="curve"/>
      <point x="88" y="-250" type="line"/>
      <point x="138" y="-234"/>
      <point x="173" y="-184"/>
      <point x="173" y="-126" type="curve" smooth="yes"/>
      <point x="173" y="-83"/>
      <point x="153" y="-57"/>
      <point x="120" y="-57" type="curve" smooth="yes"/>
      <point x="92" y="-57"/>
      <point x="73" y="-76"/>
      <point x="73" y="-104" type="curve" smooth="yes"/>
      <point x="73" y="-131"/>
      <point x="94.606" y="-148"/>
      <point x="115.225" y="-148" type="curve" smooth="yes"/>
      <point x="127.254" y="-148"/>
      <point x="136.77" y="-142"/>
      <point x="143" y="-135" type="curve"/>
      <point x="140" y="-184"/>
      <point x="123.714" y="-209"/>
    </contour>
  </outline>
</glyph>
<glyph name="uni0327" format="2">
  <advance width="0"/>
  <unicode hex="0327"/>
  <anchor x="171" y="-10" name="_bottom"/>
  <anchor x="151" y="-208" name="bottom"/>
  <outline>
    <contour>
      <point x="74" y="-161" type="curve"/>
      <point x="55" y="-195" type="line"/>
      <point x="76" y="-201"/>
      <point x="100" y="-208"/>
      <point x="139" y="-208" type="curve" smooth="yes"/>
      <point x="219" y="-208"/>
      <point x="265" y="-179"/>
      <point x="265" y="-127" type="curve" smooth="yes"/>
      <point x="265" y="-80"/>
      <point x="228" y="-54"/>
      <point x="169" y="-54" type="curve"/>
      <point x="213.74" y="24.895" type="line"/>
      <point x="156.74" y="24.895" type="line"/>
      <point x="102" y="-76" type="line"/>
      <point x="117" y="-74"/>
      <point x="128" y="-72"/>
      <point x="141" y="-72" type="curve" smooth="yes"/>
      <point x="176" y="-72"/>
      <point x="197" y="-87"/>
      <point x="197" y="-122" type="curve" smooth="yes"/>
      <point x="197" y="-156"/>
      <point x="178" y="-172"/>
      <point x="136" y="-172" type="curve" smooth="yes"/>
      <point x="113" y="-172"/>
      <point x="91" y="-167"/>
    </contour>
  </outline>
</glyph>
<glyph name="uni0375" format="2">
  <advance width="241"/>
  <unicode hex="0375"/>
  <outline>
    <contour>
      <point x="150" y="68" type="line"/>
      <point x="29" y="-149" type="line"/>
      <point x="128" y="-149" type="line"/>
      <point x="207" y="68" type="line"/>
    </contour>
  </outline>
</glyph>
<glyph name="uni037E" format="2">
  <advance width="277"/>
  <unicode hex="037E"/>
  <outline>
    <contour>
      <point x="-6" y="-149" type="line"/>
      <point x="89" y="-149" type="line"/>
      <point x="161" y="119" type="line"/>
      <point x="103" y="119" type="line"/>
    </contour>
    <component base="period" xOffset="7" yOffset="381" identifier="1A0458B9"/>
  </outline>
</glyph>
<glyph name="dieresistonos" format="2">
  <advance width="333"/>
  <unicode hex="0385"/>
  <anchor x="166" y="500" name="_topgr"/>
  <anchor x="166" y="688" name="topgr"/>
  <outline>
    <contour>
      <point x="128" y="550" type="line"/>
      <point x="174" y="550" type="line"/>
      <point x="225" y="713" type="line"/>
      <point x="159" y="713" type="line"/>
    </contour>
    <contour>
      <point x="55.749" y="564.307" type="curve" smooth="yes"/>
      <point x="83.98" y="564.307"/>
      <point x="98.096" y="585.009"/>
      <point x="98.096" y="606.653" type="curve" smooth="yes"/>
      <point x="98.096" y="629.238"/>
      <point x="83.98" y="649"/>
      <point x="55.749" y="649" type="curve" smooth="yes"/>
      <point x="28.459" y="649"/>
      <point x="13.402" y="626.415"/>
      <point x="13.402" y="606.653" type="curve" smooth="yes"/>
      <point x="13.402" y="587.833"/>
      <point x="28.459" y="564.307"/>
    </contour>
    <contour>
      <point x="279.251" y="564.307" type="curve" smooth="yes"/>
      <point x="307.482" y="564.307"/>
      <point x="321.598" y="585.009"/>
      <point x="321.598" y="606.653" type="curve" smooth="yes"/>
      <point x="321.598" y="629.238"/>
      <point x="307.482" y="649"/>
      <point x="279.251" y="649" type="curve" smooth="yes"/>
      <point x="251.961" y="649"/>
      <point x="236.904" y="626.415"/>
      <point x="236.904" y="606.653" type="curve" smooth="yes"/>
      <point x="236.904" y="587.833"/>
      <point x="251.961" y="564.307"/>
    </contour>
  </outline>
</glyph>
<glyph name="Xi" format="2">
  <advance width="593"/>
  <unicode hex="039E"/>
  <outline>
    <contour>
      <point x="75" y="620" type="line"/>
      <point x="528" y="620" type="line"/>
      <point x="528" y="700" type="line"/>
      <point x="75" y="700" type="line"/>
    </contour>
    <contour>
      <point x="75" y="0" type="line"/>
      <point x="528" y="0" type="line"/>
      <point x="528" y="80" type="line"/>
      <point x="75" y="80" type="line"/>
    </contour>
    <contour>
      <point x="131" y="311" type="line"/>
      <point x="473" y="311" type="line"/>
      <point x="473" y="387" type="line"/>
      <point x="131" y="387" type="line"/>
    </contour>
  </outline>
</glyph>
<glyph name="Sigma" format="2">
  <advance width="570"/>
  <unicode hex="03A3"/>
  <outline>
    <contour>
      <point x="41" y="0" type="line"/>
      <point x="504" y="0" type="line"/>
      <point x="504" y="80" type="line"/>
      <point x="177" y="80" type="line"/>
      <point x="388" y="350" type="line"/>
      <point x="177" y="620" type="line"/>
      <point x="504" y="620" type="line"/>
      <point x="504" y="700" type="line"/>
      <point x="41" y="700" type="line"/>
      <point x="41" y="652" type="line"/>
      <point x="277" y="350" type="line"/>
      <point x="41" y="48" type="line"/>
    </contour>
  </outline>
</glyph>
<glyph name="Psi" format="2">
  <advance width="883"/>
  <unicode hex="03A8"/>
  <anchor x="442" y="720" name="topgr"/>
  <outline>
    <contour>
      <point x="441" y="182" type="curve" smooth="yes"/>
      <point x="668" y="182"/>
      <point x="803" y="280"/>
      <point x="803" y="445" type="curve" smooth="yes"/>
      <point x="803" y="701" type="line"/>
      <point x="713" y="701" type="line"/>
      <point x="713" y="436" type="line" smooth="yes"/>
      <point x="713" y="324"/>
      <point x="626" y="262"/>
      <point x="445" y="262" type="curve" smooth="yes"/>
      <point x="262" y="262"/>
      <point x="170" y="326"/>
      <point x="170" y="436" type="curve" smooth="yes"/>
      <point x="170" y="701" type="line"/>
      <point x="80" y="701" type="line"/>
      <point x="80" y="445" type="line" smooth="yes"/>
      <point x="80" y="281"/>
      <point x="215" y="182"/>
    </contour>
    <contour>
      <point x="396" y="0" type="line"/>
      <point x="486" y="0" type="line"/>
      <point x="486" y="700" type="line"/>
      <point x="396" y="700" type="line"/>
    </contour>
  </outline>
</glyph>
<glyph name="eta" format="2">
  <advance width="601"/>
  <unicode hex="03B7"/>
  <anchor x="290" y="520" name="topgr"/>
  <outline>
    <contour>
      <point x="436" y="295.525" type="curve" smooth="yes"/>
      <point x="436" y="-200" type="line" name="ab01"/>
      <point x="526" y="-200" type="line"/>
      <point x="526" y="304" type="line" smooth="yes"/>
      <point x="526" y="448"/>
      <point x="474" y="520"/>
      <point x="368" y="520" type="curve" smooth="yes" name="at01"/>
      <point x="259" y="520"/>
      <point x="190" y="443"/>
      <point x="171" y="360" type="curve"/>
      <point x="172" y="292" type="line"/>
      <point x="179" y="237" type="line" name="iv01"/>
      <point x="179" y="365.204"/>
      <point x="233" y="450"/>
      <point x="337" y="450" type="curve" smooth="yes" name="sv01"/>
      <point x="411" y="450"/>
      <point x="436" y="406.867"/>
    </contour>
    <contour>
      <point x="89" y="376" type="curve" smooth="yes"/>
      <point x="89" y="0" type="line"/>
      <point x="179" y="0" type="line"/>
      <point x="179" y="384" type="line" smooth="yes"/>
      <point x="179" y="478"/>
      <point x="134" y="520"/>
      <point x="23" y="520" type="curve"/>
      <point x="23" y="450" type="line"/>
      <point x="60" y="450"/>
      <point x="89" y="436"/>
    </contour>
  </outline>
</glyph>
<glyph name="theta" format="2">
  <advance width="606"/>
  <unicode hex="03B8"/>
  <anchor x="303" y="721" name="topgr"/>
  <outline>
    <contour>
      <point x="304.996" y="-20" type="curve" smooth="yes"/>
      <point x="468.672" y="-20"/>
      <point x="555.5" y="109"/>
      <point x="555.5" y="348" type="curve" smooth="yes"/>
      <point x="555.5" y="586"/>
      <point x="465.678" y="720"/>
      <point x="304.996" y="720" type="curve" smooth="yes"/>
      <point x="142.318" y="720"/>
      <point x="50.5" y="585"/>
      <point x="50.5" y="348" type="curve" smooth="yes"/>
      <point x="50.5" y="110"/>
      <point x="139.324" y="-20"/>
    </contour>
    <contour>
      <point x="305.006" y="50" type="curve" smooth="yes"/>
      <point x="191.657" y="50"/>
      <point x="140.5" y="141"/>
      <point x="140.5" y="346" type="curve" smooth="yes"/>
      <point x="140.5" y="560"/>
      <point x="187.645" y="650"/>
      <point x="305.006" y="650" type="curve" smooth="yes"/>
      <point x="419.358" y="650"/>
      <point x="465.5" y="561"/>
      <point x="465.5" y="346" type="curve" smooth="yes"/>
      <point x="465.5" y="135"/>
      <point x="420.361" y="50"/>
    </contour>
    <contour>
      <point x="137" y="320" type="line"/>
      <point x="469" y="320" type="line"/>
      <point x="469" y="379" type="line"/>
      <point x="137" y="379" type="line"/>
    </contour>
  </outline>
</glyph>
<glyph name="iota" format="2">
  <advance width="300"/>
  <unicode hex="03B9"/>
  <anchor x="127" y="520" name="topgr"/>
  <outline>
    <contour>
      <point x="209" y="0" type="curve" smooth="yes"/>
      <point x="240" y="0" type="line"/>
      <point x="240" y="70" type="line"/>
      <point x="185" y="70"/>
      <point x="166" y="85"/>
      <point x="166" y="147" type="curve" smooth="yes"/>
      <point x="166" y="500" type="line"/>
      <point x="76" y="500" type="line"/>
      <point x="76" y="153" type="line" smooth="yes"/>
      <point x="76" y="47"/>
      <point x="113" y="0"/>
    </contour>
  </outline>
</glyph>
<glyph name="nu" format="2">
  <advance width="566"/>
  <unicode hex="03BD"/>
  <outline>
    <contour>
      <point x="214" y="-19" type="line"/>
      <point x="291" y="-19" type="line" smooth="yes"/>
      <point x="424" y="-19"/>
      <point x="516" y="96"/>
      <point x="516" y="268" type="curve" smooth="yes"/>
      <point x="516" y="352"/>
      <point x="494" y="444"/>
      <point x="462" y="500" type="curve"/>
      <point x="361" y="500" type="line"/>
      <point x="395" y="442"/>
      <point x="425" y="366"/>
      <point x="425" y="262" type="curve" smooth="yes"/>
      <point x="425" y="129"/>
      <point x="376" y="52"/>
      <point x="275" y="52" type="curve"/>
      <point x="121" y="500" type="line"/>
      <point x="25" y="500" type="line"/>
    </contour>
  </outline>
</glyph>
<glyph name="xi" format="2">
  <advance width="520"/>
  <unicode hex="03BE"/>
  <outline>
    <contour>
      <point x="352" y="-200" type="curve"/>
      <point x="440.727" y="-200" type="line"/>
      <point x="456.439" y="-183.068"/>
      <point x="474" y="-147.211"/>
      <point x="474" y="-102.39" type="curve" smooth="yes"/>
      <point x="474" y="-13.745"/>
      <point x="398" y="50"/>
      <point x="275" y="50" type="curve" smooth="yes"/>
      <point x="183" y="50"/>
      <point x="140" y="82.308"/>
      <point x="140" y="150.417" type="curve" smooth="yes"/>
      <point x="140" y="246.467"/>
      <point x="223" y="291"/>
      <point x="404" y="291" type="curve"/>
      <point x="404" y="353" type="line"/>
      <point x="251" y="353"/>
      <point x="176" y="394"/>
      <point x="176" y="477" type="curve" smooth="yes"/>
      <point x="176" y="558"/>
      <point x="248" y="606"/>
      <point x="405" y="630" type="curve"/>
      <point x="337" y="652" type="line"/>
      <point x="184" y="629.788"/>
      <point x="86" y="553.055"/>
      <point x="86" y="462.187" type="curve" smooth="yes"/>
      <point x="86" y="388.482"/>
      <point x="149" y="338"/>
      <point x="259" y="324" type="curve"/>
      <point x="130" y="319"/>
      <point x="50" y="249.048"/>
      <point x="50" y="141.429" type="curve" smooth="yes"/>
      <point x="50" y="38.294"/>
      <point x="123.126" y="-20"/>
      <point x="252.898" y="-20" type="curve" smooth="yes"/>
      <point x="347.653" y="-20"/>
      <point x="394" y="-53"/>
      <point x="394" y="-109" type="curve" smooth="yes"/>
      <point x="394" y="-143"/>
      <point x="377" y="-166"/>
    </contour>
    <contour>
      <point x="83" y="630" type="line"/>
      <point x="406" y="630" type="line"/>
      <point x="406" y="700" type="line"/>
      <point x="83" y="700" type="line"/>
    </contour>
  </outline>
</glyph>
<glyph name="pi" format="2">
  <advance width="645"/>
  <unicode hex="03C0"/>
  <anchor x="322" y="520" name="topgr"/>
  <outline>
    <contour>
      <point x="125" y="430" type="line"/>
      <point x="125" y="0" type="line"/>
      <point x="215" y="0" type="line"/>
      <point x="215" y="430" type="line"/>
      <point x="417.5" y="430" type="line"/>
      <point x="418" y="145.756" type="line" smooth="yes"/>
      <point x="418.185" y="40.645"/>
      <point x="466.487" y="0"/>
      <point x="583.25" y="0" type="curve"/>
      <point x="583.25" y="70" type="line"/>
      <point x="527.545" y="70"/>
      <point x="508" y="88.947"/>
      <point x="508" y="145.789" type="curve" smooth="yes"/>
      <point x="508.5" y="430" type="line"/>
      <point x="586" y="430" type="line"/>
      <point x="586" y="500" type="line"/>
      <point x="49" y="500" type="line"/>
      <point x="49" y="430" type="line"/>
    </contour>
  </outline>
</glyph>
<glyph name="rho" format="2">
  <advance width="600"/>
  <unicode hex="03C1"/>
  <anchor x="312" y="520" name="topgr"/>
  <outline>
    <contour>
      <point x="334" y="-20" type="curve" smooth="yes"/>
      <point x="464" y="-20"/>
      <point x="554" y="90"/>
      <point x="554" y="248" type="curve" smooth="yes"/>
      <point x="554" y="425"/>
      <point x="468" y="520"/>
      <point x="314" y="520" type="curve" smooth="yes"/>
      <point x="154" y="520"/>
      <point x="77" y="411"/>
      <point x="77" y="247" type="curve"/>
      <point x="87" y="250" type="line"/>
      <point x="109" y="229"/>
      <point x="140" y="201"/>
      <point x="159" y="192" type="curve"/>
      <point x="149" y="70"/>
      <point x="216" y="-20"/>
    </contour>
    <contour>
      <point x="77" y="-200" type="line"/>
      <point x="167" y="-200" type="line"/>
      <point x="167" y="274" type="line"/>
      <point x="77" y="251" type="line"/>
    </contour>
    <contour>
      <point x="312" y="50" type="curve" smooth="yes"/>
      <point x="221" y="50"/>
      <point x="167" y="117"/>
      <point x="167" y="250" type="curve" smooth="yes"/>
      <point x="167" y="385"/>
      <point x="217" y="450"/>
      <point x="313" y="450" type="curve" smooth="yes"/>
      <point x="413" y="450"/>
      <point x="464" y="385"/>
      <point x="464" y="251" type="curve" smooth="yes"/>
      <point x="464" y="118"/>
      <point x="414" y="50"/>
    </contour>
  </outline>
</glyph>
<glyph name="sigma" format="2">
  <advance width="629"/>
  <unicode hex="03C3"/>
  <anchor x="285" y="-20" name="bottom"/>
  <anchor x="387" y="-3" name="ogonek"/>
  <anchor x="285" y="520" name="topgr"/>
  <outline>
    <contour>
      <point x="46" y="244.815" type="curve" smooth="yes"/>
      <point x="46" y="75.333"/>
      <point x="131.406" y="-20"/>
      <point x="282.9" y="-20" type="curve" smooth="yes" name="dv01"/>
      <point x="447.611" y="-20"/>
      <point x="532" y="75.333"/>
      <point x="532" y="244.815" type="curve" smooth="yes"/>
      <point x="532" y="404.667"/>
      <point x="447.611" y="500"/>
      <point x="283.916" y="500" type="curve" smooth="yes" name="at01"/>
      <point x="131.406" y="500"/>
      <point x="46" y="404.667"/>
    </contour>
    <contour>
      <point x="284.893" y="45" type="curve" smooth="yes" name="dv02"/>
      <point x="185.289" y="45"/>
      <point x="136" y="111.633"/>
      <point x="136" y="244.899" type="curve" smooth="yes"/>
      <point x="136" y="374.246"/>
      <point x="184.262" y="435"/>
      <point x="286.946" y="435" type="curve" smooth="yes" name="sv01"/>
      <point x="390.658" y="435"/>
      <point x="442" y="370.327"/>
      <point x="442" y="242.94" type="curve" smooth="yes"/>
      <point x="442" y="108.693"/>
      <point x="391.685" y="45"/>
    </contour>
    <contour>
      <point x="278" y="500" type="line"/>
      <point x="337" y="430" type="line"/>
      <point x="582" y="430" type="line"/>
      <point x="582" y="500" type="line"/>
    </contour>
  </outline>
</glyph>
<glyph name="tau" format="2">
  <advance width="421"/>
  <unicode hex="03C4"/>
  <anchor x="210" y="520" name="topgr"/>
  <outline>
    <contour>
      <point x="42" y="500" type="line"/>
      <point x="42" y="430" type="line"/>
      <point x="372" y="430" type="line"/>
      <point x="372" y="500" type="line"/>
    </contour>
    <contour>
      <point x="281" y="0" type="curve" smooth="yes"/>
      <point x="312" y="0" type="line"/>
      <point x="312" y="70" type="line"/>
      <point x="257" y="70"/>
      <point x="238" y="85"/>
      <point x="238" y="147" type="curve" smooth="yes"/>
      <point x="238" y="500" type="line"/>
      <point x="148" y="500" type="line"/>
      <point x="148" y="153" type="line" smooth="yes"/>
      <point x="148" y="47"/>
      <point x="185" y="0"/>
    </contour>
  </outline>
</glyph>
<glyph name="phi" format="2">
  <advance width="712"/>
  <unicode hex="03C6"/>
  <anchor x="356" y="520" name="topgr"/>
  <outline>
    <contour>
      <point x="309" y="-20" type="curve"/>
      <point x="309" y="-200" type="line"/>
      <point x="399" y="-200" type="line"/>
      <point x="399" y="-20" type="line"/>
      <point x="577" y="-20"/>
      <point x="662" y="70"/>
      <point x="662" y="250" type="curve" smooth="yes"/>
      <point x="662" y="421"/>
      <point x="575" y="520"/>
      <point x="431" y="520" type="curve" smooth="yes"/>
      <point x="361" y="520"/>
      <point x="309" y="497.953"/>
      <point x="309" y="414.776" type="curve" smooth="yes"/>
      <point x="309" y="50" type="line"/>
      <point x="189" y="50"/>
      <point x="140" y="109.151"/>
      <point x="140" y="251.515" type="curve" smooth="yes"/>
      <point x="140" y="331.721"/>
      <point x="154" y="406.913"/>
      <point x="225" y="441" type="curve"/>
      <point x="166" y="500" type="line"/>
      <point x="100" y="460"/>
      <point x="50" y="382"/>
      <point x="50" y="251" type="curve" smooth="yes"/>
      <point x="50" y="115"/>
      <point x="100" y="-20"/>
    </contour>
    <contour>
      <point x="399" y="50" type="curve"/>
      <point x="399" y="410.804" type="line" smooth="yes"/>
      <point x="399" y="437.94"/>
      <point x="408.052" y="450"/>
      <point x="440.238" y="450" type="curve" smooth="yes"/>
      <point x="520.703" y="450"/>
      <point x="572" y="375.628"/>
      <point x="572" y="252.01" type="curve" smooth="yes"/>
      <point x="572" y="108.291"/>
      <point x="522.715" y="50"/>
    </contour>
  </outline>
</glyph>
<glyph name="psi" format="2">
  <advance width="774"/>
  <unicode hex="03C8"/>
  <anchor x="387" y="656" name="topgr"/>
  <outline>
    <contour>
      <point x="387" y="-20" type="curve" smooth="yes"/>
      <point x="563" y="-20"/>
      <point x="687" y="70"/>
      <point x="687" y="206" type="curve" smooth="yes"/>
      <point x="687" y="500" type="line"/>
      <point x="597" y="500" type="line"/>
      <point x="597" y="206" type="line" smooth="yes"/>
      <point x="597" y="115"/>
      <point x="507" y="51"/>
      <point x="388" y="51" type="curve" smooth="yes"/>
      <point x="276" y="51"/>
      <point x="176" y="108"/>
      <point x="176" y="206" type="curve" smooth="yes"/>
      <point x="176" y="500" type="line"/>
      <point x="86" y="500" type="line"/>
      <point x="86" y="206" type="line" smooth="yes"/>
      <point x="86" y="70"/>
      <point x="209" y="-20"/>
    </contour>
    <contour>
      <point x="341" y="-200" type="line"/>
      <point x="431" y="-200" type="line"/>
      <point x="431" y="656" type="line"/>
      <point x="341" y="656" type="line"/>
    </contour>
  </outline>
</glyph>
<glyph name="omega" format="2">
  <advance width="794"/>
  <unicode hex="03C9"/>
  <anchor x="397" y="520" name="topgr"/>
  <outline>
    <contour>
      <point x="442" y="157" type="curve" smooth="yes"/>
      <point x="442" y="361" type="line"/>
      <point x="352" y="361" type="line"/>
      <point x="352" y="157" type="line" smooth="yes"/>
      <point x="352" y="88"/>
      <point x="318" y="50"/>
      <point x="258" y="50" type="curve" smooth="yes"/>
      <point x="178" y="50"/>
      <point x="140" y="137"/>
      <point x="140" y="255" type="curve" smooth="yes"/>
      <point x="140" y="344"/>
      <point x="163" y="413"/>
      <point x="214" y="500" type="curve"/>
      <point x="118" y="500" type="line"/>
      <point x="73" y="422"/>
      <point x="50" y="342"/>
      <point x="50" y="252" type="curve" smooth="yes"/>
      <point x="50" y="84"/>
      <point x="128" y="-20"/>
      <point x="253" y="-20" type="curve" smooth="yes"/>
      <point x="320" y="-20"/>
      <point x="366" y="10"/>
      <point x="397" y="71" type="curve"/>
      <point x="428" y="10"/>
      <point x="474" y="-20"/>
      <point x="541" y="-20" type="curve" smooth="yes"/>
      <point x="666" y="-20"/>
      <point x="744" y="84"/>
      <point x="744" y="251" type="curve" smooth="yes"/>
      <point x="744" y="342"/>
      <point x="720" y="429"/>
      <point x="680" y="500" type="curve"/>
      <point x="580" y="500" type="line"/>
      <point x="623" y="432"/>
      <point x="654" y="356"/>
      <point x="654" y="252" type="curve" smooth="yes"/>
      <point x="654" y="136"/>
      <point x="618" y="50"/>
      <point x="536" y="50" type="curve" smooth="yes"/>
      <point x="475" y="50"/>
      <point x="442" y="88"/>
    </contour>
  </outline>
</glyph>
<glyph name="uni0402" format="2">
  <advance width="770"/>
  <unicode hex="0402"/>
  <outline>
    <contour>
      <point x="506" y="-21" type="curve" smooth="yes" name="dv01"/>
      <point x="629" y="-21"/>
      <point x="701" y="78"/>
      <point x="701" y="223" type="curve" smooth="yes"/>
      <point x="701" y="379"/>
      <point x="618" y="466"/>
      <point x="497" y="466" type="curve" smooth="yes"/>
      <point x="404" y="466"/>
      <point x="329" y="414"/>
      <point x="305" y="342" type="curve"/>
      <point x="305" y="620" type="line"/>
      <point x="554" y="620" type="line"/>
      <point x="554" y="700" type="line"/>
      <point x="41" y="700" type="line"/>
      <point x="41" y="620" type="line"/>
      <point x="205" y="620" type="line"/>
      <point x="205" y="0" type="line"/>
      <point x="305" y="0" type="line"/>
      <point x="305" y="221" type="line" smooth="yes"/>
      <point x="305" y="313"/>
      <point x="368" y="396"/>
      <point x="475" y="396" type="curve" smooth="yes"/>
      <point x="566" y="396"/>
      <point x="611" y="337.175"/>
      <point x="611" y="222.515" type="curve" smooth="yes"/>
      <point x="611" y="116.828"/>
      <point x="573" y="59"/>
      <point x="512" y="59" type="curve" smooth="yes" name="dv02"/>
      <point x="493" y="59"/>
      <point x="459" y="64.625"/>
      <point x="435" y="74" type="curve"/>
      <point x="413" y="2" type="line"/>
      <point x="456" y="-12"/>
      <point x="469" y="-21"/>
    </contour>
  </outline>
</glyph>
<glyph name="uni0404" format="2">
  <advance width="694"/>
  <unicode hex="0404"/>
  <anchor x="360" y="719" name="top"/>
  <outline>
    <contour>
      <point x="385" y="-20" type="curve" smooth="yes" name="dv01"/>
      <point x="483" y="-20"/>
      <point x="563" y="18"/>
      <point x="637" y="102" type="curve"/>
      <point x="579" y="160" type="line"/>
      <point x="527.477" y="93"/>
      <point x="460.101" y="60"/>
      <point x="385.789" y="60" type="curve" smooth="yes" name="dv02"/>
      <point x="243.11" y="60"/>
      <point x="147" y="182"/>
      <point x="147" y="366" type="curve" smooth="yes"/>
      <point x="147" y="542"/>
      <point x="234.193" y="640"/>
      <point x="373.899" y="640" type="curve" smooth="yes" name="dv03"/>
      <point x="453.165" y="640"/>
      <point x="517.569" y="609"/>
      <point x="579" y="541" type="curve"/>
      <point x="637" y="599" type="line"/>
      <point x="572" y="681"/>
      <point x="487" y="720"/>
      <point x="378" y="720" type="curve" smooth="yes" name="dv04"/>
      <point x="172" y="720"/>
      <point x="53" y="581"/>
      <point x="53" y="365" type="curve" smooth="yes"/>
      <point x="53" y="135"/>
      <point x="187" y="-20"/>
    </contour>
    <contour>
      <point x="470" y="320" type="line"/>
      <point x="470" y="400" type="line"/>
      <point x="135" y="400" type="line"/>
      <point x="135" y="320" type="line"/>
    </contour>
  </outline>
</glyph>
<glyph name="uni0409" format="2">
  <advance width="974"/>
  <unicode hex="0409"/>
  <outline>
    <contour>
      <point x="95" y="-20" type="curve" smooth="yes"/>
      <point x="208.582" y="-20"/>
      <point x="247.243" y="65.919"/>
      <point x="257.141" y="388.771" type="curve" smooth="yes"/>
      <point x="259.182" y="455.335"/>
      <point x="260" y="531.97"/>
      <point x="260" y="620" type="curve"/>
      <point x="513" y="620" type="line"/>
      <point x="513" y="0" type="line"/>
      <point x="687" y="0" type="line" smooth="yes"/>
      <point x="866" y="0"/>
      <point x="925" y="97.032"/>
      <point x="925" y="220.884" type="curve" smooth="yes"/>
      <point x="925" y="343.621"/>
      <point x="868" y="424"/>
      <point x="693" y="424" type="curve" smooth="yes"/>
      <point x="603" y="424" type="line"/>
      <point x="603" y="700" type="line"/>
      <point x="170" y="700" type="line"/>
      <point x="170" y="610.92"/>
      <point x="169.655" y="533.32"/>
      <point x="168.754" y="465.926" type="curve" smooth="yes"/>
      <point x="164.567" y="152.772"/>
      <point x="148.374" y="60"/>
      <point x="99" y="60" type="curve" smooth="yes"/>
      <point x="83" y="60"/>
      <point x="62" y="70"/>
      <point x="30" y="88" type="curve"/>
      <point x="9" y="9" type="line"/>
      <point x="45" y="-14"/>
      <point x="65" y="-20"/>
    </contour>
    <contour>
      <point x="660" y="80" type="curve" smooth="yes"/>
      <point x="603" y="80" type="line"/>
      <point x="603" y="344" type="line"/>
      <point x="686" y="344" type="line" smooth="yes"/>
      <point x="800" y="344"/>
      <point x="835" y="312.8"/>
      <point x="835" y="210.8" type="curve" smooth="yes"/>
      <point x="835" y="111.2"/>
      <point x="802" y="80"/>
    </contour>
  </outline>
</glyph>
<glyph name="uni040A" format="2">
  <advance width="970"/>
  <unicode hex="040A"/>
  <outline>
    <contour>
      <point x="88" y="700" type="line"/>
      <point x="88" y="0" type="line" name="ab01"/>
      <point x="178" y="0" type="line"/>
      <point x="178" y="345" type="line" name="dv01"/>
      <point x="508" y="345" type="line"/>
      <point x="508" y="0" type="line" name="ab02"/>
      <point x="598" y="0" type="line"/>
      <point x="598" y="700" type="line" name="at01"/>
      <point x="508" y="700" type="line"/>
      <point x="508" y="425" type="line"/>
      <point x="178" y="425" type="line" name="dv02"/>
      <point x="178" y="700" type="line" name="at02"/>
    </contour>
    <contour>
      <point x="670" y="80" type="curve" smooth="yes"/>
      <point x="584" y="80" type="line"/>
      <point x="518" y="0" type="line"/>
      <point x="697" y="0" type="line" smooth="yes"/>
      <point x="865" y="0"/>
      <point x="921" y="87.179"/>
      <point x="921" y="209.231" type="curve" smooth="yes"/>
      <point x="921" y="334.551"/>
      <point x="862" y="425"/>
      <point x="684" y="425" type="curve" smooth="yes"/>
      <point x="515" y="425" type="line"/>
      <point x="530" y="345" type="line"/>
      <point x="669" y="345" type="line" smooth="yes"/>
      <point x="787" y="345"/>
      <point x="831" y="309.283"/>
      <point x="831" y="204.435" type="curve" smooth="yes"/>
      <point x="831" y="114.565"/>
      <point x="798" y="80"/>
    </contour>
  </outline>
</glyph>
<glyph name="uni040B" format="2">
  <advance width="752"/>
  <unicode hex="040B"/>
  <outline>
    <contour>
      <point x="199" y="0" type="line"/>
      <point x="289" y="0" type="line"/>
      <point x="289" y="620" type="line"/>
      <point x="542" y="620" type="line"/>
      <point x="542" y="700" type="line"/>
      <point x="41" y="700" type="line"/>
      <point x="41" y="620" type="line"/>
      <point x="199" y="620" type="line"/>
    </contour>
    <contour>
      <point x="568" y="257" type="curve" smooth="yes"/>
      <point x="568" y="0" type="line"/>
      <point x="658" y="0" type="line"/>
      <point x="658" y="259" type="line" smooth="yes"/>
      <point x="658" y="405"/>
      <point x="582" y="475"/>
      <point x="474" y="475" type="curve" smooth="yes"/>
      <point x="354" y="475"/>
      <point x="287" y="390"/>
      <point x="278" y="310" type="curve"/>
      <point x="289" y="240" type="line"/>
      <point x="289" y="328"/>
      <point x="355" y="395"/>
      <point x="451" y="395" type="curve" smooth="yes"/>
      <point x="527" y="395"/>
      <point x="568" y="354"/>
    </contour>
  </outline>
</glyph>
<glyph name="uni040F" format="2">
  <advance width="683"/>
  <unicode hex="040F"/>
  <outline>
    <contour>
      <point x="304" y="-158" type="curve"/>
      <point x="385" y="-158" type="line"/>
      <point x="398" y="-105"/>
      <point x="397" y="-52"/>
      <point x="381" y="0" type="curve"/>
      <point x="586" y="0" type="line"/>
      <point x="586" y="700" type="line"/>
      <point x="496" y="700" type="line"/>
      <point x="496" y="81" type="line"/>
      <point x="187" y="81" type="line"/>
      <point x="187" y="700" type="line"/>
      <point x="97" y="700" type="line"/>
      <point x="97" y="0" type="line"/>
      <point x="302" y="0" type="line"/>
      <point x="314" y="-38"/>
      <point x="315" y="-119"/>
    </contour>
  </outline>
</glyph>
<glyph name="uni0411" format="2">
  <advance width="613"/>
  <unicode hex="0411"/>
  <outline>
    <contour>
      <point x="87" y="0" type="line"/>
      <point x="333" y="0" type="line" smooth="yes"/>
      <point x="474" y="0"/>
      <point x="564" y="84.981"/>
      <point x="564" y="216.036" type="curve" smooth="yes"/>
      <point x="564" y="349.138"/>
      <point x="471" y="429"/>
      <point x="330" y="429" type="curve" smooth="yes"/>
      <point x="177" y="429" type="line"/>
      <point x="177" y="700" type="line"/>
      <point x="87" y="700" type="line"/>
    </contour>
    <contour>
      <point x="330" y="80" type="curve" smooth="yes"/>
      <point x="177" y="80" type="line"/>
      <point x="177" y="349" type="line"/>
      <point x="330" y="349" type="line" smooth="yes"/>
      <point x="433" y="349"/>
      <point x="474" y="300.185"/>
      <point x="474" y="215.019" type="curve" smooth="yes"/>
      <point x="474" y="129.853"/>
      <point x="433" y="80"/>
    </contour>
    <contour>
      <point x="108" y="619" type="line"/>
      <point x="520" y="619" type="line"/>
      <point x="520" y="700" type="line"/>
      <point x="95" y="700" type="line"/>
      <point x="95" y="695" type="line"/>
    </contour>
  </outline>
</glyph>
<glyph name="uni0413" format="2">
  <advance width="544"/>
  <unicode hex="0413"/>
  <anchor x="283" y="-20" name="bottom"/>
  <anchor x="272" y="719" name="top"/>
  <outline>
    <contour>
      <point x="84" y="0" type="line"/>
      <point x="174" y="0" type="line"/>
      <point x="174" y="620" type="line"/>
      <point x="478" y="620" type="line"/>
      <point x="478" y="700" type="line"/>
      <point x="84" y="700" type="line"/>
    </contour>
  </outline>
</glyph>
<glyph name="uni0414" format="2">
  <advance width="829"/>
  <unicode hex="0414"/>
  <anchor x="425" y="700" name="top"/>
  <outline>
    <contour>
      <point x="40" y="-140" type="curve"/>
      <point x="120" y="-140" type="line"/>
      <point x="120" y="-47"/>
      <point x="117" y="0"/>
      <point x="176" y="0" type="curve" smooth="yes"/>
      <point x="646" y="0" type="line" smooth="yes"/>
      <point x="717" y="0"/>
      <point x="709" y="-42"/>
      <point x="709" y="-140" type="curve"/>
      <point x="789" y="-140" type="line"/>
      <point x="789" y="63"/>
      <point x="757" y="79"/>
      <point x="657" y="79" type="curve"/>
      <point x="657" y="700" type="line"/>
      <point x="202" y="700" type="line"/>
      <point x="202" y="669" type="line" smooth="yes"/>
      <point x="202" y="548.533"/>
      <point x="201.727" y="455.986"/>
      <point x="200.228" y="383.733" type="curve" smooth="yes"/>
      <point x="195.832" y="171.829"/>
      <point x="180.896" y="134.466"/>
      <point x="131.41" y="79.23" type="curve"/>
      <point x="68.2" y="71.48"/>
      <point x="40" y="32.67"/>
    </contour>
    <contour>
      <point x="567" y="80" type="line"/>
      <point x="216.99" y="80" type="line"/>
      <point x="273.346" y="133.466"/>
      <point x="286.916" y="172.844"/>
      <point x="290.496" y="372.058" type="curve" smooth="yes"/>
      <point x="291.648" y="436.198"/>
      <point x="291.765" y="516.907"/>
      <point x="291.94" y="619.99" type="curve"/>
      <point x="567" y="620" type="line"/>
    </contour>
  </outline>
</glyph>
<glyph name="uni0416" format="2">
  <advance width="925"/>
  <unicode hex="0416"/>
  <anchor x="463" y="720" name="top"/>
  <outline>
    <contour>
      <point x="177.83" y="356.29" type="curve"/>
      <point x="48" y="0" type="line"/>
      <point x="146" y="0" type="line"/>
      <point x="268.2" y="335.05" type="line"/>
      <point x="418" y="335" type="line"/>
      <point x="418" y="0" type="line"/>
      <point x="508" y="0" type="line"/>
      <point x="508" y="335" type="line"/>
      <point x="657.8" y="335.06" type="line"/>
      <point x="780" y="0" type="line"/>
      <point x="878" y="0" type="line"/>
      <point x="748.01" y="356.74" type="line"/>
      <point x="785.63" y="379.12"/>
      <point x="806.75" y="419.2"/>
      <point x="814" y="479" type="curve"/>
      <point x="835" y="700" type="line"/>
      <point x="744" y="700" type="line"/>
      <point x="729" y="541" type="line" smooth="yes"/>
      <point x="720" y="445"/>
      <point x="699" y="415"/>
      <point x="640" y="415" type="curve" smooth="yes"/>
      <point x="508" y="415" type="line"/>
      <point x="508" y="700" type="line"/>
      <point x="418" y="700" type="line"/>
      <point x="418" y="415" type="line"/>
      <point x="283" y="415" type="line" smooth="yes"/>
      <point x="215" y="415"/>
      <point x="204" y="465"/>
      <point x="197" y="541" type="curve" smooth="yes"/>
      <point x="182" y="700" type="line"/>
      <point x="91" y="700" type="line"/>
      <point x="112" y="479" type="line"/>
      <point x="119.52" y="415.38"/>
      <point x="142.43" y="377.19"/>
    </contour>
  </outline>
</glyph>
<glyph name="uni041A" format="2">
  <advance width="640"/>
  <unicode hex="041A"/>
  <anchor x="320" y="-20" name="bottom"/>
  <anchor x="320" y="719" name="top"/>
  <outline>
    <contour>
      <point x="149" y="335" type="line"/>
      <point x="357" y="335" type="line" smooth="yes"/>
      <point x="458" y="335"/>
      <point x="517" y="380"/>
      <point x="529" y="479" type="curve"/>
      <point x="550" y="700" type="line"/>
      <point x="460" y="700" type="line"/>
      <point x="445" y="541" type="line" smooth="yes"/>
      <point x="437" y="449"/>
      <point x="410" y="415"/>
      <point x="350" y="415" type="curve" smooth="yes"/>
      <point x="149" y="415" type="line"/>
    </contour>
    <contour>
      <point x="88" y="0" type="line"/>
      <point x="178" y="0" type="line"/>
      <point x="178" y="700" type="line"/>
      <point x="88" y="700" type="line"/>
    </contour>
    <contour>
      <point x="496" y="0" type="line"/>
      <point x="593" y="0" type="line"/>
      <point x="460" y="365" type="line"/>
      <point x="372" y="341" type="line"/>
    </contour>
  </outline>
</glyph>
<glyph name="uni041B" format="2">
  <advance width="720"/>
  <unicode hex="041B"/>
  <outline>
    <contour>
      <point x="95" y="-20" type="curve" smooth="yes"/>
      <point x="196.166" y="-20"/>
      <point x="237.895" y="38.161"/>
      <point x="252.804" y="281.191" type="curve" smooth="yes"/>
      <point x="258.084" y="367.274"/>
      <point x="260" y="485.296"/>
      <point x="260" y="620" type="curve"/>
      <point x="543" y="620" type="line"/>
      <point x="543" y="0" type="line"/>
      <point x="633" y="0" type="line"/>
      <point x="633" y="700" type="line"/>
      <point x="170" y="700" type="line"/>
      <point x="170" y="528.72"/>
      <point x="168.724" y="399.879"/>
      <point x="164.673" y="304.434" type="curve" smooth="yes"/>
      <point x="156.827" y="119.584"/>
      <point x="138.569" y="60"/>
      <point x="99" y="60" type="curve" smooth="yes"/>
      <point x="83" y="60"/>
      <point x="62" y="70"/>
      <point x="30" y="88" type="curve"/>
      <point x="9" y="9" type="line"/>
      <point x="45" y="-14"/>
      <point x="65" y="-20"/>
    </contour>
  </outline>
</glyph>
<glyph name="uni0423" format="2">
  <advance width="612"/>
  <unicode hex="0423"/>
  <anchor x="317" y="-20" name="bottom"/>
  <anchor x="306" y="719" name="top"/>
  <outline>
    <contour>
      <point x="91" y="20" type="curve"/>
      <point x="91" y="-60" type="line"/>
      <point x="227" y="-60"/>
      <point x="302" y="-44"/>
      <point x="335" y="45" type="curve" smooth="yes"/>
      <point x="574" y="700" type="line"/>
      <point x="478" y="700" type="line"/>
      <point x="275" y="109" type="line" smooth="yes"/>
      <point x="249" y="33"/>
      <point x="187" y="20"/>
    </contour>
    <contour>
      <point x="243" y="138" type="line"/>
      <point x="300" y="138" type="line"/>
      <point x="325" y="142" type="line"/>
      <point x="137" y="700" type="line"/>
      <point x="38" y="700" type="line"/>
    </contour>
  </outline>
</glyph>
<glyph name="uni0424" format="2">
  <advance width="836"/>
  <unicode hex="0424"/>
  <outline>
    <contour>
      <point x="373" y="60" type="curve"/>
      <point x="373" y="-20" type="line"/>
      <point x="463" y="-20" type="line"/>
      <point x="463" y="60" type="line"/>
      <point x="640" y="60"/>
      <point x="773" y="172"/>
      <point x="773" y="354" type="curve" smooth="yes"/>
      <point x="773" y="535"/>
      <point x="642" y="642"/>
      <point x="463" y="642" type="curve"/>
      <point x="463" y="722" type="line"/>
      <point x="373" y="722" type="line"/>
      <point x="373" y="642" type="line"/>
      <point x="194" y="642"/>
      <point x="63" y="535"/>
      <point x="63" y="354" type="curve" smooth="yes"/>
      <point x="63" y="172"/>
      <point x="196" y="60"/>
    </contour>
    <contour>
      <point x="373" y="562" type="curve"/>
      <point x="373" y="140" type="line"/>
      <point x="237" y="140"/>
      <point x="153" y="211"/>
      <point x="153" y="357" type="curve" smooth="yes"/>
      <point x="153" y="501"/>
      <point x="234" y="562"/>
    </contour>
    <contour>
      <point x="463" y="140" type="curve"/>
      <point x="463" y="562" type="line"/>
      <point x="597" y="562"/>
      <point x="683" y="504"/>
      <point x="683" y="354" type="curve" smooth="yes"/>
      <point x="683" y="208"/>
      <point x="602" y="140"/>
    </contour>
  </outline>
</glyph>
<glyph name="uni0426" format="2">
  <advance width="740"/>
  <unicode hex="0426"/>
  <outline>
    <contour>
      <point x="97" y="701" type="line"/>
      <point x="97" y="0" type="line"/>
      <point x="576" y="0" type="line" smooth="yes"/>
      <point x="647" y="0"/>
      <point x="639" y="-42"/>
      <point x="639" y="-140" type="curve"/>
      <point x="719" y="-140" type="line"/>
      <point x="719" y="72"/>
      <point x="687" y="80"/>
      <point x="587" y="80" type="curve"/>
      <point x="587" y="701" type="line"/>
      <point x="497" y="701" type="line"/>
      <point x="497" y="80" type="line"/>
      <point x="187" y="80" type="line"/>
      <point x="187" y="701" type="line"/>
    </contour>
  </outline>
</glyph>
<glyph name="uni0427" format="2">
  <advance width="674"/>
  <unicode hex="0427"/>
  <anchor x="337" y="719" name="top"/>
  <outline>
    <contour>
      <point x="283" y="223" type="curve" smooth="yes"/>
      <point x="414" y="223"/>
      <point x="489" y="308"/>
      <point x="498" y="388" type="curve"/>
      <point x="487" y="458" type="line"/>
      <point x="487" y="370"/>
      <point x="412" y="303"/>
      <point x="302" y="303" type="curve" smooth="yes"/>
      <point x="216" y="303"/>
      <point x="170" y="344"/>
      <point x="170" y="441" type="curve" smooth="yes"/>
      <point x="170" y="700" type="line"/>
      <point x="80" y="700" type="line"/>
      <point x="80" y="439" type="line" smooth="yes"/>
      <point x="80" y="293"/>
      <point x="164" y="223"/>
    </contour>
    <contour>
      <point x="487" y="0" type="line"/>
      <point x="577" y="0" type="line"/>
      <point x="577" y="700" type="line"/>
      <point x="487" y="700" type="line"/>
    </contour>
  </outline>
</glyph>
<glyph name="uni0428" format="2">
  <advance width="970"/>
  <unicode hex="0428"/>
  <outline>
    <contour>
      <point x="97" y="700" type="line"/>
      <point x="97" y="0" type="line"/>
      <point x="873" y="0" type="line"/>
      <point x="873" y="700" type="line"/>
      <point x="783" y="700" type="line"/>
      <point x="783" y="80" type="line"/>
      <point x="530" y="80" type="line"/>
      <point x="530" y="700" type="line"/>
      <point x="440" y="700" type="line"/>
      <point x="440" y="80" type="line"/>
      <point x="187" y="80" type="line"/>
      <point x="187" y="700" type="line"/>
    </contour>
  </outline>
</glyph>
<glyph name="uni042A" format="2">
  <advance width="735"/>
  <unicode hex="042A"/>
  <anchor x="359" y="700" name="top"/>
  <outline>
    <contour>
      <point x="199" y="0" type="line"/>
      <point x="445" y="0" type="line" smooth="yes"/>
      <point x="586" y="0"/>
      <point x="676" y="86.962"/>
      <point x="676" y="221.072" type="curve" smooth="yes"/>
      <point x="676" y="357.277"/>
      <point x="583" y="439"/>
      <point x="442" y="439" type="curve" smooth="yes"/>
      <point x="289" y="439" type="line"/>
      <point x="289" y="700" type="line"/>
      <point x="199" y="700" type="line"/>
    </contour>
    <contour>
      <point x="442" y="80" type="curve" smooth="yes"/>
      <point x="289" y="80" type="line"/>
      <point x="289" y="359" type="line"/>
      <point x="442" y="359" type="line" smooth="yes"/>
      <point x="545" y="359"/>
      <point x="586" y="308.371"/>
      <point x="586" y="220.039" type="curve" smooth="yes"/>
      <point x="586" y="131.707"/>
      <point x="545" y="80"/>
    </contour>
    <contour>
      <point x="41" y="620" type="line"/>
      <point x="214" y="620" type="line"/>
      <point x="247" y="694" type="line"/>
      <point x="247" y="700" type="line"/>
      <point x="41" y="700" type="line"/>
    </contour>
  </outline>
</glyph>
<glyph name="uni042C" format="2">
  <advance width="613"/>
  <unicode hex="042C"/>
  <anchor x="326" y="0" name="bottom"/>
  <anchor x="326" y="700" name="top"/>
  <outline>
    <contour>
      <point x="87" y="700" type="line"/>
      <point x="87" y="0" type="line"/>
      <point x="333" y="0" type="line" smooth="yes"/>
      <point x="474" y="0"/>
      <point x="564" y="86.962"/>
      <point x="564" y="221.072" type="curve" smooth="yes"/>
      <point x="564" y="357.277"/>
      <point x="471" y="439"/>
      <point x="330" y="439" type="curve" smooth="yes"/>
      <point x="177" y="439" type="line"/>
      <point x="177" y="700" type="line"/>
    </contour>
    <contour>
      <point x="330" y="80" type="curve" smooth="yes"/>
      <point x="177" y="80" type="line"/>
      <point x="177" y="359" type="line"/>
      <point x="330" y="359" type="line" smooth="yes"/>
      <point x="433" y="359"/>
      <point x="474" y="308.371"/>
      <point x="474" y="220.039" type="curve" smooth="yes"/>
      <point x="474" y="131.707"/>
      <point x="433" y="80"/>
    </contour>
  </outline>
</glyph>
<glyph name="uni042E" format="2">
  <advance width="1090"/>
  <unicode hex="042E"/>
  <anchor x="545" y="719" name="top"/>
  <outline>
    <contour>
      <point x="692" y="-20" type="curve" smooth="yes" name="dv01"/>
      <point x="888" y="-20"/>
      <point x="1027" y="107"/>
      <point x="1027" y="350" type="curve" smooth="yes" name="dv06"/>
      <point x="1027" y="575"/>
      <point x="901" y="720"/>
      <point x="693" y="720" type="curve" smooth="yes" name="dv04"/>
      <point x="493" y="720"/>
      <point x="358" y="586"/>
      <point x="358" y="350" type="curve" smooth="yes"/>
      <point x="358" y="109"/>
      <point x="497" y="-20"/>
    </contour>
    <contour>
      <point x="97" y="0" type="line" name="ab01"/>
      <point x="187" y="0" type="line"/>
      <point x="187" y="700" type="line" name="at01"/>
      <point x="97" y="700" type="line"/>
    </contour>
    <contour>
      <point x="172" y="331" type="line"/>
      <point x="382" y="331" type="line"/>
      <point x="382" y="411" type="line"/>
      <point x="172" y="411" type="line"/>
    </contour>
    <contour>
      <point x="694.969" y="60" type="curve" smooth="yes" name="dv02"/>
      <point x="538.916" y="60"/>
      <point x="452" y="158.541"/>
      <point x="452" y="349.512" type="curve" smooth="yes"/>
      <point x="452" y="531.827"/>
      <point x="538.916" y="640"/>
      <point x="689.043" y="640" type="curve" smooth="yes" name="dv03"/>
      <point x="851.023" y="640"/>
      <point x="933" y="543.671"/>
      <point x="933" y="350.003" type="curve" smooth="yes" name="dv05"/>
      <point x="933" y="170.384"/>
      <point x="844.109" y="60"/>
    </contour>
  </outline>
</glyph>
<glyph name="uni042F" format="2">
  <advance width="648"/>
  <unicode hex="042F"/>
  <anchor x="324" y="-20" name="bottom"/>
  <anchor x="324" y="719" name="top"/>
  <outline>
    <contour>
      <point x="300.43" y="620" type="curve" smooth="yes"/>
      <point x="470" y="620" type="line"/>
      <point x="470" y="0" type="line"/>
      <point x="560" y="0" type="line"/>
      <point x="560" y="700" type="line"/>
      <point x="292.216" y="700" type="line" smooth="yes"/>
      <point x="137.725" y="700"/>
      <point x="44" y="619"/>
      <point x="44" y="484" type="curve" smooth="yes"/>
      <point x="44" y="348"/>
      <point x="140.883" y="264"/>
      <point x="296.515" y="264" type="curve" smooth="yes"/>
      <point x="548" y="264" type="line"/>
      <point x="548" y="344" type="line"/>
      <point x="300.015" y="344" type="line" smooth="yes"/>
      <point x="178.617" y="344"/>
      <point x="134" y="381"/>
      <point x="134" y="482" type="curve" smooth="yes"/>
      <point x="134" y="583"/>
      <point x="179.009" y="620"/>
    </contour>
    <contour>
      <point x="231" y="333" type="line"/>
      <point x="41" y="0" type="line"/>
      <point x="142" y="0" type="line"/>
      <point x="305" y="281" type="line"/>
    </contour>
  </outline>
</glyph>
<glyph name="uni0432" format="2">
  <advance width="536"/>
  <unicode hex="0432"/>
  <anchor x="263" y="-20" name="bottom"/>
  <anchor x="263" y="520" name="top"/>
  <outline>
    <contour>
      <point x="80" y="0" type="line"/>
      <point x="305" y="0" type="line" smooth="yes"/>
      <point x="438" y="0"/>
      <point x="496" y="44"/>
      <point x="496" y="135" type="curve" smooth="yes"/>
      <point x="496" y="218"/>
      <point x="448" y="260"/>
      <point x="344" y="265" type="curve"/>
      <point x="432.727" y="283"/>
      <point x="466" y="314"/>
      <point x="466" y="383" type="curve" smooth="yes"/>
      <point x="466" y="467"/>
      <point x="416.866" y="500"/>
      <point x="288.515" y="500" type="curve" smooth="yes"/>
      <point x="80" y="500" type="line"/>
    </contour>
    <contour>
      <point x="290.603" y="70" type="curve" smooth="yes"/>
      <point x="170" y="70" type="line"/>
      <point x="170" y="222" type="line"/>
      <point x="289.616" y="222" type="line" smooth="yes"/>
      <point x="367.534" y="222"/>
      <point x="406" y="202"/>
      <point x="406" y="149" type="curve" smooth="yes"/>
      <point x="406" y="97"/>
      <point x="368.521" y="70"/>
    </contour>
    <contour>
      <point x="271.562" y="284" type="curve" smooth="yes"/>
      <point x="170" y="284" type="line"/>
      <point x="170" y="430" type="line"/>
      <point x="273.551" y="430" type="line" smooth="yes"/>
      <point x="339.198" y="430"/>
      <point x="376" y="409"/>
      <point x="376" y="360" type="curve" smooth="yes"/>
      <point x="376" y="309"/>
      <point x="337.209" y="284"/>
    </contour>
  </outline>
</glyph>
<glyph name="uni0434" format="2">
  <advance width="730"/>
  <unicode hex="0434"/>
  <anchor x="399" y="-20" name="bottom"/>
  <anchor x="370" y="520" name="top"/>
  <outline>
    <contour>
      <point x="44" y="-120" type="curve"/>
      <point x="120" y="-120" type="line"/>
      <point x="121" y="-87"/>
      <point x="107" y="0"/>
      <point x="166" y="0" type="curve" smooth="yes"/>
      <point x="556" y="0" type="line" smooth="yes"/>
      <point x="627" y="0"/>
      <point x="608" y="-82"/>
      <point x="608" y="-120" type="curve"/>
      <point x="685" y="-120" type="line"/>
      <point x="685" y="55"/>
      <point x="664" y="79"/>
      <point x="564" y="79" type="curve"/>
      <point x="564" y="500" type="line"/>
      <point x="185" y="500" type="line"/>
      <point x="185" y="317.583" type="line" smooth="yes"/>
      <point x="185" y="180.229"/>
      <point x="172.54" y="112.813"/>
      <point x="146.58" y="83.821" type="curve"/>
      <point x="70.75" y="74.917"/>
      <point x="44" y="29.675"/>
    </contour>
    <contour>
      <point x="474" y="80" type="line"/>
      <point x="181.99" y="80" type="line"/>
      <point x="251.18" y="103.38"/>
      <point x="275" y="175.58"/>
      <point x="275" y="420" type="curve"/>
      <point x="474" y="420" type="line"/>
    </contour>
  </outline>
</glyph>
<glyph name="uni0438" format="2">
  <advance width="609"/>
  <unicode hex="0438"/>
  <anchor x="305" y="-20" name="bottom"/>
  <anchor x="305" y="520" name="top"/>
  <outline>
    <contour>
      <point x="80" y="0" type="line"/>
      <point x="167" y="0" type="line"/>
      <point x="439" y="374" type="line"/>
      <point x="439" y="0" type="line"/>
      <point x="529" y="0" type="line"/>
      <point x="529" y="500" type="line"/>
      <point x="441" y="500" type="line"/>
      <point x="170" y="127" type="line"/>
      <point x="170" y="500" type="line"/>
      <point x="80" y="500" type="line"/>
    </contour>
  </outline>
</glyph>
<glyph name="uni043A" format="2">
  <advance width="588"/>
  <unicode hex="043A"/>
  <anchor x="288" y="-20" name="bottom"/>
  <anchor x="288" y="520" name="top"/>
  <outline>
    <contour>
      <point x="161" y="231" type="line" name="dv01"/>
      <point x="345" y="231" type="line" smooth="yes"/>
      <point x="426" y="231"/>
      <point x="473" y="267"/>
      <point x="485" y="345" type="curve"/>
      <point x="504" y="500" type="line" name="av02"/>
      <point x="418" y="500" type="line"/>
      <point x="404" y="386" type="line" smooth="yes"/>
      <point x="397" y="330"/>
      <point x="378" y="301"/>
      <point x="307" y="301" type="curve" smooth="yes"/>
      <point x="161" y="301" type="line" name="dv02"/>
    </contour>
    <contour>
      <point x="84" y="0" type="line" name="ab01"/>
      <point x="174" y="0" type="line"/>
      <point x="174" y="500" type="line"/>
      <point x="84" y="500" type="line" name="av01"/>
    </contour>
    <contour>
      <point x="443" y="0" type="line" name="ab02"/>
      <point x="542" y="0" type="line"/>
      <point x="430" y="251" type="line"/>
      <point x="336" y="240" type="line" name="iv01"/>
    </contour>
  </outline>
</glyph>
<glyph name="uni043B" format="2">
  <advance width="590"/>
  <unicode hex="043B"/>
  <anchor x="311" y="520" name="top"/>
  <outline>
    <contour>
      <point x="37" y="53" type="curve"/>
      <point x="21" y="-16" type="line"/>
      <point x="36" y="-18"/>
      <point x="51" y="-20"/>
      <point x="61" y="-20" type="curve" smooth="yes"/>
      <point x="193" y="-20"/>
      <point x="216" y="61"/>
      <point x="216" y="420" type="curve"/>
      <point x="417" y="420" type="line"/>
      <point x="417" y="0" type="line"/>
      <point x="507" y="0" type="line"/>
      <point x="507" y="500" type="line"/>
      <point x="126" y="500" type="line"/>
      <point x="126" y="168"/>
      <point x="123" y="50"/>
      <point x="63" y="50" type="curve" smooth="yes"/>
      <point x="55" y="50"/>
      <point x="47" y="51"/>
    </contour>
  </outline>
</glyph>
<glyph name="uni043D" format="2">
  <advance width="593"/>
  <unicode hex="043D"/>
  <anchor x="296" y="-20" name="bottom"/>
  <anchor x="296" y="520" name="top"/>
  <outline>
    <contour>
      <point x="80" y="500" type="line"/>
      <point x="80" y="0" type="line"/>
      <point x="170" y="0" type="line"/>
      <point x="170" y="215" type="line"/>
      <point x="423" y="215" type="line"/>
      <point x="423" y="0" type="line"/>
      <point x="513" y="0" type="line"/>
      <point x="513" y="500" type="line"/>
      <point x="423" y="500" type="line"/>
      <point x="423" y="295" type="line"/>
      <point x="170" y="295" type="line"/>
      <point x="170" y="500" type="line"/>
    </contour>
  </outline>
</glyph>
<glyph name="uni043F" format="2">
  <advance width="618"/>
  <unicode hex="043F"/>
  <anchor x="309" y="-20" name="bottom"/>
  <anchor x="309" y="520" name="top"/>
  <outline>
    <contour>
      <point x="90" y="0" type="line"/>
      <point x="180" y="0" type="line"/>
      <point x="180" y="420" type="line"/>
      <point x="438" y="420" type="line"/>
      <point x="438" y="0" type="line"/>
      <point x="528" y="0" type="line"/>
      <point x="528" y="500" type="line"/>
      <point x="90" y="500" type="line"/>
    </contour>
  </outline>
</glyph>
<glyph name="uni0442" format="2">
  <advance width="525"/>
  <unicode hex="0442"/>
  <anchor x="262" y="-20" name="bottom"/>
  <anchor x="263" y="520" name="top"/>
  <outline>
    <contour>
      <point x="217.5" y="430" type="line"/>
      <point x="217.5" y="0" type="line"/>
      <point x="307.5" y="0" type="line"/>
      <point x="307.5" y="430" type="line"/>
      <point x="483" y="430" type="line"/>
      <point x="483" y="500" type="line"/>
      <point x="42" y="500" type="line"/>
      <point x="42" y="430" type="line"/>
    </contour>
  </outline>
</glyph>
<glyph name="uni0444" format="2">
  <advance width="806"/>
  <unicode hex="0444"/>
  <outline>
    <contour>
      <point x="357" y="750" type="line"/>
      <point x="357" y="-200" type="line"/>
      <point x="447" y="-200" type="line"/>
      <point x="447" y="750" type="line"/>
    </contour>
    <contour>
      <point x="398.345" y="-0.024" type="curve"/>
      <point x="401.29" y="84.81" type="line"/>
      <point x="367.148" y="62.888"/>
      <point x="324.999" y="51"/>
      <point x="282.385" y="51" type="curve" smooth="yes" name="dv02"/>
      <point x="183.789" y="51"/>
      <point x="135" y="119"/>
      <point x="135" y="255" type="curve" smooth="yes"/>
      <point x="135" y="387"/>
      <point x="182.789" y="449"/>
      <point x="284.466" y="449" type="curve" smooth="yes" name="sv01"/>
      <point x="316.73" y="449"/>
      <point x="348.111" y="441.48"/>
      <point x="375.92" y="427.373" type="curve"/>
      <point x="391.421" y="501.239" type="line"/>
      <point x="359.638" y="513.191"/>
      <point x="322.982" y="520"/>
      <point x="282.015" y="520" type="curve" smooth="yes" name="at01"/>
      <point x="130.082" y="520"/>
      <point x="45" y="421"/>
      <point x="45" y="255" type="curve" smooth="yes"/>
      <point x="45" y="79"/>
      <point x="132.091" y="-20"/>
      <point x="282.982" y="-20" type="curve" smooth="yes" name="dv01"/>
      <point x="325.992" y="-20"/>
      <point x="364.86" y="-12.729"/>
    </contour>
    <contour>
      <point x="407.577" y="83.005" type="curve"/>
      <point x="410.248" y="-1.26" type="line"/>
      <point x="443.272" y="-13.199"/>
      <point x="481.423" y="-20"/>
      <point x="523.018" y="-20" type="curve" smooth="yes" name="dv01"/>
      <point x="673.909" y="-20"/>
      <point x="761" y="79"/>
      <point x="761" y="255" type="curve" smooth="yes"/>
      <point x="761" y="421"/>
      <point x="675.918" y="520"/>
      <point x="523.985" y="520" type="curve" smooth="yes" name="at01"/>
      <point x="481.261" y="520"/>
      <point x="443.226" y="512.595"/>
      <point x="410.516" y="499.673" type="curve"/>
      <point x="408.262" y="414.438" type="line"/>
      <point x="440.907" y="436.84"/>
      <point x="480.507" y="449"/>
      <point x="521.534" y="449" type="curve" smooth="yes" name="sv01"/>
      <point x="623.211" y="449"/>
      <point x="671" y="387"/>
      <point x="671" y="255" type="curve" smooth="yes"/>
      <point x="671" y="119"/>
      <point x="622.211" y="51"/>
      <point x="523.615" y="51" type="curve" smooth="yes" name="dv02"/>
      <point x="482.186" y="51"/>
      <point x="441.196" y="62.236"/>
    </contour>
  </outline>
</glyph>
<glyph name="uni0447" format="2">
  <advance width="575"/>
  <unicode hex="0447"/>
  <anchor x="288" y="-20" name="bottom"/>
  <anchor x="288" y="520" name="top"/>
  <outline>
    <contour>
      <point x="405" y="257.14" type="curve"/>
      <point x="405" y="0" type="line"/>
      <point x="495" y="0" type="line"/>
      <point x="495" y="500" type="line"/>
      <point x="405" y="500" type="line"/>
      <point x="405" y="365" type="line" smooth="yes"/>
      <point x="405" y="284.38"/>
      <point x="335.5" y="235"/>
      <point x="261.93" y="235" type="curve" smooth="yes"/>
      <point x="198.27" y="235"/>
      <point x="166" y="266.98"/>
      <point x="166" y="340" type="curve" smooth="yes"/>
      <point x="166" y="500" type="line"/>
      <point x="76" y="500" type="line"/>
      <point x="76" y="340" type="line" smooth="yes"/>
      <point x="76" y="217.68"/>
      <point x="137.47" y="165"/>
      <point x="240.01" y="165" type="curve" smooth="yes"/>
      <point x="310.26" y="165"/>
      <point x="374.34" y="195.84"/>
    </contour>
  </outline>
</glyph>
<glyph name="uni0448" format="2">
  <advance width="859"/>
  <unicode hex="0448"/>
  <anchor x="430" y="500" name="top"/>
  <outline>
    <contour>
      <point x="80" y="500" type="line"/>
      <point x="80" y="0" type="line"/>
      <point x="779" y="0" type="line"/>
      <point x="779" y="500" type="line"/>
      <point x="689" y="500" type="line"/>
      <point x="689" y="80" type="line"/>
      <point x="475" y="80" type="line"/>
      <point x="475" y="500" type="line"/>
      <point x="385" y="500" type="line"/>
      <point x="385" y="80" type="line"/>
      <point x="170" y="80" type="line"/>
      <point x="170" y="500" type="line"/>
    </contour>
  </outline>
</glyph>
<glyph name="uni0449" format="2">
  <advance width="944"/>
  <unicode hex="0449"/>
  <outline>
    <contour>
      <point x="825" y="-140" type="curve"/>
      <point x="900" y="-140" type="line"/>
      <point x="900" y="34"/>
      <point x="880" y="79"/>
      <point x="779" y="79" type="curve"/>
      <point x="779" y="500" type="line"/>
      <point x="689" y="500" type="line"/>
      <point x="689" y="80" type="line"/>
      <point x="475" y="80" type="line"/>
      <point x="475" y="500" type="line"/>
      <point x="385" y="500" type="line"/>
      <point x="385" y="80" type="line"/>
      <point x="170" y="80" type="line"/>
      <point x="170" y="500" type="line"/>
      <point x="80" y="500" type="line"/>
      <point x="80" y="0" type="line"/>
      <point x="772" y="0" type="line" smooth="yes"/>
      <point x="840" y="0"/>
      <point x="825" y="-82"/>
    </contour>
  </outline>
</glyph>
<glyph name="uni044A" format="2">
  <advance width="580"/>
  <unicode hex="044A"/>
  <outline>
    <contour>
      <point x="144" y="0" type="line"/>
      <point x="364" y="0" type="line" smooth="yes"/>
      <point x="473" y="0"/>
      <point x="540" y="67"/>
      <point x="540" y="172.286" type="curve" smooth="yes"/>
      <point x="540" y="274.381"/>
      <point x="471" y="335"/>
      <point x="356" y="335" type="curve" smooth="yes"/>
      <point x="169" y="335" type="line"/>
      <point x="169" y="265" type="line"/>
      <point x="359" y="265" type="line" smooth="yes"/>
      <point x="423" y="265"/>
      <point x="450" y="228.017"/>
      <point x="450" y="167.5" type="curve" smooth="yes"/>
      <point x="450" y="106.983"/>
      <point x="418" y="70"/>
      <point x="345" y="70" type="curve" smooth="yes"/>
      <point x="234" y="70" type="line"/>
      <point x="234" y="500" type="line"/>
      <point x="144" y="500" type="line"/>
    </contour>
    <contour>
      <point x="11" y="430" type="line"/>
      <point x="169" y="430" type="line"/>
      <point x="202" y="497" type="line"/>
      <point x="202" y="500" type="line"/>
      <point x="11" y="500" type="line"/>
    </contour>
  </outline>
</glyph>
<glyph name="uni044B" format="2">
  <advance width="753"/>
  <unicode hex="044B"/>
  <anchor x="376" y="-20" name="bottom"/>
  <anchor x="376" y="520" name="top"/>
  <outline>
    <contour>
      <point x="80" y="500" type="line"/>
      <point x="80" y="0" type="line"/>
      <point x="301.44" y="0" type="line" smooth="yes"/>
      <point x="413.264" y="0"/>
      <point x="472" y="67"/>
      <point x="472" y="172.286" type="curve" smooth="yes"/>
      <point x="472" y="274.381"/>
      <point x="411.089" y="335"/>
      <point x="292.903" y="335" type="curve" smooth="yes"/>
      <point x="105" y="335" type="line"/>
      <point x="105" y="265" type="line"/>
      <point x="297.642" y="265" type="line" smooth="yes"/>
      <point x="364.004" y="265"/>
      <point x="382" y="228.017"/>
      <point x="382" y="167.5" type="curve" smooth="yes"/>
      <point x="382" y="106.983"/>
      <point x="358.447" y="70"/>
      <point x="281.903" y="70" type="curve" smooth="yes"/>
      <point x="170" y="70" type="line"/>
      <point x="170" y="500" type="line"/>
    </contour>
    <contour>
      <point x="583" y="500" type="line"/>
      <point x="583" y="0" type="line"/>
      <point x="673" y="0" type="line"/>
      <point x="673" y="500" type="line"/>
    </contour>
  </outline>
</glyph>
<glyph name="uni044C" format="2">
  <advance width="516"/>
  <unicode hex="044C"/>
  <anchor x="258" y="-20" name="bottom"/>
  <anchor x="258" y="520" name="top"/>
  <outline>
    <contour>
      <point x="80" y="0" type="line"/>
      <point x="305.44" y="0" type="line" smooth="yes"/>
      <point x="417.264" y="0"/>
      <point x="476" y="67"/>
      <point x="476" y="172.286" type="curve" smooth="yes"/>
      <point x="476" y="274.381"/>
      <point x="415.089" y="335"/>
      <point x="296.903" y="335" type="curve" smooth="yes"/>
      <point x="105" y="335" type="line"/>
      <point x="105" y="265" type="line"/>
      <point x="301.642" y="265" type="line" smooth="yes"/>
      <point x="368.004" y="265"/>
      <point x="386" y="228.017"/>
      <point x="386" y="167.5" type="curve" smooth="yes"/>
      <point x="386" y="106.983"/>
      <point x="362.447" y="70"/>
      <point x="285.903" y="70" type="curve" smooth="yes"/>
      <point x="170" y="70" type="line"/>
      <point x="170" y="500" type="line"/>
      <point x="80" y="500" type="line"/>
    </contour>
  </outline>
</glyph>
<glyph name="uni044E" format="2">
  <advance width="838"/>
  <unicode hex="044E"/>
  <anchor x="418" y="-20" name="bottom"/>
  <anchor x="418" y="520" name="top"/>
  <outline>
    <contour>
      <point x="532.874" y="-20" type="curve" smooth="yes" name="dv01"/>
      <point x="698.264" y="-20"/>
      <point x="783" y="79"/>
      <point x="783" y="255" type="curve" smooth="yes"/>
      <point x="783" y="421"/>
      <point x="698.264" y="520"/>
      <point x="533.895" y="520" type="curve" smooth="yes" name="at01"/>
      <point x="380.757" y="520"/>
      <point x="295" y="421"/>
      <point x="295" y="255" type="curve" smooth="yes"/>
      <point x="295" y="79"/>
      <point x="380.757" y="-20"/>
    </contour>
    <contour>
      <point x="85" y="0" type="line"/>
      <point x="175" y="0" type="line"/>
      <point x="175" y="500" type="line"/>
      <point x="85" y="500" type="line"/>
    </contour>
    <contour>
      <point x="151" y="220" type="line"/>
      <point x="327" y="220" type="line"/>
      <point x="327" y="290" type="line"/>
      <point x="151" y="290" type="line"/>
    </contour>
    <contour>
      <point x="534.866" y="50" type="curve" smooth="yes" name="dv02"/>
      <point x="434.611" y="50"/>
      <point x="385" y="118.342"/>
      <point x="385" y="255.025" type="curve" smooth="yes"/>
      <point x="385" y="387.688"/>
      <point x="433.577" y="450"/>
      <point x="536.933" y="450" type="curve" smooth="yes" name="sv01"/>
      <point x="641.322" y="450"/>
      <point x="693" y="383.668"/>
      <point x="693" y="253.015" type="curve" smooth="yes"/>
      <point x="693" y="115.327"/>
      <point x="642.356" y="50"/>
    </contour>
  </outline>
</glyph>
<glyph name="uni0454" format="2">
  <advance width="563"/>
  <unicode hex="0454"/>
  <anchor x="264" y="-20" name="bottom"/>
  <anchor x="284" y="520" name="top"/>
  <outline>
    <contour>
      <point x="294" y="-20" type="curve" smooth="yes" name="dv01"/>
      <point x="390" y="-20"/>
      <point x="465" y="17"/>
      <point x="506" y="70" type="curve"/>
      <point x="453" y="123" type="line"/>
      <point x="417" y="76.361"/>
      <point x="356" y="50"/>
      <point x="294" y="50" type="curve" smooth="yes" name="dv02"/>
      <point x="197" y="50"/>
      <point x="149" y="118.342"/>
      <point x="149" y="255.025" type="curve" smooth="yes"/>
      <point x="149" y="387.688"/>
      <point x="196" y="450"/>
      <point x="296" y="450" type="curve" smooth="yes" name="sv01"/>
      <point x="355" y="450"/>
      <point x="411" y="423.639"/>
      <point x="447" y="377" type="curve"/>
      <point x="500" y="430" type="line"/>
      <point x="459" y="483"/>
      <point x="387" y="520"/>
      <point x="293" y="520" type="curve" smooth="yes" name="at01"/>
      <point x="143" y="520"/>
      <point x="59" y="421"/>
      <point x="59" y="255" type="curve" smooth="yes"/>
      <point x="59" y="79"/>
      <point x="145" y="-20"/>
    </contour>
    <contour>
      <point x="399" y="220" type="line"/>
      <point x="399" y="285" type="line"/>
      <point x="135" y="285" type="line"/>
      <point x="135" y="220" type="line"/>
    </contour>
  </outline>
</glyph>
